<mxfile host="app.diagrams.net" modified="2023-09-17T00:36:14.455Z" agent="Mozilla/5.0 (Windows NT 10.0; Win64; x64) AppleWebKit/537.36 (KHTML, like Gecko) Chrome/116.0.0.0 Safari/537.36 Edg/116.0.1938.76" etag="Ll6nE6YAKJK81I7frqSZ" version="21.7.2" type="github">
  <diagram name="Page-1" id="lAlVdNudVkRyElGKGxTz">
    <mxGraphModel dx="1072" dy="457" grid="1" gridSize="10" guides="1" tooltips="1" connect="1" arrows="1" fold="1" page="1" pageScale="1" pageWidth="850" pageHeight="1100" math="0" shadow="0">
      <root>
        <mxCell id="0" />
        <mxCell id="1" parent="0" />
        <mxCell id="qElc-rtGXhzsWFZlQuVK-15" value="" style="rounded=1;whiteSpace=wrap;html=1;fillColor=#000000;" parent="1" vertex="1">
          <mxGeometry x="119.7" y="100" width="980.3" height="400" as="geometry" />
        </mxCell>
        <mxCell id="qElc-rtGXhzsWFZlQuVK-20" value="" style="rounded=1;whiteSpace=wrap;html=1;fillColor=#000000;perimeterSpacing=3;strokeColor=#FFFFFF;" parent="1" vertex="1">
          <mxGeometry x="500" y="111" width="390" height="159" as="geometry" />
        </mxCell>
        <mxCell id="qElc-rtGXhzsWFZlQuVK-19" value="" style="rounded=1;whiteSpace=wrap;html=1;fillColor=#000000;perimeterSpacing=3;strokeColor=#FFFFFF;" parent="1" vertex="1">
          <mxGeometry x="155" y="111" width="315" height="169" as="geometry" />
        </mxCell>
        <mxCell id="qElc-rtGXhzsWFZlQuVK-18" value="" style="rounded=1;whiteSpace=wrap;html=1;fillColor=#000000;perimeterSpacing=3;strokeColor=#FFFFFF;" parent="1" vertex="1">
          <mxGeometry x="370" y="290" width="700" height="190" as="geometry" />
        </mxCell>
        <mxCell id="w_SDebKLZOwlzJtNYWrO-4" value="&lt;font style=&quot;background-color: rgb(0, 0, 0);&quot; color=&quot;#ffffff&quot;&gt;Create image bundle&lt;/font&gt;" style="image;sketch=0;aspect=fixed;html=1;points=[];align=center;fontSize=12;image=img/lib/mscae/Azure_Pipelines.svg;" parent="1" vertex="1">
          <mxGeometry x="210" y="130" width="60" height="60" as="geometry" />
        </mxCell>
        <mxCell id="_yeT4RgFgbLnkIytBLUX-5" value="" style="edgeStyle=orthogonalEdgeStyle;rounded=0;orthogonalLoop=1;jettySize=auto;html=1;" edge="1" parent="1" source="w_SDebKLZOwlzJtNYWrO-9" target="qElc-rtGXhzsWFZlQuVK-8">
          <mxGeometry relative="1" as="geometry" />
        </mxCell>
        <mxCell id="_yeT4RgFgbLnkIytBLUX-6" value="" style="edgeStyle=orthogonalEdgeStyle;rounded=0;orthogonalLoop=1;jettySize=auto;html=1;" edge="1" parent="1" source="w_SDebKLZOwlzJtNYWrO-9" target="qElc-rtGXhzsWFZlQuVK-8">
          <mxGeometry relative="1" as="geometry" />
        </mxCell>
        <mxCell id="w_SDebKLZOwlzJtNYWrO-9" value="&lt;font style=&quot;background-color: rgb(0, 0, 0);&quot; color=&quot;#ffffff&quot;&gt;Artifactory&lt;/font&gt;" style="sketch=0;points=[[0,0,0],[0.25,0,0],[0.5,0,0],[0.75,0,0],[1,0,0],[0,1,0],[0.25,1,0],[0.5,1,0],[0.75,1,0],[1,1,0],[0,0.25,0],[0,0.5,0],[0,0.75,0],[1,0.25,0],[1,0.5,0],[1,0.75,0]];outlineConnect=0;fontColor=#232F3E;gradientColor=#F78E04;gradientDirection=north;fillColor=#D05C17;strokeColor=#ffffff;dashed=0;verticalLabelPosition=bottom;verticalAlign=top;align=center;html=1;fontSize=12;fontStyle=0;aspect=fixed;shape=mxgraph.aws4.resourceIcon;resIcon=mxgraph.aws4.serverless_application_repository;" parent="1" vertex="1">
          <mxGeometry x="590" y="152.75" width="60" height="60" as="geometry" />
        </mxCell>
        <mxCell id="w_SDebKLZOwlzJtNYWrO-11" value="" style="curved=1;endArrow=classic;html=1;rounded=0;entryX=0;entryY=0.5;entryDx=0;entryDy=0;entryPerimeter=0;strokeColor=#FFFFFF;" parent="1" target="w_SDebKLZOwlzJtNYWrO-9" edge="1">
          <mxGeometry width="50" height="50" relative="1" as="geometry">
            <mxPoint x="290" y="160" as="sourcePoint" />
            <mxPoint x="400" y="150" as="targetPoint" />
            <Array as="points">
              <mxPoint x="330" y="190" />
              <mxPoint x="460" y="170" />
            </Array>
          </mxGeometry>
        </mxCell>
        <mxCell id="w_SDebKLZOwlzJtNYWrO-28" value="" style="curved=1;endArrow=classic;html=1;rounded=0;strokeColor=none;" parent="1" edge="1">
          <mxGeometry width="50" height="50" relative="1" as="geometry">
            <mxPoint x="425" y="470" as="sourcePoint" />
            <mxPoint x="475" y="420" as="targetPoint" />
            <Array as="points">
              <mxPoint x="475" y="470" />
              <mxPoint x="425" y="420" />
            </Array>
          </mxGeometry>
        </mxCell>
        <mxCell id="w_SDebKLZOwlzJtNYWrO-34" value="&lt;font style=&quot;font-size: 11px;&quot;&gt;&lt;b&gt;Tasks&lt;/b&gt;&lt;br&gt;-Pull the package&lt;br&gt;-Use imgpkg to create and push the container&amp;nbsp;to Artifactory&lt;br&gt;&lt;/font&gt;" style="strokeWidth=1;shadow=0;dashed=0;align=center;html=1;shape=mxgraph.mockup.text.bulletedList;textColor=#666666;mainText=,,,,;textSize=17;bulletStyle=none;strokeColor=none;fillColor=none;align=left;verticalAlign=top;fontSize=17;fontColor=#FFFFFF;" parent="1" vertex="1">
          <mxGeometry x="167.5" y="205" width="260" height="135" as="geometry" />
        </mxCell>
        <mxCell id="w_SDebKLZOwlzJtNYWrO-39" value="&lt;font style=&quot;font-size: 10px;&quot;&gt;retail-&lt;font style=&quot;font-size: 10px;&quot;&gt;container-nprd-local.artifacts.publix.com&lt;/font&gt;&amp;nbsp;&lt;/font&gt;" style="text;html=1;strokeColor=none;fillColor=none;align=center;verticalAlign=middle;whiteSpace=wrap;rounded=0;fontColor=#FFFFFF;" parent="1" vertex="1">
          <mxGeometry x="520" y="122.75" width="222" height="30" as="geometry" />
        </mxCell>
        <mxCell id="qElc-rtGXhzsWFZlQuVK-3" value="Imgpkg" style="shape=image;verticalLabelPosition=bottom;labelBackgroundColor=#000000;verticalAlign=top;aspect=fixed;imageAspect=0;image=data:image/png,iVBORw0KGgoAAAANSUhEUgAAAI4AAACBCAYAAAAWq4LdAAAAAXNSR0IArs4c6QAAAARnQU1BAACxjwv8YQUAAAAJcEhZcwAAFiUAABYlAUlSJPAAABV5SURBVHhe7Z0JfFTVvcf/SFiyESCbCVlJAiEiyg7Koiwqi0EFRcAFEK27r63ta7Va+7DW1r7WutA+bZVKEVAigoAKsljKIlIphtWshCyEEEIgIRgB3/md3DtzMpmZzL1zZ+69M/fbD83MmGXmzm/O+e+nw/cMsrBQyGXSVwsLRVjCsVCFJRwLVVjCsVBFUBvHl9gr/479H/6BTpd1oBD2UerYoQO/b+GaoBPOuqNnaT3790lZAxWfaZYebU16t850Q3IETUmNpJvTIqVHLUSCQjg1TRfolfxaeutQHVU2XpAe9YyMqM70zJA4urdvd+kRCxDwwln6zWl6fFsVnfr2ovRIaxLDQyg1sjPbtr6novpmOnne+fcNjOlKeTel8NXIIoCF0/jdJbp7UzmtKj4jPdLCoNhQmpHRjUYnhNOohDDpUTtYnbZWNtLqkrNcdCLdOl9Gb49Lott6d5MeCV4CUjjYjqasK6X/nDwvPUI0JjGcXh2dQAOiu0qPtM9ptkq99J+T9MK/a6RHWvjFkFhaOCxeuhecBJxwTrAVY0ReMZUIhu/rYxLp4f49pXvKwRZ2+6dltFcQ4qysKHp3YrJ0L/gIKOFghRi9qoT2n2p5g7G1rJ6UStf1Cuf3vWUGE09ekX3r81aQZiaghHPT2lL6lLnZoGvHDrRjegY3arXiIrtUuevLuDsP8Df2zcykPt278PvBRMBEjv9+5LRNNGAl84C0FA1AYBCeVU6PFqGcv/g93cMM8GAkIITTwDyox7dVSveInhgQzYN3vgCrzHs3pkj3iL6obqIlTLTBhqG3qt0nmriRW33uAp1uvkgpEZ34tnAl84wiO9k1//r+U/ToP1uEg+85PDuLQpE78CE/2XGcfs88LpAQFkKVc7P57WDBcMJBSmBZQT3/CmPXFVexbeiOjCi6IzOKpq47SkdOf8sf//PYRHrwCs8N1q9qmmhVyRnaVN5I5Q3f0TH2T6Z7l46UyETRr2cXmpbWjcdvwiXBnmm+RMPziuhwXcvfXToxiWZnBU902TDCefNgHf3mq5pWbrRSort2pJPz+0n33AOhPbC1kv5Z2Sg90j4Q0gvD4+lB5knJaVDEit4rrKd9tedp3ZRU6dHAR3fhYBuav6XC5qmIxDAhDIsPo2S2/cSHhvAYzXH2/XizSs+2FdhPB8bQb0deLt1zzf+yLeZJttWIwJDuy4ze9MjO1JnZMQB/D4nQ7VXnuB0lM4I9pw8npVA8W41kEKmWV6NgQFfh4FM/bnVJm8QjjNsH2HYjey/OQHZ70f5a+qjULrgjzLZpzzWev7mC3j5cJ90jem5oHD16ZTRfrdyx8VgD/Wj7cVuMqFd4J9qQm+b2OQYyugknny3t1zPR1ApJxbv6dKcXR8bzN8VTjp79jv647yQV1De3u1U8zAzoPzNDGvRlAlvLvj8zSlnS8r93Hqff7bUbxXtuz+SJ0mBDF+Eg/jFgeQF/swGWeLzpYxO1ifA6A6sMVhsAw3rztHTqyWwWNYhb3dC4UNo9I4PfDiZ02ZThysqiCWNu86bcdJ+KpvnS9/T0rmp+G2JZMzlVtWjAj6+OsXlQX55ooveL6vltUNFo98oCGb8LZx8zbF/Lr5XuId+TQMPjQ6V7vuGvzGOrYkY1eJX9PcR6vOXN6xPpcsk4XrjHnj3fwGyh2LcOMY+tghvVgYrfhfNz6ZMPUJY5N7uHdM93/F0yhuE5aRVrwUr5q2Fx/Dbsta/ZPzCPvZ6ITh15eGHUqmKasKY0IFchvwoHHsnHZXYv6NXRidIt3wH3HRFoMD0jin/VilvS7QVdH5bYs+bPDo2VbhFtKm+gK5YV0uYKz+NFZsCvwkFVnQxqeFMjvd8y2uOLavt2MU6j8gqZuNAQmzuOnJUMVh3ElJDXAvXNF2k88yBFcZkdzYWDC/irL09wDwZlDtd9WMIv2m/31lCeYERO8lES0pGaJru7n6jAzfcU2Z0/6hCQRCDywKysVhWHszYca1WVaGY0cccRNX1tfy0tyj9FZUKuxx018/vxyLCvQSISXhyoX5DDi7u0BMlVJFmRjqi7r2264yy7NqOZrQOnAPgrCetrvH72K4vOUPI7R+hnO6s9Fk0W+5T6QzRA6rXj+KLPLuSyll8qN/U5giz++ilpFNW55fXiGi2SgpBmxivhPMe2JNTi1glZbITu72b2y59GJfCg3pZp6fT2uF50rdBRcM3lbbsLAhlEll+6xp5DQwE8gqBmRrVwXtp7ktsyMlhFUFqA7PQ745Po8QHRNJnZMaj3hcv9r1t7U+MDOfTJ1DR6qH+09FPBw/05PXiaAyCxu8bkhrIq4aBW5qc77dllrCBf3p7RbowEsY8bUyJ8HvAzKk9eHSPdIlri0LNlNhQL51u2xD78ub1ME7maTWw7kvdwC9fc2rubrY4H9dEuzCJToFg4SBfIRjDiGBtuTrPFKyzcA/sPCVYAY/qQVD1oRhQL5x2hMPs3I+K5G2rhOVcJcR05TWFGFAkHtTPyi0UpxOw+1gQHpYhBSKRDzIoi4aCUUgbzY6wtSjniCn3yfJAIp77ZXneLOmAzIErbnczRF76m9CwvwcCQgT99Xcu7LT6vbGwVp/KWU0LFo6NDgQi0q2FPRkORcMToaHeTe1GoWf6vf1XRoPcKqcOi/fzrtPVH6f6tFfT0F9X8v83eeIzn2nr+7RAlLj5Mt3xcxktPxRYapYhF9mKSF605T2yrogErCun/Dhg/sqxIOOEh9s+slp9CXyKmGVA3g7rjiDcP0qS1pXxVESdQuAOFYKtLzvCfT3nnCK+1QdsxwhNKkIvdgSicZ3ef4L3pyPs9+Hkl3fVZOb9vVBQlOb85/S31fbeA30YtyqpJ9lZYo4LCchSYOwMG/sj4MB7dRhDzeidlFxhxsq2qkXZVN9Fn5Q38vjPwuxruz5HuOQerCvJ6APZh7X39eFAUoG7n3k0VrYq+JiRF0OrJKbbvMRKKnpFo13x6rMEU+ZYwYZWUmZQSSStvTOFv9MbcNHp6cKxT0QDMAETK5C9jE6lwTh86NCuLR4ARwxIZFBPa7haGjlGZqWmRrQQxnonkIPvducKwSggV26MRr7Ii4aAUAJOtQNOFS7Si0F5fYzQwkg3b0WPMbpD54VXRVH5vX1o/NZWmZ6gbx5bdowtPWFbPy6YlE5Js2w1Wpf7LC9qMjhOR22rA7U6qEVHysWpSaqtBlejnWrjHnhM0CorXwPv62WuEn2FGpBGBZzI8r5gbwAAr5bZbe9Mfrk1Q1LPVHugD+3pmFu9fB+gnv+2TMp4AdgQJYWxVAM9H/hlHUKWxeHwSPZBj73//JbN/4N0ZCcXCuYd9GobEtSQpsTTDCzESKJgSR7lhW8LwI2eDIgEcRRi+/65pamW4egpWiRU3JPNhBzJIAP9ou32lgwH+vDBH8Pnh7c8PXDQ2oVUpyrzNFYoNcV+iqgIQrbuD3y/iHgB4YUQ8/XyQvUBbL9DVOeT9Qj5yFpbNs0PjeIuvI/BWVhWf5dsK6oDPsW0X4GfK781W3ZkJgUxdV2praUYXxLND4iibORTyNA10Wnx1Rya/3R7wXK9YVmBr7fG0N94fqC4dhWsKw01mQU4P3rWgVzQZF3n4yiJbo98/mP0xxyElghf6xoFT9Gv26XdmyKKar/iuPl4FNyEauOryigc7CBH3H28/zpOcX87IUDQrGVl01G4DPL/ye/q2GnagF17VHIsDjQAMRdgReswBvnn9UVorDSDAWFoMEhDBtIk5G4/x6LAMylcnJkfQ0LgwSmPPHdMqtBgiANEMYyKWh22jxhi1z/OZdzZSRfXjzA3H+CgV8DO2siO5rDdeF6vDs7qTvTCRJPaJnZ0V5beCbMym+VDyZuAtwdUWQcT72g+KebsuQB3wr9nFf6R/NDdGfYG4UgxjNuEuttKo/VPoHBmRV8RvI9dVyTxDvYvdvRYOwFSqR5nbiyCWHuANwYvA9Igjc/q0GvMGxCkViJdgG5Pbd33Jgi0V9LdDLV2kr7BV8DGHVVAJWMFk4aP3Xe/DSTSRLWIbn+Wm8QkQGKPm7z1YVv7LoxLaiAaffFk0uNgI+PlDNOD311xuy4ajvxzDD9QC119G3pL1RJMVxxmFzEjFfD14E77yIs9fvER/3FdLzewPIPIL4YrAe8pZVshTJYjfwNaIcBCWr4FoseIBbwZqi+kKvBYEMvXEZ8LxBwi0yUXzu6ZntCmCxyEeSBaCN6/rxT0/PUhlbzjKbZG+QNpCLVcuL7TFmk7My6ZYh7SHP9HXwvISOeUBwTjrnECzIMAFnputX7XiQ9IqgwSpNy3AA2PtZaf7T+lbr2xa4SAOg2gvuKdv25UE2xTaeMD03t1sHZd6APtE/usrhf55pSCRKnNQ50J30wpHnPzgLG6ESju58GxwrGd9XEhUIik6Zd1RmrOxnI9sk6PK3oDwBM7JAs6mq3oKfo8Mmvr0xJDCkVMZ7pDHiiBg58xLEodS9vSgTx2u85hVJbz9B2/uuwWn+Zy/9CXfcEPfW+SyDcScXPWZO2N5QT1/rchTxYbaX8eZZn0L6QwnnB9ur2JvWvvL+W5p7o2ccHUkhtk18vYktqQ4A1FZOd7iCNIFKCH1FnnVg2bkLdYTPik7y4N/YW8c4OKWQSZeTwwlHIx5e5m517hY7SHnpFzNNUY6IX9mJuXfmcm9GXfItpArEHgTVzA1iGNxDygwbKemtWzDEJy48i0+XMcToBA10hn+LnI3jHCe31NDL37VUnqA6sILbpZz8WBWcd93BIHJ/j3drzbAk3IFb2usewvCUWKfTE6NcHoOOp4xDGR0YiBxG9PVv665IYSDVeaZ3faiMNg4O4URbI6I+7sWLyA33X34HuJTOkjbEYzHlbdOJY14KC91d8JfD/Z7MeFd64FR7aG7cBBZhV3jiFy954yLwvauxU5/Z2Z3PrfPGTC8l92QJN3zDpxHATClSwmu8lJdOnbgM4jSIr0TtRp0FQ4OkJfD8Y6Ip905EiakDcTDOdSCheCtcb344GsRPI5IryfbnSfIz1VsM/IEsYBdZOmEZFVlGlqgm3CQDhC9BEfgeaDg3BliIrNew/4uxwRpB/Y/LU+EwfRR0E1hMyMKv/o51AmhulBtwb0W6CIcxCUwlbQ9kxRTyp2BRKV82ovsXRkd+UA0oKY0VdyuMMAKJal6ootwkFeqW9CPz9ZBrbKrPdqdnZPTo2X7OKCiwFwP8oXnmaNi60MfFsDWtHh8L35bT3QRDoC3gLJNFLpPE7waTMFAQTesAExhd7UqYRIYQIxFqbHpCscmu/gwZVuKO7YKk9XF2ceeMiohnP8cjOFOOubdZAxRVoFC7j/sa+lFwuBJTC3FeZxb2MVGqN7Z8CYE7XAWJ1g9OdWlAakEXAgc3CHHkBBcVNvx4AhSFxg4gHMeBsd25UFJZMtDmaGM1RNxniuYHePO9UYTpFHmIxtCOMgJIaEI0Gr7Aw8OY0WsJ+atQ7wNeVZWFL07MVn6L8ZjV/U5GplXLN1zDwx0TJ3HQbV6Gr/tYQj5isOyPY3QwtvJlQ7hQPTU3YnBerP4sOcTRrHtInc249MyGvJ+kaK8lj8xhHDEXJKSPI5YnIVjfowIclxq591ANBDP40L/u1EwhHD6RNljFEq8JLT3wpAGmHVjRF7+um0fuVJeza/lApJ7z42AIYTTP7qLbeQHSivlRjZPWCj1YWOujJjvMgIwfpG81QKsPletKPR4EJSvMYRwkP1FFhjAUl9b6npUiCNTmCF5U0rLz+JNQmeFUbhTgzoeEVQF5K4/aohpaIYQDpgmnDYHY1cJrwk969M+Lms1HVUv5m0upz1SA52WYLtC56zerrBhhINBQ/LJvEg1KBk5AuP6RWmKAy7s+NWlmgUF1YBTdZR4UkrB9cFZ63piGOGgRECM32CYkBKeGBBtC8tDdDd9VKpJ5lwpCGSKp+r4iufY9fG2KtEbDCMc8Bh78ztL4fQPis+Q0gNQPxIiyDuOn6OJa0ptGWl/gOFJiIL7A6yov9TRGTCUcDA04CcD7TUxOLtb6YBKpB/gpgNEbK9eUeRzTwRvIgJ2/h5thzEz8hAnf2Mo4YCnBsfaWlvhzs7d1NLCq4QPJqXwZClAfgjDrzFazRerz5Ijp6nP0m8oT+oa9Tdo49EDQ/aOO077wvgyjDFTAvKUCL49tavaVoyOGp6nB8fRI1f2tG2JakHJx1O7juseV0FfGU4b9jeGHTogDhQAC4fF0y+GKJ8ziEkVC7ZU8i5NGQQbxyWF041sVcK4NxR8ewLsLhyJCNvLm7H8WoP5yI4Vgr7G0NMqfrC1kt44aM/z4FzLV1TOGUSpKoxXsRJPBtM9cV4mxrnhWCDMAEQLMSZM4DxxfN1WdU7TMlUtwXhbcTayPzC0cPDEUJeMonYZtKn8Y0Ky6nM9H/q8kv5igkM2lIDB35i96E8MZxyLYF356/W9Wg2CRDfj8kJ1BiGKtAJNNCC/1v+TKwy94oigtxsTTlEBV3p3X1UNaPKAo0AD1wTltwNjQmlmZlSrU2l8hWmEA/YxD+YwM3ZxcZSCeh3EhYIB2GxoAkAC2FeYSjjekLOswNSn7qoBDYYYYOkLDG3jaAWy1MEmGoA6bsz88UVOKyCFg5NW0I6Cr5ioJU5TDzYQvxq3ukSTyWIiAbFVYYgk6nrRIersAiHAZ4TiJz1ByxFaj7TC1MLBVNEnd1TxU2Ms2geds2iC1ALTCkccs2/hGSPiw2jn9N7SPe8wpY0zYU2pJRoVoMxk53HXA6uUYDrhPMJWGr0OGwkEXA3JVIqphIOyzEXWSuMVWnmYphKOP2p5Ax0Mq9IirmMa4WAiqd6zfQOFmvPel5uaRjh5bs7ztlBGXbCsOAjq+aK5LVhRciSAK0whnL01xuiXDhS02PBNIZzKc1ZkWEvCOnr/tptCOOEGGV8WKER1CRLheHJskIXnoCDfW0whHK0mm1sQLyt1HASuBlMIBwOxxyS6nsZp4Tm50jFG3mIK4YB5Oh7GGkhgqocWmEY4c7N78PO2LdSDsb7tHfrmKaYRDvjdNS3z/izU8T/DtLt+phIODr+Q5/1ZKOP1MYleH9YmYirhANTNorfbwnMwbOph6dB8rTCdcDA7Z8dtvW3zjS3cg1Uaw6a0xnTCATjAdcst6a16yi3a8hBbZZZO1K6zQcT07TFoC8Zg7I+CuHfKkbGJ4byL09VZnloQMC3AOHcb7TKbKxroSF0zH+FmBtDnHeLkeGilxIeF8IP54TwMkg7H9yUBIxwL/2JKG8dCfyzhWKjCEo6FKizhWKjCEo6FKizhWKjCEo6FKizhWKjCEo6FKizhWKjCEo6FCoj+H9C2TDoGVPk/AAAAAElFTkSuQmCC;fontColor=#FFFFFF;" parent="1" vertex="1">
          <mxGeometry x="325.97" y="185" width="27.52" height="25" as="geometry" />
        </mxCell>
        <mxCell id="w_SDebKLZOwlzJtNYWrO-7" value="" style="image;sketch=0;aspect=fixed;html=1;points=[];align=center;fontSize=12;image=img/lib/mscae/Azure_DevOps.svg;" parent="1" vertex="1">
          <mxGeometry x="170" y="120" width="20" height="20" as="geometry" />
        </mxCell>
        <mxCell id="qElc-rtGXhzsWFZlQuVK-16" value="" style="endArrow=none;dashed=1;html=1;dashPattern=1 3;strokeWidth=2;rounded=0;strokeColor=#FFFFFF;exitX=0;exitY=0.75;exitDx=0;exitDy=0;" parent="1" source="qElc-rtGXhzsWFZlQuVK-28" target="qElc-rtGXhzsWFZlQuVK-12" edge="1">
          <mxGeometry width="50" height="50" relative="1" as="geometry">
            <mxPoint x="696.3625" y="203.30999999999995" as="sourcePoint" />
            <mxPoint x="600" y="310" as="targetPoint" />
          </mxGeometry>
        </mxCell>
        <mxCell id="qElc-rtGXhzsWFZlQuVK-24" value="" style="group" parent="1" vertex="1" connectable="0">
          <mxGeometry x="680" y="330" width="347" height="135" as="geometry" />
        </mxCell>
        <mxCell id="qElc-rtGXhzsWFZlQuVK-9" value="&lt;font style=&quot;font-size: 11px;&quot;&gt;&lt;b&gt;Job template&lt;/b&gt;&lt;br&gt;-Checks for prerequisites and installs&amp;nbsp;&lt;br&gt;&amp;nbsp; &amp;nbsp;using various methods if necessary&lt;br&gt;-Uses imgpkg to pull the image from Harbor &lt;br&gt;&amp;nbsp; &amp;nbsp;and&amp;nbsp;unpacks the nupkg to disk&lt;br&gt;-Installs nupkg using Chocolatey&lt;br&gt;&lt;/font&gt;" style="strokeWidth=1;shadow=0;dashed=0;align=center;html=1;shape=mxgraph.mockup.text.bulletedList;textColor=#666666;mainText=,,,,;textSize=17;bulletStyle=none;strokeColor=none;fillColor=none;align=left;verticalAlign=top;fontSize=17;fontColor=#FFFFFF;" parent="qElc-rtGXhzsWFZlQuVK-24" vertex="1">
          <mxGeometry x="120" y="-1" width="190" height="135" as="geometry" />
        </mxCell>
        <mxCell id="qElc-rtGXhzsWFZlQuVK-12" value="&lt;font style=&quot;background-color: rgb(0, 0, 0);&quot; color=&quot;#ffffff&quot;&gt;POS Endpoint&lt;/font&gt;" style="image;aspect=fixed;perimeter=ellipsePerimeter;html=1;align=center;shadow=0;dashed=0;spacingTop=3;image=img/lib/active_directory/windows_server_2.svg;" parent="qElc-rtGXhzsWFZlQuVK-24" vertex="1">
          <mxGeometry x="50" y="-1" width="64" height="80" as="geometry" />
        </mxCell>
        <mxCell id="qElc-rtGXhzsWFZlQuVK-7" value="Harbor" style="shape=image;verticalLabelPosition=bottom;labelBackgroundColor=#000000;verticalAlign=top;aspect=fixed;imageAspect=0;image=data:image/png,iVBORw0KGgoAAAANSUhEUgAAAF4AAABYCAYAAAB8i0BzAAAAAXNSR0IArs4c6QAAAARnQU1BAACxjwv8YQUAAAAJcEhZcwAAFiUAABYlAUlSJPAAACOUSURBVHhe7X1ZbFzpmd0hWcXaySrumyhxkSiK2teWu9Ut9Tp2205PEmSQZDBjDIK8OkCSeZ08DRDAD0meAgwQzENgzBhJ0O427LbbbrfcUqtbakmtlYvEneK+s/aFzDn/5ZUoiqSqSEoyEn3gxa26VXWX83//+c73/f+9zFui4aU9d8tfXr+052wvgX9B9hL4F2R/1By/uLiITCaDRCKBZDKFVCrFdRLpdJrb08vf4kXk5aGwsPDh4nA44HK5zOs/VvujAF6nIJAtgJNmnUhY63g8jlgsvvyZtT2dThnwbbOAdxmwLcCd8Hjc8Hp9BnyXS4u2W5+pYV60/VEAb4M+OjrGZdSsJyYmMDU1jbm5OfO5bY9Od/Vp55kGkOk7Atjn86OsrBQVFRWoqqrkUoWSkhIUFQXM916kvTDg5dnhcAQPHjwgyJOYnp7G7OwsotEoPTxGT5d3x833cjVdUn5+Pj3baTzd7Zb3e9gQPoJehFAoiMpKqyHKy8uWf/V87bkCn05nDF2Ew2ECPWMA7+/vNx4+NTVlPtPZ5OfLe/MfevBWbGlp0fQY7Ve7UyMI/NraGuzYsQN1dbUIBIrYKF42jndbjpmNPVfgBfj4+ARu376Nnp5ejIyMGu983iZwdVyHo8DQ0cGD+7F3bwt27dpl+P95gP/Mgbf4O4ne3l569wCGhoYwMzOD+fkF0kls+SIf8fNaJq+11kuPNZT9Uj/V7x/tY+P9yex9FhQ4yPshxoIyQz9NTY2orq5CcXGx+fxZ2TMDXruVIpmbm6eXj+Pu3Xb09fWb1xaVWHSy2qzTsU8pj8AUGL7W2lYj1nuLivR1gajfZTKW/FRjr5acGzWGvpefX0DK8dPz92Jf2z6uW1FgznP5S9tszwx4XbgC540bN3Ht2nXj9QJFh9vIGxcXM9TrafM9KRO322M4WR4YDBbD6bQ0uvjY6XQasNXAyWQckUjM0NnCwoIJ1Gp0NYIVaAtMQ6937JU94OjxE3jve9+Hz8XGLng2yD8T4BUoRSudnV0YHBzC5OSkAVK2+sJXBj8BKrlXUVFugA4EAsYLLY1u6XELRIdZ1AsWF+XpadPQajAryUpQHT1qBMlSnZMCuj7XKcjDV56Lzq+AKqih9TBaWvdhz+4m+Arz4eFS6Nj+BH9bgReAs7NzuH//Pm7duk1q6TPSUBe52qzD8mLpYVIaUhXBYBA1NdWor683nCtP1/bNmBpCuYHOZ2xszMQWBXPlBZKsViImKtJ55MHNZKu4tAIHTp1DdU0dvK58eAm6wJfnk3VMg23UW3OxbQVeIH/55SXcuXMXAwMDPMn1u7a8VN6q5Gb37ma0tu41SY4oRN4sz9aylQvVpckZRHGSsqlUkj1wEO3tHejqus8gP222i75qdrVg95HTCJXyHJj1ysnl7QZ8Zx5cDC9OblQv2w7bNuClxbu6unDz5i3zOhaLrtGdrSAoL5dykHzTWtRSUlJqvNsOoM/C1AgW9UwZ+hkaeoAhxqElTymClfWorm+yaM2ZT6DzDNBuvhb4Xp6Wiw0g2tmqQ8i2DLyC2/z8HL28nUH0GrvziOHR1fQi0AW4x+NBaWkJ9uzZgwMH9hspJ25/3qZe0Dc4jFvtPUi6y+D0BeEj3eQTUAEsb1dctcE3fE/w3QLfaSmtrdiWgRe9XLr0FYG/YwLqWvSiQ6gxRCuilKNHjxgvVwFrO7xnszY0HcPdoTBiaVLSEqUrnUUgewoL4CGvQ87CU3NQuq6kHa/bAecW1c6WgFegEtjidUlHNcJq4C2ZlmcSk+bmJrMoUZHnvyhLM7YMTCUwOJ3AyBxVDgOsgqcAlnx0U3oaNUPs9d7BD918Y+iH7+X9+qwgb/FhPMrVNgW8fqLildL+b7+9YYJVNBpZg16WDI2IWk6dOknQm42nv0iLJRcxE03h5mAUYwspxFOL5G0FT1IIgS+g0xTK60kxohwX16IbfY5FytVEHEvJCBx5aTaOg05UYQRBrrYp4CXDVLa9cuUbXLjwJbdoF493Pe1WPKoayHe+cxo7dtTB7/dvmyrYrPVOxnG1L4zRcAoZer7LZMDkcnq1Zzl4usnhbq61Xe8FsDN/CZG5KYwP9aK78xYyzBVEnW+/fQ61tbXLe8/eNgW8dPCFCxdNGUD6eC16UfdraWnB/v1tXO+hYvE9U8XyNBO99EzE0D4aR/tY1PiKQPfQu2WiEDe9WrQisB8mTakYluKzWJgcwdzUOOZnJjHHJUPn0zWdPfu6ca7y8tx6cs7kpNEglXMlHZWQrCUZnc5C4w2HDh006kVZaLagp6nv40z/tbbiw9YtRjoZm0/i5oOoAX0qnkEyo4C6ZBpEnif34yak+F75hfqlhw2Ric1hqLsT925fQ0/HTYw+GECSiZnyEKm5e/fum9xALJCLD+cMvEaIVHuZnJw2B19pOrDS9urqSrz22qtobGzIebQnGif3zowhEg8T/NTy1q3Z6FwSF+/P4+pwBONReio9XZYg0moUUY4W8T2lPgNpPqqDTuyrYXwqCGOk5y7C8zPGEUSVcjT1ctGrgL93rxuRSMRQa7aWNfACVapFwOtgSsefVC8wiqWxsZEqpslweq4RfzwyjKuDF/F1zxfk4+7lrZuzNIHtGovh2lAEN7mOCmReR0LZrPFwigQCru0KURUBJ/ZWubi4URdyIegtRH1dNU6dPIZiOpASsJXXrNfCQbmLSiRKzrK1rFFRa05OTmF4eARjY6Oma1mt/sjkDZKNAl1jnaoeZmuLSxlMRybQM9mB68MEvv887o58i4m5cSTTuQ//Ccxh0stVgn79QQRDC0kDskyeLkoRhOL1Ik8+Kouc2FXiwu4KN3aV0tPZCJKQUi0nTx43AdTj8RoHs51M1+v2+pFeysfoxBTiiezPM2vgJR+7uu4Zvb6WqRGU8h88eMBQTK6WSMcJ9mf4evB36JlrR+fMdVzu/wLn73yK2cj08reyt6HZBD7tmsXngwu4N58wPB5PLxrQ9VpeL5nYWOLGW7sDOMdlb40XRfTylcpLzqNinbLsXbt2muKa6FTe7mOPrmtqRXPbMTS2HIDXlz2tFvwn2vLrdU3erhLr5ctXCPyweW97uyhINXRVE9vaWk2EVzk3FxuZG8A10ss3QxcJWD89PGG4Vh40HZlCkhfqzC9EWdHTlYOCZR8l4/nBMD7qn8dsLEP+5nnyszg/CzAjbQ660FrpRVuVB8308KpiF/zuAtMQKhmsNAGsRQ2QXMzHXAKoqmtATcNu1DW0oLKuHmXllSgKFjPbdbHRlAE/vo+1LCs5qcChgtKHH/6cNDP+hEIR8G1tbThz5jUziJxtVip6mYtN4dvhr3Cx59fom+k1isaR5yKV0SvZywR6na8Zp5texzsH3kXQV8LEZu3ajoLjFJOj33cv4JcDC/hsLIIdSnIYLEME3Evp2ESQj1Z40UIeL/cXmkC62sRIUjYp9o4kWy2d1us0+oencLf7ARPCEAJFQXq4z2SwSrKU6aqc4GMDqoz8NMsK+IGBQdy8eRNXr16jhJpnqz4CXsFTFHPy5AmcO3c2pxQ6lgrj9z0fEvgv0TPdgaWMg0s+FjN5Bvg0qSGVzFDhpFFf1IBXGl7Be0feR21J3fIeHjclR1/2LuB/3J/FXfJ7mpfmoLceYaD8Xo0PR2t9qOfrkMdhdLo0+yoHN5bkcSOUnBMRJorcz0SYEpeNKm53IgOfp5C/dxjPDhBoU9t5FsArYn/xxQUTWDXX5RHNWPJK3n7kyCEmS/vN9mxsZL4Pd8ev4srQ7/Fgrh+RRIQBp9AAn6GnWcBT5vGCo4kUnHn0UF8lzu19E8caT6KlZu/ynkiF9M7R+RQ+61vAP3bO4PpMgpIxDwdIKQ3k8P3lbhwto1IpLiRQjxe4dPFJHmOWMnOMAXiOgM8neExuS3HROUgdqYEK+Tv1GgcbzUnnUqnBrwETAi2wTQGNDeApzDPOJ4pazzZ0TbWJqooauxTFrFYytrxS0Kmqql7eurEptKUXU+if68TFgY/NOpJcoMKgt4M6GmnKvAxfW8siG7fQUcCgGGWv6Mand3+Da33fIJFiHOBnCXrnJNP/K4MRfEFev0XQSwnuK+TwH9YH8BctIXzQHMRBenyJz2kAjKpeQ29+QH1/fyqOzskYbgxHcbkvjAukqYs9C7g8EEbneAzj3LcoRxDqt3xpOcSyvyoJM8OPWrgpI6nKGPg0f97Q47WDmZlZXLp0CZ9/fv6JLFXcrgLRn//5vzbaXQPKTzPD69Ep/L7/H/HRvf8Od1450+98o2pkmXQe6cU6RjpJzU2QdIb5S05SUAG65wbxbut38dfn/hrlwXLSQB6uEKS/uzONhUQGB+nhbzQWYx+D5g5KRJV55eF2wJsl4EOzSfROx9HBpZPqR8A6eAw3P1ehzMXvu+mx+p2KZfJyXbY8XvLTrueo3OCld9uFNL0vYg8oZoh7GuVuCLy8XVMyVAz75purhlZs4EUzmhRaU1ONH/zgfa5rzPanmbw0HJ/DtZHPcL7/fxO4aQScZQSp2fpcEpkcn5fnZAOkEY1RRtD6ZvrRPtqJCl8t3mp9B//0yD8nJXhIV2lcYUa6SMDqigrRVlqIplIPSn0OA7qAHgsnSW0pjDFW9C+k0MPXc9x3gg2VYcOSIVDI63ITWD8B9fF3ym4VAwT8ynqOyggCWhrfBt6OF9oWIPABlwZSCojXJoHXtAkN5an029nZ+dDj9RN5e01NrSmCnThx3IwkZWP6bSqTIJBduDlyEV8O/Ab1wd14u/HPzOfar3pFAZXNonQ3lY1+8+uuT/Czb3+GHx3+K7yx5y00kuM7RtO4NcF9Edgf7g5id6nbDFKr9DvP384yMA/P0nlIJ12kk24Gyh5y+SC3y3uryMeNLge8BE3AE1Pj3T72XC/fqERsPJ7fk8xUBVPlYQFuDQnye/xMXG8DbwbH2Ri+pwyWbMjxVrY6uWYqrCE/Tb3YubM+p6E7NZyzgOm4uxRVAf3WQYkYRHM5ExEuO0INCPlKUcxkpKaEDbvzEFrr9iPoL8d8KoqKUBWKGGQXEg4GSidpJYAfn67E/koX+TWDrtEYPmmfxU8ujuIvPhnEf7g4gv/aPo1fTkRxk1Jzhl1KVEKcDIUpcIbZSDFejzwwxtfhFJUU1/MMrvNsJFNqWObxuPid64feqpi3Iu5laxt6vAD/6KNf4P79biZQDIArkibR0PHjx/Dee++iuLjIDOPlYtORMQa2m/iw6+/QWnEc/2r/v+e2cbSPX2NP+Np8p6lkP47VnqEHFeHvr/w9/vbTv8VP3v8JzjS/CQ8bThXHBaoQgTVLGpmMcYkSNCZNQwS5J2IV2UQNXvEJTZ7poIc66QAl9Oxyyj+Z3rv1GRtF3ze8zdfqGS5ytZ9erBBGEjRen4hGGf8mEZ2bQTpFpUdZ4OD3CswaaG7caQbyNQlrLVsXeG3W0N5Pf/oPZnhv9ddECadPv4Lvfe+7xuNzLYatBv7P9v0Yd0euMfn5GL+7/5FRBydrz+GDfX+JXaVN+Om3//AQ+Ddb3kIwUIah6QR6p7hwPU6g5+iZjMcopbQTiLYpIPqEBs0pqiAdCEwf+Vxy0Db9QjMM9B01kMC3phuSgrhNr22TytOErfudtzE7/aikYZeHNeImGlbtai1bFy3twL4bQ3dgrDTRhabWqWi0GdDXMknMobkezMfmUOSsgDNTxMDKgDg/wuzRCrC2iR7i1NrF9NZDTIr+2eES/JtXKvHvXqvCfzxThX97qgJ/eaL84fIvj5bhg0OlZvn+/hK80xLE67uLcKLBjzb+/uFS58PuSg8aqPnrS12oou5X8UxVyyKvw5QV7CUUcKOixI9UIsHMPmyqlFrEBMJOE3MXFsLLZ/ykrYuYOFwFIWn11X1CwKsssF2gy7TPvDwqAaoZB5e8JWt6XiqTJIVaCYlt8ru8PPIyPXx4LoHrQ1F8zoz1PJfL/WHKy4jR5Z1jUZPNqmeM8nvTpJ550lGEjaYETdeVn6eBbsrJfA0DLjFo0qno9fJ2BU3RjRbJ0ZWLpnj4vJ5lB7UGRqxJWpaGl9OqIdazDYDPmNbj6fEirW222cBv9uYuSVHp9nAybCglQY6cj82aRhaH6oBSUEqoEumY6QWaBVaYX8gsNsJtEQLFzJLOoXS+fSzGBGoBX/TN43z3PH53bxa/7JjBhwyyH3XM4lf35vEZk6LPmSB9wUa5xGTra0rQa6MMuEySOibipL04emfiGKSuV2I1wvgxTump5GyaknSOamiesSNMCaoEjLoLDpcXBYVuFDgLubjM4uBiT6ZdPVC00tbleAXWwcEH+MUvfmHmHtr1GX1d3qe7KSQjT506YbZna/q95GT7+De4MPAJ2ieuotKzE4cqXkX3VDsvegATC1NIMWCWeyvREGpCyFWFu9TwX/RcxNmGN/DmvjfxassZnn0hUotMvuj5UTrJGPV57xQbYjyK6wTxGsGjc1qJD71YDiRZqG32Wt67g95bZDwb8FNAeOntXvE/f6NF8tHPuCD5aElJeT0pj1L32pUvMT0xzn1ZPrzEa8ujU0nxtbXtMwP9a9m6ZWF1FfGU5hhaUzfszqEekI/S0lKCX2sSqFxMQixCT++c+pZJ1OemBKzGiKQWMBEZpUdFyPcKUNQJdIloIoqJ+UlMLkyYXjLM7xR5inG49ihc7HGaAaA6SRGXAF8Xe6hUyMmVxS6TUNX7nPDz3GP01BHSzBTXETZUPuNEHpclNnAhk7ZFykTp/0VuUyar2r1KAyqYaXtYspLrWMoasYopq86w7QvI/8EylFVWI1RehXKuq6urUVNbh+qqKoRCOaoazbLVbN9PPvm1mcrxyOOtqXiK1seOHTWzwnIxae2Z6Bj+0P9z/Kr7fzJx8ZPvHNwvM2VejOL4yiLZIi+UrGd9zgbpmO7F99v+Cf7m3b8xo/zrjXLZFUaVB+6Mx3F1JILrCwlMEjxeNMrZGEww6QaAj17v4qIESd4uRcOPjBKS5td7/plyghIqEweWY4DX6YCHysjNtXqUpKYSKGWwG1Uq1+X4Z20eRxHK3HWm6pitOfIcaCluoRfXL29Z35wEKUAl0lzhwXstxfjxa5X4b2/V4D9T/fxVYxCHgi4Uk040cBLlkiFoKhWIelabthigV5UASF5mLZWlCuoiPUSxUSVkbtrQ1gXe8KGhlydPRJ1EwWOdzrKhiVs9hQHsLjuI13d9gKCnjEGVXk7v3mh3GojQ/MZ3297Da3teM3PqVw7RrTadvzxVmj3kc6CO1LO31IMTNV682RTA+3uD+KA1hA/2hnCmLoCGIio0/kjTPjQeu9qskgG9XnpeO5dpJZy4OJld2YpHSZj9lfVsXeAFuu4TXZk0WGa9l4zS3PJcTfHBR+CbSvfjOzveJTeHjJqx6WQ9E/Aa2Hit5TUcbz5ugF8pMbMxfb/EX4i2Gh/O7i7GD/cFmbiF8CfNRTha7UOF30lHYFA1NZcC4+Gq19gmLBSo5fgrgRXYSrzMPEt+qKLZ085sA+B54ELVrx8HXu91ARr83szNv7ZlyNeSilEG2vRSAk7y4lNxJPDS9Uq2tsNW0tG5PUX4EZOtHx0vxw9bgzjChqhmkLYrkyvNlB0ec0h6DGNfLrbupaobW4HLurNupYliNMdmK8BrpyoRM8nHUp4GWJa3r2OpJSY+mTDmo/NUKLHlrVszHVMAqsIYYgNUM1PdGXKhhQ1xsNaL4zt9Zjlc50dtsJC9wIJLTPQEGxmQVm9c3zYAnhF9+Wav1aDYwCszE01szujhXDRw7aBKUik4Yxpi7f2ll1KIMHFaiDM930qDb2C6TFGG5tRo9sHhHX6c3BXASYLfVO5GJeVpEalIcUMdIY/nK4Vk/Vi/fgSUaOmxTrHK1gVeIyjiUT0FQ1y/0gS8bg7W7TabBV+wO/M9qPXuRdBRabS9stLNTF56lmboyGPR0bGdfrzWXMxe4MeuEBlhMcbr0LUT4eUESia8TdlhDZqybd1PLC5nkKFWVk1G+t02Aa/AqgKaHgShQJu7LdHTndhfeQJvNHyAd5v+BQ5XnEa5pwrJxQRTck1CerRfSUk3G0plhAxp53mZoSMGTdGRvD1IhVTGIOxIM+Hru4OBu5fR13Edw33LN7Olkkbnq77zUP2sYes3CU00o5m+Gle1imWPc5ima+tGLs2sytUUINMEuMQfwoHqozjX8Kd4Zcfb2FN+kBdWZgZHvC6vaXzTSATeW+BlUE5R7q1ffHrWJiglKVORaQx13UDPzS9x/8ZX6Gm/geGBHkxPjCA6P0NntEbO1rMNZ5IJbM0gU11eAEsK2ipHK5fLbXrDZm6tmYtP4d7UDXx477/g5siXiMaTTPNrsK/mME7tOouGYAuoKTAbmSS3h5nCx8mnTKAqW1ATrCUPv5jHnQhMiYre3j7cuHHD5DMZptuR+VlMjgxiiJ4/0Hsf1VWVZhBkPcm7ocdL2agmoyl5KxvPlpSa3KSygvg+V3MUuOCnhg84KkyV8ub4F/jqwSdshAsYnu1nFumnsjiC7x74U7zT+gMcrTuFSm8FUok0YvEX5/ECXneIz87OsAGs6q3JWFNxxMJzpgFiZAI5re2ka9lTqSYUIjgBv/HwlSbv1wCAJrFaPJ9bMuVxeAhkHY5WvIddwf2ILE7j6vDn+M29/4Pfdn6I3plO+NxUFY2v4u097+P1prewv2Y//M6ArvWFmQDVVPWJCTGA3fuVqTLZYiD2+32GAfRgovW8XbZukUymjxQ4v/76Cj799LdPKBjVm1WT1/Bfa2urmZqdrWluzURkmAmKlzoepjp5s/8bdE3cwVC428SAgiUPAgUVOF1P6iltRshfCpfDZRqkyFe0vKfna8LgV7/6tbkNScFUgNsmrPQ4gBMnjmHfvn3mSVDr2YYcr5YU3dgcH4lEuXM9hMFuaes7Aj8QYMpdUWG2Z2OjC4NoH7uOB+F7mEvMomDRiUBhCOWBalQV18LrCPAikxiZGTU3K4yFRzEXi9DlpDC8zDifP/ACXaVyzSHVGMWTtmTm0R8+fNhMAFivcirLapq2Dqj6vA6mtd2F7C6mer3mkNfX71jetoqX1rCR+UHcGf0G18fPo3e6nT1gjgGzHLvKmrG3/Ahq/A1UMX7y/wI6Jm/g1vAddA7dx2JyEUFPCDsqnl6h3G7TVEbFtI6ODhPfVlOJHFCPCTh8+OBTh0WzAl7JlFrPmuaxclDEoiMFV6kaPX1D0nOjlrbNRY4v91ea8dVIYgE9swR26hq6xm9jeGaIMcCHnaSX4w3fQVv5UVS4a5Awg+8JlBaVYl992/Kenp8JdN3tqGmNK4OnzdaaTacbqHVjhjDayAGzAl50ox1pjrzmyq+kGx1UyZWOrYFezSXJ5oZbjTwlMnH4C4sRdJcj4Coxgx7heJjcP4bZ+CRmYjPMZmNMnNwo85VjZ3kDqkM12FXZiNrS3O8t3awJZD0lUNM5NLPuyYTRGpUTr2uASLHuab0+K+BtD9d0BQGvpx9px/aiz1W70faGBt3pV2QaayNTYO2jcgl5NW+yCbtLD8GXV2IGEGYS4+ib7ULHyB10POhkEE+hIliFI40n0Fgp8KuZjmc/gLIVswWGbkPSNEapOGuuzePAilpOnDjB699pXj/NsgJepgNph9Yg+CDfP96V5PWSlGoEcZ1uzdnIOiau4TfdPyPHf4Lu6VtYYJyoKK7C3qoDOLrjVTQUt8JTEMDkwiRuj7XjUt9XuND9ByxQK/up8avo+c/DNNNCfC6K0SME5N1E4+G167r9/oCJb5rApOu2HXUjywl4ASqPn5pS8qA5N7oXygZflGPNJ1EdX4+4Etev5/lRZqOJdBQxysi5xIxRLgupacRTVC5L+Qg4QyhhwqTG8FC7q1Q0G57G4OwQvJSTh3dYY70rG/9ZmGaM6blqohkroD55Q7Xu6z18+JB5bEC2zzXICXgBqW4nL9Ctl3r2l61j7ZPRyemlTkAZr3rJanDUQF6CWWuUSxDxTAyD4U50T95Bz9Q9jM6OUjL6URvaibaaw2gubUG1r5q6vgDXJ24h6AvhTMMZ41nPCnido9RcR0cXzp//gymdyB4HfclgottLNZ0xl/t6N0yg1jJVJPUIw48//tjMu1n9c3mAbqnXEzvOnn3DnNTKiZv6vubVPJjrQf/MPdQVN/D7LsrGOdzqv4Z74+0YXOhDXr7mrXvgd1TgYOURNJbuQXlRFSZjEyj2htBY0mTUVrYXmqvJuXRPgIKpnrFGqMx2G3hdp0yJo+TjwYMHTe/O1hGy9njb9PwuUYmSKdGKkiudlH1ArZXRqnIpztfJyBNWgqSstHv6Ji4/+K3JWFXdLMxzU+EEUeqrRFmgEm6Hm4omjuHpYROIp2OioTQTKw9KvSUIeKwCVLYXmotJJHR3dxuKkZKT56+MaXIeTXFRjz527IhRMnqdy7nkDLxMBxCYUjLyeut4jw6qz3VySrhETSotS+erW+qzdCaJ2+Nf47P+/4Uu0suDmT6EE2FUFlejubIVB6pPoDbQAE++H/PxObRP3GQCdRt3B8mzkVn4XX4mWo05eVg2pnPWPMje3h5cuvS1uRtGyaFAfvw4SwZolQcEvB4OnattGngFWtvjNPlpJd/LtF2LgrHu9df3Bb7X52bCNI/uGQasqW+pXHzcTwHCKXrZzB1TqxmY7oEj34EdJQ04uetVtFUcQR3jge4QuTx2VVUDHKxidlhoDRtuh0mrqwdfuXIF169/a24xldPY17HS1OBKlF5//YxRMdkkjKtt08CLOkQ5AlRdU96viaXyfPtEtVayJf0vztSylEevQhgDC524P3MLhQReDabBjVkmTCodzEVnzVCglkRS9OJFORWO7m/1euntpQ2oL66Hz+ODc9WwZK4mLxeVqOKowtft23eNo9jPPV4JukUx+dTqjWZepJ7Do+tf+Z1sLefgutoEeC4Pg9u9pwlVzUF0xS/jwsjP6fHFZmq2zsKewpfWFHEqncU0e9ZSEU7sOIWDdcext+YAnPS2FD0xkUyhMlQJj2vzzzaTR0sWq76ue3m/+uprcz0KnCt7r23q4RoKfeedt82jA9a72yMb2zLwGoHJ5fGHbrcL3oAb4aIJTBb1It9FiiqwSg6PgFe2mIFmOS9mNC/RRVbVI21dOF13GofrjqKlqs2aO7lJj9dUO52r9LmeN6P5oaJFUY4gWe08Egz19TvN7Ud6QKnGKSQ0NmubopqVpvTZnisvrpPHKEBZnP847SjhUreORRJIJZh8ZQhmkgF3sYA5Ez0sn+iTikxyyCSKG5g4LSEaj2A6Mo3xhSnEEzFTWCvxlsLv8aOQ0jVbE6jKM4aHh00W2tHRaZ69ozKAgigPbr5nn7Plk9a0dGWmko7KTq17vrZGcVv2+JUm0LN9xK16gGYM5DPRWwzFkCxZADwRZJAkldDjCZLx/BRpKr4IdiwzAWo2Gsaesn14d8+7OHPwLCqDlct7fNJ0aQJbvdJK/NZ/xO1qankEuiWH9ZwG0Usugz0b2bYCr4vM9qHOMh06jx8tOUgrjhQcLvYKUk/SHUXGl0JsKWbmy2vqCndtuF/AN5U242zzWbx9+E9QHVq7SimgNZCi4Uk9O03/EmOjhzqvdBAbdCWCUi/Hjx81AxySkOrZ22HbCrxtGq1SoLUelDZkMl37MGv1APtCFQMWC1PIEPwlLwMfSEvpGHS/u55voLtEYqkE9X4lDtQewOv7zzGbrTT8a3n0k48xt6agkKZ4Dhs9xtw20aFmT2hsQbWXPXt2G09X6WO9utNm7JkAL1MX1sVKE0sby8MU0HS49ehnTeNX8zwENo8evGjNMvO4PSgpLsGBpkMIuIuM/t7qg/tl+kzf1+OwJBWPHTtmXm8n4LY9M+C1W4EtxaOna2f7ryrWtALdwKOY8KjXFDDB8rl9Zm3iBY9n3fC1uX9Vod4mLpd3qwSgYKr/lqP5oxs11mbtmQFvm0BQA2zln7OsNp2yDbbOXj/V7x/t4+n70+9lAvz/qX/OspaJBl7+OyLLnivw4n0FPjXAy3/A9SJcjqZU/Xn8yzl5sBI8zfBSpivQ/7/7l3PrmRUHtv+fLOpBRsXFAYJcZaThy3+yuMp0Cjb48nCtFZC1llTcyr8Vlcdrm96//LeiWZoaQ/LQAv3lP9J9adtgWWYwL217Dfi/vefKOWVeGE0AAAAASUVORK5CYIKUdLcCu7EXgO88U7D5m+c14ng5Ih1nZiGWQ7jelBEbflQFjPxmQFiPkU8Sie3erTeuwTk6MuOhhwJ+IVREylKIJt8DTAiIhhEKBuD3epVwf/TH/1anuZwdtE2bcE5Mc17NH/z93ydPNGH51m0N+OaLL+pcTSslwhMx4O7E31z5v9DpPo2IiGhTutiH8UL3R8YRmo7NpkdkhkqQNk1DVsg1i2h0RtlnYMIrx0iBceiEtGgWstNy5Wzpsk6Md58Xve5h/Lvj/w7P7PwyqouSHzyQhd0phGseDqiE6hBpwi5ubAJiKhClGCuVgVYdDkEqNxGM/t/RaUV24TwDGoyN707SGEQzwG3GnALGb16L+5FABnhtkk05H9+ZGRgkNu/H2JWzqIT8HkTkZWTZBXxTfEBEQwFZ7xapGBEjP4SA36vTmLNt+fnnnkNZedkd5lTa6Ojo9Pmz5/CTH/9YMzGSIQ2JxrG2Xvzn/wyF4p2sBtEGPT34h2t/JQS4Dn9UpFWcZHNhsZ1TCEp9vxSgN+jDv3783+BY4/GUiJYISlhKyYv9Pu2Gx7E42GxFNUpCUPIwak/wLxcSbfZYZyTZbFIlQzRKOdqAieC2LEox+W6kCRFG7huPScxI0TCOXMdYY4RtYufh8bGXhuAHOxUnktpAeiQcEVEZXBX197BBVZJU1PaKbLy4uwB/9sVS/MdnSvFbewt1pEaqUaofLnwJSBwa+ouBSsgEks0F7pOlfWCTBxv6feL1GjAa7Hm/zAKhJzzjBcuH2mv6Rt+OdPpR8xnYv8HSQbLRNivI5vBTFtSX2vDoOju+sTMf/1zz2vK1v2eBLVMzNBjK8NL2SREk2N1IZmCufUjA+Q4lNebLi+NqbpnZqvcg55rjIiIxRX/fD9KMoQyxB4JRt7xlLnmbvHxF4huXD3QugtM+uEJTd3RaWSpYARZTJspzTdghUu7IBge+sMmhvdaPyvd91TZsLragwLr0piqqr8QBZmYjlrWh3JghH3/TWUgEz0N1aoD7GkSi1r+1JYa5SEaI7c+xtxYXB1tNSZiengmHKUdsgBzkWxwiJcSj1Osv3z3QmGW7ZFF+AXJz82Gz2KWQV659kvYNu+LtFYK90Jin6vXZ7bk4UGtHqawvFCnIfggGYSjx5npabp1dvTTq76aGuUmdgQSQUImkIniPtBsNUPpxF/KJ+86+7nxIGxsdmz5/7hxe+tGPUnIGtjQ0aC4a5wlaDYlIacYQR3SagcFpXHeexo9u/pX8jiUCJD7yYp0Bd3gSz+34Bv7FwT9QdWHLEEKbreJB3ZlftRLQ2xM2sVsde8yzVzozRlpHA+geD2r/AiNtiJVtOANGWCIRczkVaqPF96PBT+nFX5RuhBEWSQTJmki0RGeAIRtjnZJOfs7rDJAkM66o1sTaRIZIllxzgUizElEtpbBnORCa5iB3LKw7H2wxIIEtmVYU2kpEopTBni0SbZHSfjHgU7CSKMFYwcX2LGwvt+KL9Tl4cU+BSr3dVdlqz7GqmBlr2OGrCfJotuRbCGKiCYuzUlQPUrts02I/g9UCyUSycUlP40iEzKiYWPZ3I2b3MZjJa93bFChKmDyx16rEpuMoRI1Cut3V2ThYa8Mj62zYUmrVlCR6r4Y3OB8ozWYJq0VDSyh+KUOVLoR0NpwyipuKvcXCZxMEs3FXYv7thcBIdTDiE4nGuUKX9/qcM8of4hSDawvkO9s71+Wb1abjsAuHhGzbhHy1+WJXivRjOyk9XEpFqn6jvwFBMpAUd2AR5CNVjBGGqH7nPO8spJNkFmt2LP4RX5kMQiSah9HgVI5aHgSEZL7wnWNiLAe8AfE4PZPxX2sXtKU45MKO8mw8tSUXz27L06FJOUw8WxY45EFi/GsukB+JJEmCL4uG2mgmU2p2CCUa28PYyr+anqeBQDAIr05suvwIRcLwCdnuN9Cm4zxQu6ts+JIQj+TjgDOcAIP2FNUqez6RTHQEZvt86hzMYhpH307s+WU4AlwMpyJZCKHlAiRbCpkY3I+eJxPdpu+BNRrmYC6iMrPSHXIzs0psCZBSEI80el8SjfXO5iLOB0VnoSLHpOnnW8us2FFhVRuvRNbT7hNhd4dtS8k2u/pJvEQ+GV/5OWtX7RORlRbrhDMXtJYyMsSjy8tLOkzBEAgzOMZGRzW8sNqIgCMEheXBbIsxMeZFOjLF9oyIyrn/iDYblFAcfLlaHAkOyLyhyKxzR3HuglJ7hg5zathzBCVeMjKDZJxLIPE0pvSYxJwLSjSqTmZhkGjJqEJeiL2l2E1vvhzxlQRH5OZ4aYzix243iRJKEnQGfMFbmSAPChj4rRbVyqG12KmmTshXKjYe7TmSkiWYWIrzacZEKXfbLrKejuV8WlGJxjhaEbMwkiQaQa/T6/WoZKMjsZpgmlAw7IU/MoageJ7LKVU5dq3Tu7iJte4XUCPRQ63JM2ucbpeoVqpZZvjqduEKPdzEgVwM6HALcVsvluM2N7FmI0Y08TyLS0tEoommTZJoPD0zP4aHhnWy2NVEcXYZDld9Fd/d8n/jcNkLogLM8EXG1XZbKkjayD0I2aw2SBB6rozBZZtidh2HPy2zhBF19qCr+Rp8nDdfKprqlQs5xXCG4TQkyTGFEo0ijz2NMzklS7JEi7st7KYXCK4u0eymHKzP3YYjFd/A0cqv41j1izhY/lWsc3ACMZaGqHMxTBeDYDg453CiDzKo7uhIsPkoK+LFYGczrp45gXOffYArpz5DZ9N1OEfHVIvFEibv9FDJuvnUJnHbXFAXzp+Dx+NN3imQ/ew5Dh1RaK7eySsF2mfh6bBIMjtKsiuxpeAA1tt3wJqeA7dINnYFpGFP+zEQDgj1KKmlEOKGyEw76KyFKsGUbkapoxyPbD4Uu9hDhr7ePpw8cQLtTTfR3dqEwd5OTDrHEeDghSLtpyNhTedOF8OfTqQh6UgyK8dtmAdKNOpsjpfAeTkZG0uWaGwV4MSx9fVbUFi0OrMLE/1TXRj2Dohkc8jbFTNAs0121ObW4XD5V0SyNSIzzYQxfz/6J5thEUJimmSTg2WZj2iZUg7mDDNKHGU4Un80drGHDB0d7fj4gw9Vy9Gkov3tco6hu/k6rpw9ic72dkxNTkCEH3ILi9WWI9E4Jjml4nxQorGiuFy9dg3uySk9+d3EIMHt3I8jEXG+7uLiYjUyVwOnh97GG13/HSeHfo5Jn1tsDQusmXaYMjjBBd12kbKO9dhatB/big4hGsjCWKALU6FRsb9EEhv9CWYtzPLwiwS0Zzvw9PZb3fceFrBJsbW5BZcuXpzxII2FdcslLKaFc2wUHa0tuHz+LPp7exD0+2GziDNxlxE/b1Odvd3dGrLg0EXJkIb2HL3ODRs36FTWqzUx/8WRD3Bm6B04/UNwhVwY8DZhwNOBqaCQTiSZTSSYw5yPAksxim1VKLCWoCKnCoWWMjHdTHD5JsQO4wtFIzWWCcGF4976QyHkZefh2V0vxK/28ICD/TSJyuzq6LgtVJFINmqxUCCgzY+TExOYkIWT1VKjUdjMh9uI5ppw6ey0HEMhWfVJsFczZ7JbydnsEnFl7BM0O8+KfWATKSVi3X0NvVNtcPrG4I044RVjPix2BAd1ybHkoVxItrFgO8rtG2HPiA1Mk8EMkCjf0DACjMlFWahpCEVD4oEV4Ks7np8p4IcFnNHw+rXrSp756l/LhNKNZSgLTS3O/cWJgBkimw8zYosnqKiq1I6j83Vrnw0ew4t1tLXr0PGrhfQ0GqOcRELsKpFg1oxCVYnNrtN4qeX/xF+f/9/xevM/oGX8io7wGAj7VaWuL9yEZ3d8G396/K/wh4f/FIdrvwCHNRdCNR3vHzxnlhi7GUGV1Ml64A8C+KycMYcjsqdkAslxHIOloqIivmJu3CbRbNk2tLW06vhYFJ3JgDdFO42Zths3b0pJEi4WRZZqVNsa5RnT0eu5KFKICZCUUpyhJEfvYTzUh4vDH+L9llfEFJiGw5ILmzgMzDGj5Mq15mFrWSP21x7GluKd8HuCYscNiWQcQKbYeC/u+7aoBI4K+XBINJdIsXNnz6Grs/NWImwSYFk3bN+Gbdu23bWsbiMaD+JYtiMjI5rUmGwh66B8oj45TU9+fn587crBkmkT+6sUZbZa1OXvQrmlTknnDA5qZ2LOesf+lJ6gD+6AG0OTg2idOI/uiVZ4vAHxmLKRbbbBbnEo4YrtpagpXI+Gyu2ocFShJLsMjRU7xF23xon5YIPSjPOz3rh+I2mzicfQGWRoi318q+XzbriNaITH49aLDXM+qBSkEyWbxWrFJtHVKwnG0JgFS7KVZFdgXc42MfKr4DDli+eZLVLLJoWQobPhsZ9BRpoFTu8I+qc6MDQ1iAmvS6diHJka1eAsU7cL7IWoyK/A+qJNqMqrFrJVoMhRDKv54SHahx98iC7RZBQayQoYDim6Y+dObNm6dUEBcwfR5Ko6ggyHGc1I8DwWgt9HCZiOnbt26huxUipnwj+Gcf+AOAFsj2RHCI6+k491ufXYVngQ1fbtOqxBKG1S6BgQs8umTUoZ0xbNNWOP94tDn+Faz3VMeif1nk2ZZsYikZWZpQSrLqoRd932UJCM9rjH68Wv3nhDR2xMRpoRJCdJefixIzoy+0JjGN9BNEolTnV97uxZTfFOhjDch4mQWULM6poadSiStfFSRfdkK97s+m94p+cHcs005JuLwUGPjf4EeZZCbC3Yiz3Fx8SO26Yzo3RPXtQ518XKRybMSIsIsRBB08g1fNb2Ic52nEZ6OAuF9mLYRKWu1EuyFkGv8fKlS7hx7VrS4xcboMY7+vjjqj4XKrM7iMYDOHvKyMgw3FPMyY+tSwZM6+YMeWQ4B4xZCfRP9aBl4gK63U0Y8/fhivM9dEw0i3fpVtuL0i0zPQvmDCtyLUVYl1+HHaWHUGxap+OYuYKjCETdSIvKixBJ1xwsv9hybeNNONP9GVoGWxAORFCaX6qe6oNOuuHhYfzytdd1xE9KqWSel7YZE2UZqG/c0aiDZi+EOYnGE9G972jv0O/JsJzH6ah/4r1sEu/TkZOzIlKtzXkVza6zGPJ1IhgNYtTXB1fAqaQb9LSib7JPyUMbLtech3xrEcrt61BoLUOJvVyXnKx8+OT5OOk/7bg0OhJeJwZdQxiaGBaVOiWEzVHbzZS5On067wUoUNrb2rTJSSowKZIRrGezxYInv3AMlVXJDf1/p40moJ6mfTYzqUEKRGOrQn4Bg7dFK9LQ3utux4C3BZOhYZWgzLLlnJsjQrw213m0jjZruhBnveOcnZxR2JxpQaGtGBsK61BX2Ihia7WsFqNM1KcoAJVuPAeHr3J5PRj3OOHIyEF9xRa11R5UMGZ24dx5DWmkaldzRPbjTz+lQ/8nw485icY4CqXR5cuXNMxBqZbMTXAf6m0alZVVVSivKE/p5pNBjrlAJ6mgzdXtOScPKXakOAWZaWZkZdjliSKy/hrOj7yLZuclIZoJheZSZMl+HGeEEqostwL7ax7F3sojKBbPdcQziH5Pu6YzR8LTqnbrisW5qGl8YIlGNXlW7HDOnc/G82TriVzgBHMbNm7C/v371Y5PBnMSjVCvQiTUyNCwtmslK9UIr+xPd5cR4+WWapxap9Baii0F+3Co/DmUmergDk1gPNijMbSsdLsQivZXlrwkQfS42vBh50/ROdohv8Owikpl/IxQ0uVUYHfNPjy5+WnkZ5Wib2oAnRPdKLWUY//m/cix5ui+DxrY3HRJNNZAX1/SniZBp6+iolKn4+GAe8k6D/MSjRmYJElrS6s2tCd7QpKNKo2S0GKxaoP7ckIsCZgyzHCY8lBgKUOeuQSltmpU2tYj11Qqks4Pb2REVD4Diunwhd2Y8E6I9+nBgLtHSHQTA64+hMIRbXzPzc7ToC1nUaHXWVu0HnWl9Si1FqOxZgeyLXdON3M/QwWImEMff/gRbly/psRJtm55LEm5YeNGnSWFDl+yknB+osnFObx7X2+vEo2ub7In5bGcXDY9I11VqG0Zp1m8MvYxhn29GvcyZ4qXaclDpX2DLPUotFSLRDPDZrKI7ZaNcGhavNEJkW4mdRzGfAPomhCHYaIXY1MjmAxMICDETJvOQLbJhiJHEepK6tBQ2gC71YGy/DKNrT1IILHaWlvx+Wef6Yx0qTQ3kaBl5eU639PWhq0p1em8RJuBnIxZHQP9/SmJ2NibE0EkFMa6DetvSztZCv76yr/GpeHPhGgZsJqyxZTn28iku2wdMHl70QE0FDwmnmWxNqgPe7oQDXMfjnQonyLlPD4vLg2cwsXe0+ga7ZTSz4IjW9SpeKu8x2yznCtf7LoHjGS0rxgVePXnr2iWDuso2TrR+hSSHjh4EPsO7E956swFiZYn3sXoyChamptTIhqlGmNqbM7asGmTSrXlCHd82PePGkPrnLqKU4OvoMvVLQXIGeZyRJLFbK+sDBNK7VVoLHkEByqOw5ZWLIQTyewfEIM/goxpMzg6NzsMj3vGcbrnBN668RoGRgfVhivJK9ZY3IMGahm2aTJVOyCmTSoqk4vVYsGBRw6grr4+6WMNLEg0kotj3LKZYqBXDEe5QCqSiSGPkeERVIkKZSflxUo1TpbAds6P+l+C0z8q0smsTU0cg6PHcwVN42fQNd4h92fRzivWrGyVcg5zHkodFdhS3IhN+Y1wZBZi1DMCl29c20zThW50ejiWiNPjRMvoDZF0Z9HZ14PqwhqVbg8CWA8tzS341Ru/1EA86yHZuqAk1OamI0ewXdTmYhInFladAh1tSFz/m/I2yN3pumRukvvwJkdHRlTUMubCQO7iwGGZpLAmLmMiMIpQ1KcN5gy4TgQGMeztFxtsWDunjPl7xROd1ECs3Zwrxn4+KnJqUW6vRWF2KfKy85FvLRSnwqIN697QlGbe+sN+DLuH0DbcgRtDrTi65ag4CIVJV8haRmdHB86cPoNrl6+kZMZQkhn2+rGnjqOquiolu85AUkRjijYlW09Pj+aVJxtXM8D9neJQWLOtakwmG3tJBK/HOFgkmgZOy8N5BUzpNu21zrSgdFF1InfR62nCDecZId2QNqJzBEW+JExhtIrBX5FXjR0V+7C5qFHUpEOlJI9L5+QXDOBOp8EXDKF5ogXP7XgOZTnshrgy7barBeaanRDj//y58zPESRasO86Zv337do2bUVgsBkkRjSA5OI3xtStX1PZK1l4jQbgvkyPZOTdbJNtC2ZjzgeeqdGzAnpJj2FnwRdgyioRYN+GL8NzMuM3U9G0mQE4Gx3B5+ATea30ZLv8UMoRI9qxcbTQnOD7t5pIteGT9Y3ik9jFkib3W7erAuG9M1aktzY6jm54QopXDIl7s/Yx33n4bF85f0KycVO1keqklxcX4zm//lrYGpGqbGUiaaCQLu+TRW5kSHZ9yS7/s656a0mwBdmTgBGeLcQ6UuOkZMGdaUWqrwPbig9iUsxvWjBy4giMYD7YJTcziaWYgGskQWy4L7sAkro+ewJWhU+gZ70FahIPWcTJ+s0ordtWrKVyH/esOY1vpLjnCjPaRdhze+Bgq86vu21ga2zKvXL6ME598qgPysA5S0UQMZ5SUlmLXnj3Y3ti4pMhB0kTjBaib2Zg6Ksb9aPzGkwWPp0FJachwSWlZqQ7OnCzZAhE/eic70D3VquqOwVbaX8y0zTeXxhrNs6tQZd8gXqUdk94JeIRgJiFkIMRpcpzacD7mHUPfVAe6nO2YdE8iK82MfFsBHJYclDhKUWIvRWluOWqL16GxajsKHYUwZ63efPHLBb7U7W3teP/ddzE0MIhIkm3WBgwVyxTtQ4cPxeZmXSTJiKSJRvBC7OnkdI5jWMhG0qRy89yXWSGc0MpsMWt6CcMeyahhtm1eGzmrbZgjvg4hnleDsFRzlEjssb4udyvWi3Qzi9pjkWTIv6xpm8bTGEubFvuOhn/nRJMY/E0YnhjRaRT94rnSnjNlMJ6Wi6qCKuyu3YM8e55ITrPahvcTmITa3t6OU6dO4pKoTLY/p5ItTZJRZTI9e/+B/ZqqvVSkRDSCZGPTQzAY0OapVMUpycblxrXr2sRF0UyVvNA5GMa46byAU8Mv49zIG7g2fgpD7jFxCEzaeTgrI0YIpnPX5m3GrrIj2JS3GyE/kyVbRAr6NGCbNi0eU4QN8ekq1T7v/hCftr8PvzeEXFuepoLLU2oTXGZGbGDm+wkMY/T29OqoA4yX0ZBPVRKRaFSbx7/0NHbu2rUs/XVTJhpBlcebpwqkgUmk8jDclwRlawOlIt8cPszdzsHcsZtj5zHgbRfDP1MMfiumxCa7Mv62hjw41BSDsOwszPZQEsRudmBjUT2OrvuSkG6n2mZDHrnm9KioV07kz656IlHFKmsba8XnHR/hXPtZjIrELsop1paH+ymdm+Tg2Bm/fvNNDcxSiqVKMqZ200R6RNTl3n37YsOZpaC15sOiiEZVxyix3W5Da2ubilkiVbJxElE6B3S/Kdno2c6nRpmhcXboAx1Pg4OxaKhjOoxA1C/SzofxwDB63Tdww3las205WItNbDh2scux5CPPWoSK3GpsKNyqY3SEgtNit43DJyo5Kz3Wn8AvUtolqrRrvBsfdX2GaDAsx+UhR9TpWgczbBgre+ett1Rt0llLxiRJBCUZSVZaXo7jTz2lXSgXE4qaC4siGkGngMFXSiR6NMzWSJX53N/n86ljEY1GVCWzz8JcAcGpgBOfD7wTGz8DYZVaJGuGGPNR+ecJuTDs60bPVLOQckqM/mHt/RSKhtVDtYl0K3GUozpvPSod6zWG5rA4dD291KnAhLzO7Lk+LceO4+ZQE+zpNmws3oiKgjunbl5LcLlc2lB+8vPPNSDLFz9VkhEkWnFJCR45eBCNO3cs6xAXiyYaQUJU11RrD2cGZNnbKFVRTbKxYNjqkCnny862qYMwm2yu4DhO9L8Jb1gMe6EaiWYgpio5+iBtqkyM+wZxZehzXB85LxLLD3OGSaSf3Nu0eM6ZWZoWtLmkHjsq92F9wWYhWBpGfQOaacuueumyX67JgRxTDhrE86wtqo1fae2BGqG5qQmfn/gcZ0+f1iTGxag6BmZpEjU2NuLpZ76kkizVurwblkQ03gjzxZm6zQdmD/e5pNFC4Hl4XFdHJ8bGxmA2mbVnTSIm/MN4t+dH8V7pKs/iW+5EKEBTn29jGgY8nZr4eLnvgqhUDwptRdpTimBP9ILsImyr3ImntzyPascG9ULbnW3wioR2WO3YVbsb60WqrVV88P77+FCWdjFhFrJz7wam4B99/CiePPYFddKWk2TEkohG8IZ0imx5i/yiBo10olRv1Nif2blsG3WK3WbYCNw2ERjBh70/454qve4GMbdED8j5pvldFGs4NoX1sLsPlwfO4EznCRGlzPgQ1SmSK0sIxzAGB3epK6/HvpoD2Fxcj4A/iK3lDVhXsj524jWCWKLCMF5/9TVcuXRJtYlovcVJMjkX7bmDjx7G/v0HUF5ZsSi1uxCWTDSC0ohil/06x0bH1O6ivk+VbCwoek5sT2WyJQf54zqL1SKeolMk2j8IyWJjoN0NJBoLnu2bMcJladavJzCFEfegEG4Aw0zZHm/VbFvaZQ6rkM5iR7GjBJX51eI4VGggd33pBvlc+WEekgUdp+amZrXHLgnJ2E2Oam8x5CBhWXccM+Wxo0dRs652xbpJLgvRCN4gG1w5iRnfNk54wYpeDNl4XCyyHfNoM7My4Z4ex8nxVzRjQ/sE3AUG0RQknNhgzMilGGMnY95R63Azrg6cQ+dom7zRIe015Qv6tQGeHZILHAXYULpxTZCMLy0j+yPiNN24cUPjY+fOnFGCsXwXJcnk2EwhJ9uvjx0/js2bN2uz4EohTR7CqJJlAYnx6i9+gYvnzolId6qBvxRQOuYV5qFoiw2tle+KYyiOgBTu3QiczHydBMnHhelHI55h1Nn34gv1z+CJhi+gqrBaVbRagym+LMsJVg+lPCXZm2++iSsXL2JycmrJHiEFQXVtjeaYPfHkk/G1K4dlJxpPx3ThTz/+BGfPnNZeVPSEFouYWhBJZM5AKMOD8PpxBMtGELV7NNDKsTNmIxWicX00Mo1AWAgcyYIl0yLSrBAb87bgkXWPYkftLpTmlcYOuAdgatbFCxdxTjxKxspoT7GMFyPFCB7L7NpNdXUaxti1Z/eiU39SwbITzQA7tVy8cAFnpIA4FwFtiKUUDlUgExmnc/0I508iXOhGqMSDNAu7AlLqxKQPkTLRRNVyHL5QKAKOFMnRIO0ZhTCZs/HigX+G41uPr2q3O7YHc1h9RvfZubevr087krD8uCxWwtImYyFU1Ygke/RRHdfsbqM0LidWjGjEwMCASDXx8k6e0qAiPZxUGnfnREQKOVPUSY5PJNsUph3jiDqEOdkhHa2RhIsE2Ws+TrYUiMZ9lZzyPSj7tLm68S8f/Vf47qHfReUqBG3pBI2JEzQonnunEOzypcuYoEcp25LNcpkPhuHPFphDhw9jx66dmpGxWlhRohFTYk989NGHQraTOhsexz9dFptHDPw0WaLWELyVLoRFnabnuURySoVkCBGVYDEScRDkGQchSaJxpKJJ3xRe3Pdb+Ob+b4v3ufwhDhY9CUC7ljYTxye7eP6CagI6QyRGKkOHzQetYlkqq6tx9InHsWfv3qTGy1hOrDjRaGOxeerC+fOaUdDa3KyhkGUB71y0sSZqZ0TEbgsgUjkJX9Eo0mwB2SYVGUxXMoWFOPxcS0Sjo8PRfG6KJ3nm1GmR+hMIiyhlZxmDXMvxUrKZkOQ6cvQxbBbbjCRblpc9Baw40QzQQWhtadFBReia0xtdir1xGxgrIzKimLaEETaJkZYdFLUaQsjug9fqwjSn7REbTokVJ1fi9/mI9pXG5/CNvd/GjnU7YtdYAvjSsdJ7xX7t7uxCv9hebAlhJiy7JUZEskmBaJkstVxYrVx4TUb8d+zaFRu7bgVDGHfDqhGNYIEyw+DU55+jWUjndcfmXFqsk3AH5EnSorFzTWcK6UStRmx++K1ugJNpiQ0XoR1nisAT8Wv754xU48LvccIZRDtW/7QQ7Zs4UPeInjdZsIJp1NNTZGiCfSppp7qcEyLFhsR+HdTBcCjVaH8t20snoC3MFzm/IF8l2KNHjug0mRzT7F5hVYlGMCZE6fbG669r+xwrgCneS3YS5gLtODoPgmmLeJRWIZeo14ycEJyQ66aLKEujCBObThgXla9MDOCAfVS1rsAUHttwFM/v+RoebXhMyaPniksLXeQgxuH4XJztj31gQ6GwJobqgIbDI+o1smmOniQj+bS7GCxdTL7Y3cD74T1aLGYUF5egoXE7nnr6abX1lu1lXiRWnWiEUSCnPj+JTz/+WLMPFpMJuihQ6jGtm98p9bLEtjOF4TN5AbNIofQQAtGQ2n2T0SnUlzbg+M4v4diuYzMxLDXgRVpxbvdgIIipqUltMmPzG2cfGRJCTQmhjA48JJYhsVaqwo37Ynvz/oOP6Gg/DQ0N95xgBu4J0Qzw7aa9cu3qNXzy0UcqFZYSb0saIukUlGZyqWn5ZIsDnQf+43ztRER0KAfxc5gc2haqEo2lxcPl0yg6VjDvPSyuLccboYTmOk5nI+xSghnLSoDXItgdjgZ//Zat2vmH6VZrBfeUaAQ9UqoXBifpfTESbrj2K1UxqYDk4mJUJqGkSfguf2bulZ+rJUV4XyQ4hyhYv2EDtjRs1aHY8/LytPzWEu450RLBkcA5QjSj4ZOuSVVPyxZ3e0DA6jKqLJYLWCAG/+b4UFINun4tYk0RjaBnxomvPnj/PQyLZ8a3Vmc75m0+5IQzSMYyYZ4ewxVf/upXsG79+mVNu14JrDmiUUXRiKY32iJOwklxGCjhmCaTaFQ/TDDIRQnPPhX1W7fgwCMHhWDrNBt2udOuVwJrjmgGWLCUbgxqdnV26cy4zTebZtTpYrJ47zewaviCUZIzV2zLlnrUrlsnkqxWB6Je7vGBVxJrlmiJYMCzo6NTnQUmVY6OjqgNZ4QPHiQpx+rgS8agK8lFw76wqEhHYdq6rQFVlZUrmqC4UrgviJaIjo4OXL1yBTevx0jHSqHnxYrhg5Bw9xvpWAVceN8M4jIlnp/sYcbhCLZubdARsO9n3HdEow3Hhf0JBgcHcPniJZ0DnKQjaMetldBIMjBeFI0himSuqKrCrt27sXvPbuTl56uRvyqxxRXGfUc0A5RgfjoNYsfRlmNUnrMgd3d1aj9Tr9en+xmVtBYkHYvaUIv8pNTKyc1BTW2tjt3P9kgO6UV1yWFY76cXZiHct0SbDWZFMN+NUo5tirGG7Nh4bPzOgQDZyC01N0O6RPItV4UaxclPYyGx6MBQOnGIzvz8POTk5GoKNaVWqajFYrHDGBNb62GKxeKBIdpsMDzCmZQ5RBZnVeYAgm424FNNScWTdBwgmak5auOJhGFRLJZwxrGUngyksucWszI4SIyuEwJRepWVlavtxT6rzHBdtty8NY4HlmhzQVOlx8Z0rI++vn7NqGBnZWaTuJxOJVuilEsWLEIuVNO5IqE4dGpZRTmKi4uVTBxTjp4jh+d6OAH8/5EKTnqvPQG5AAAAAElFTkSuQmCC;fontColor=#FFFFFF;" parent="1" vertex="1">
          <mxGeometry x="464.03" y="340" width="61.95" height="58" as="geometry" />
        </mxCell>
        <mxCell id="qElc-rtGXhzsWFZlQuVK-8" value="&lt;font style=&quot;font-size: 12px;&quot;&gt;artifacts.apps.s####.k8s.retail.ad.publix.com&amp;nbsp;&lt;/font&gt;" style="text;html=1;strokeColor=none;fillColor=none;align=center;verticalAlign=middle;whiteSpace=wrap;rounded=0;fontColor=#FFFFFF;" parent="1" vertex="1">
          <mxGeometry x="468.02" y="310" width="130" height="36" as="geometry" />
        </mxCell>
        <mxCell id="qElc-rtGXhzsWFZlQuVK-10" value="&lt;font style=&quot;font-size: 11px;&quot;&gt;&lt;br&gt;-Pulls content in random 24 hour intervals&lt;br&gt;-Retains three latest versions&lt;br&gt;&lt;br&gt;&lt;/font&gt;" style="strokeWidth=1;shadow=0;dashed=0;align=center;html=1;shape=mxgraph.mockup.text.bulletedList;textColor=#666666;mainText=,,,,;textSize=17;bulletStyle=none;strokeColor=none;fillColor=none;align=left;verticalAlign=top;fontSize=17;fontColor=#FFFFFF;movable=1;resizable=1;rotatable=1;deletable=1;editable=1;locked=0;connectable=1;" parent="1" vertex="1">
          <mxGeometry x="428.02" y="395" width="210" height="70" as="geometry" />
        </mxCell>
        <mxCell id="qElc-rtGXhzsWFZlQuVK-27" value="" style="curved=1;endArrow=none;html=1;rounded=0;strokeColor=#FFFFFF;dashed=1;startArrow=classic;startFill=1;exitX=0.25;exitY=0;exitDx=0;exitDy=0;endFill=0;entryX=0;entryY=1;entryDx=0;entryDy=0;entryPerimeter=0;" parent="1" source="qElc-rtGXhzsWFZlQuVK-8" target="w_SDebKLZOwlzJtNYWrO-9" edge="1">
          <mxGeometry width="50" height="50" relative="1" as="geometry">
            <mxPoint x="450" y="300" as="sourcePoint" />
            <mxPoint x="494.03" y="180" as="targetPoint" />
            <Array as="points" />
          </mxGeometry>
        </mxCell>
        <mxCell id="_yeT4RgFgbLnkIytBLUX-1" value="" style="edgeStyle=orthogonalEdgeStyle;rounded=0;orthogonalLoop=1;jettySize=auto;html=1;" edge="1" parent="1" source="qElc-rtGXhzsWFZlQuVK-28" target="qElc-rtGXhzsWFZlQuVK-12">
          <mxGeometry relative="1" as="geometry" />
        </mxCell>
        <mxCell id="_yeT4RgFgbLnkIytBLUX-2" value="" style="edgeStyle=orthogonalEdgeStyle;rounded=0;orthogonalLoop=1;jettySize=auto;html=1;" edge="1" parent="1" source="qElc-rtGXhzsWFZlQuVK-28" target="qElc-rtGXhzsWFZlQuVK-12">
          <mxGeometry relative="1" as="geometry" />
        </mxCell>
        <mxCell id="_yeT4RgFgbLnkIytBLUX-3" value="" style="edgeStyle=orthogonalEdgeStyle;rounded=0;orthogonalLoop=1;jettySize=auto;html=1;" edge="1" parent="1" source="qElc-rtGXhzsWFZlQuVK-28" target="qElc-rtGXhzsWFZlQuVK-12">
          <mxGeometry relative="1" as="geometry" />
        </mxCell>
        <mxCell id="_yeT4RgFgbLnkIytBLUX-4" value="" style="edgeStyle=orthogonalEdgeStyle;rounded=0;orthogonalLoop=1;jettySize=auto;html=1;" edge="1" parent="1" source="qElc-rtGXhzsWFZlQuVK-28" target="qElc-rtGXhzsWFZlQuVK-12">
          <mxGeometry relative="1" as="geometry" />
        </mxCell>
        <mxCell id="qElc-rtGXhzsWFZlQuVK-28" value="   Ansible" style="shape=image;verticalLabelPosition=bottom;labelBackgroundColor=#000000;verticalAlign=top;aspect=fixed;imageAspect=0;image=data:image/png,iVBORw0KGgoAAAANSUhEUgAAAEMAAABLCAYAAAArmToeAAAAAXNSR0IArs4c6QAAAARnQU1BAACxjwv8YQUAAAAJcEhZcwAAFiUAABYlAUlSJPAAAAm3SURBVHhe7ZtljBRLFEYv7u7u7u7uDoEAwT1A8B9YcAhBgwZLsBAsBAkQNLi7Q3B3d+e9d2qrN72zM7M9M90svMxJNttVMzvy9a1rVRvln/+QIIqo+neQ/wiKYSIohomgGCaCYpgIimEiKIaJoBgmgmKYCIph4rem47zVr1+/5MuXL3Lz5k25deuW3Lt3T65fvy5XrlyRR48eSYoUKSRDhgxSuHBhSZs2rWTMmFFy584tiRMnlqhRo0qUKFHUjxM4LsbPnz/lxYsXcu3aNTl9+rQcPXpUzp49K48fP5avX7/qZ3knefLkkjVrVqlSpYoSKV++fEqw2LFj62fYg2Ni8LLc8Q0bNsjevXvV9ZMnT+THjx/6Gf6RJEkSyZw5sxQvXlwaNmwoVatWVRZjB46I8fTpU5k/f77Mnj1bPn/+HLAA7kAALAOL4X1KlCgRsCi2ivHmzRvZvHmzTJw4UW7cuKFnnQd/0r59e+nRo4ekT59eokWLph/xDVvE4CXwB9OmTZNdu3YpUSIDlk6LFi2kXbt2kjBhQj1rnYDF+P79u/ILo0aNUtEhsokTJ4507NhRxo0bp659ISAxvn37JkuXLpUJEyaosPgn0apVKxk7dqykSZPGcij2W4y3b9/K9OnTlRB/KkSa8ePHS8GCBS0J4pf7ff/+vfLg+Ig/mX379snw4cPl4cOHesY7PouBIeEjpk6dajlpiixI+Hbu3ClDhgxRWW9E+LRMeCoZZMuWLeXZs2d61j7ILskdSM1ZhnbSpk0bdQO9RRmfLIMskljuhBDNmzdXznjJkiUydOhQPWsfWPOqVau8JoCWLePTp0/Sq1cvWblypZ6xj2TJkqlkDcuAjx8/Srly5eTq1atqbBd58uSR1atXS44cOfRMWCxZBnrt2LFDtm/frmfsgxS6WrVqkilTJj0jEi9ePBkxYoTfmaQnWH6TJ0/2aB2WxMAqVqxYIa9evdIz9sEXRwzXtVyzZk3JmzevHtnHmjVrlN9zhyUxdu/eLdu2bdMje0maNKnUqlUrnBXEjx9fGjdurEf2QVTp2bOn2+gSoRjv3r1TyRVptxOQOqdMmVKPRDV/DKpXr64KL7uhl8Kyd3WXEYqxZ88eOXz4sB7ZD1HEyA5J5s6dO6euIWfOnCp7tBuWPf4PR23Gqxj80cKFC/XIflq3bq0aNQbHjx+XGTNmhOYYiRIlkkaNGkmsWLHU2C6wvoMHD8rt27f1TAhexbh//77qUToBDpMlYlgFH3DRokVy6tQpuXPnjprjsRo1aihR7IbvZrZC8CrG+fPnVavOCcqWLRsmWly+fFnWrVunmkL79+/XsyKpU6dWDs9u6MAdOHBAj0LwKAYO8+LFi7anxUCkIHQmSJBAjbEKskMDrmkPANZBsyZdunRqbCcbN27UVyF4FAPlSL+dgLtdqVIliR49uhpjfeaEjq4Zy8WAnkTTpk31yD7oyJn9hkcxiMNOLRHS7uzZs6trrOLYsWPhmkNjxowJkwvUq1dPWZTdmP2GRzFev36t4rET4ANixoyprolYxHzezwy9iEuXLumRSK5cuaR06dJ6ZB9sZhl4FcOJSELeUKpUKT0StcFEmHNNgBgvW7YsdJ6dNiKL3RtHFy5cCK1VvC4TczZoB3yRYcOGhdnfoE4gzLmDvMNY0/wNabs5W7WDkydPhjprj2KQDdoNrfzy5cvrUQgVK1ZUex5GZDFDtx1HalgHCRpRyE64EXTEwKMYTuyCVa5cOdyXJlLQ1qdkd4WwTpFo3Dky0c6dO6trJ/AoRqBbda6wDYiZG+GUu8EPeQQC0TjasmWLZMmSJUwFu3Xr1tCMFIhEderU0aPAMb+Xx29sdxgjlFJ4GZBxmpMrwHKWL1+uRDNg35bM1AzWYYgaKNwk48Z7FIOmS9y4cfUocJo1axbawEEA2nwDBw6UPn36hDaNsBLu/KxZs6Rv375qDhibw3zRokWlSJEiehQYvI4R5j2KwQcnnNkBLb369evrUUjYpi2ACDSBKdgePHigHkMQDqmwOTVnzhwVPXj+pk2b1OPAeQ2sJ0aMGHrGf0jzjdfxKAZNWj6UHQwePFidqzAgmTpx4oQeiUq6iChHjhwJ9exAiT9z5kwpVqyYyjmMCMeHp1WYKlUqNQ4EDr4YeBSDJWJHcYSfaNCggR6FsH79+nAFIJbSpUsXZQ3URYD58reU9oRg8g4jzObPn1+F6kAxN488imEcBAkUagqszIDiiC/nDvIKrMi8f4tzQ1D8C8vNSARx8J06dVLX/sJrmJ26RzEwRZ4YSFTB71CdGvBFiBbeMlsemzRpkvTv31+FVMMSaPBky5YtTCgkgQvEeuvWrat8lIFHMYC1GsiblSxZUnl+A+oQdsysMG/ePOnatasq2AxBzB8cOH+BJfkDlm++UeBVDBIgf5cKlkVhhec3OHToUJgqMSJ4PpGGZMwT9EixGF/hSKWrz/EqBukvm8z+QFjG+Rl3k0hAA8eXnXssgp4KOQpHINx13Vg++CVfdt/4TOQX5l088CoGkPr6067v0KGDUt/A6G36WwmPHj1a/ZhTc8AC8R1sRlmFhLJJkybhdvEiFIO6gQMfvoJFme8Wrby7d+/qke98+PBBRSGOFri2I0nNXf2JN1j6pP6ufxOhGECCU7t2bT2KGPqV5Ck0h8gsOTlD89VfqzBgiVHSs9PGIRSjAbV48WLLxySwpJEjR7rdfrB0JIGnkA537949XHvOHXhqd3uZdkIk4YgB/Yjnz5/r2YjBYhHPHZYsA3MiDFEPWDFHp4UAslSWni9C0Ec1F4CuWBIDMCs61kaF97eB06QRXaBAAT0THstiACf5WS7se/xt4Gc4PewtBPskBlSoUEGdueK89t8C6cGUKVMi3LP1WQxo27at9OvX769YMvg6mkNWznn4JQbRgvXHD9d/KvzbBRWw1b6M5dN+7qB9R/OFosrqKdzfBSk6h2EpFK0mZAGJASRCdKqwEqrSyIZ6qlu3bjJo0KAwfRQrBCyGAdt0xHA2ctk/jQzYgxkwYEDk/b+JGbpY9Co5OHvmzBk96zy0CWgX9O7dWwoVKuT3no+tYgCHXKgs165dq4Rx+h9yqINoJrND726L0hdsF8MMex0LFiyQuXPnKmeLfwmkWMMRUmjhF8qUKaP8Aseh7MJRMQwov2nf8f9rnAdnl+zly5eqrjBvDbiDtc8yoFlEM4YuOf0Lduh8aehY4beIYcBmNhtHlNsIwnLi0C3XVMMUePQmMHe+PBkjqT8isJnEHNWq1VDpK79VDFeMt+a3+WMYX9b1t9NEqhh/Gv7FoP8pQTFMBMUIReRfdBiNBM5Pe4UAAAAASUVORK5CYIKuiWyo6widpORPrUZT7l4kgtaNrFuOEFm49dZbk5MW9dflow3mRlwdI+EQyzlyh/CXR5Z6GEiTU4awHBQdZpqsixwgLq1M55INOULdNZ1LRpIOgV4Ql7U1sgjynCMJogGIJrWLtGK5iBtHGQjLUSWdVtJ35IKiG8QVF86laixALsRqCbIhUNdmk2IuxDVqQsfkvqMiktGjNG4kDqodoD10lqVJYtlK/VaSTwYDyYG4jkkTGUMCXnDQrIAhK7VRL4hrNF144YVZ1ySAmtpjjjkmadI6aAsdQzr96Ec/Kr785S8Xn/vc51ItchN0HvLG3rQ5RhjMOEJjElKceGhLWpiZuKIHVjeQCfOO1fUNHvRMi0oakApVRPmeXD2JwMqyNDqN1qX1ELoJsmiexRD70eYE7eLezczaJsjbFjMT18UgLsdMJ+m8XFEOW1UzXTomgLjCgtokQO+KZ0aHlT8fePGLX5yW9cTiyhyhHWIvhro2mBRzIS7nQ3o319UNAWSibZG2yYEKi2swl7eUiie2s74+U9dpJILvf/e7353ImyPwxEzEiSep2mIm4iIpC2IKpG1nGUFDAIuIUHXFNOFomHXIJo4q8gaQWKkfK8za+GxIi4DfWc7DQcvV4pJMKga1hwHeFjMRl7VFWBfignIFL189gtgti9jk9SOedrDqw3RI8wdkjayARV5t5rN18N0SEc6XY2gMYVlcr9UNRKbBTMRlbWkWdQk5Z8vUItgnQRWXwm+ka5pdkJMkYG1Z1oCOMsAVV5uhQEKiSmAWl5NmmbvY7jSlkkMAiWDWUYy1NOKyHAqG6ZZyJ+UG2hNpTeHItlLtLHJaulLeghO8R177y5IRTb5AyAWRi3e9613ZlTtqBxKBocObtpiJuDrC1Der0O4zYokNCyhJAMgVljLIGbUa2gN56/Qb/cvissoGeh15fS95QJLkGtPVDgYvo9cWMxHXjn2xc0muYGU9cYbmrCMR4jrIJiEw0mk1GOi08Eoxb5JE2C3HLJr0r40PxXPbYibicj4Qd6Wg+tCBPJbYNO08w0IioNlnUq3PKkt/InBY7CoQVhTDE2+ssMgJZifkdRjwbUKoMxHXiQntHIlLx3KMyISdd945Wds6bYu4ERKclLixXRHrHLNVlcAyZzJoMmlWEBs0IU+GDvfKMRPTNng7J65Gb3vivgNRTNc8e44Sh6nJOnLEwoqWq5+a4DNIruDE4AffXf5+JFXQY6M8MsX5cyFugNZtuy6xFXHDEdFhbU1938HCvvGNb0waN6rAmoirLWQPJ20LjpkO4yOU5UL1+yM0Riqok8hN77K4nRNXQF2Hsbo5Epe1Q1zePTRZO/fO2qoE0xGTQEdpO4kKEiMIWz0Hq6+Yh9UX1cgtpqu9+AYRkWoyDHVoTVzW1pFrYU3EboO4ddDQSEginH/++WkwTwptZ081zy32HUhbJq7vjo6kca22yC2ma+bRZvhUvt9JMBVxEdSXB3GdeJqTDQUcslgDthJZDFprqVjcaReH+jytq2JMGI3MqCKILH5MMuRmcfGIYx/t1jSr1WEmi1vX2DmAlVV3a3uk0JV1pHT/pnv6dlpoQ3JB1VhdfWpYYOe1RIjWVuDjmnKBNogBH/c7KaYibuTWnYi1mSXX3GewtPSt2K17bpJCYTVnSV2qJLOQsCllrq0NHpGF97///em6cgGJNO1MFZja4jqJE0bwOCfEQkiaUhiKg2agIm8M2gCnwjTPKUO+tkB6SRxFOWYxCEkGYYnIBBZXhZprzGGFRBCXXJjWT2pFXCcSxskt1cuykQkOUzJyBHHiCEQMUkjL+7ZgAKK+wfcFYb064rzla6N5cyEuDnldOHGdAHFZ29wyZqyasJMlOqtBqIpFlpalQduCASA3FJ2w3EFWCBKDWLKNQ1xbbE06dARxpyUttLK4UJ7OcgALhhgHHHBAkgl1cL/u20H/Wh/28Y9/vPjQhz6U1qIh8rTwnZw0RSe0btX6lNsYoSUj9t577yxCY+7T/XZicUFj8ginPVmfIdCPsAhoM7vVwDorwNlnn33SA/k820wIjQWeFhGdkAIuxzXrwHG0SZ5z51Dy6F7bcKk1cUOb5AKWzJNwYi+wOrB44aiBdiAZEHbNmjXJ+gqjtYVqOwU4JFjIhSo4Zq5V4U/UBw8VyIq0bdCauLmBxbUhR0z3q1mAIDEgOkIhrSdHkg6IZc3YNBDTvf7665N00MbOUSWwgeJ7ZfVY3yHDPbblUiviQtnyDBmIYJWDIhbZKd57lSx1jRufCXKRDr7Dk3SOPvroJB2ErqaBkki7vUhoiOvWXYffGVxkDbkQBUBDhOtuy6Gp/4slcujgHEIyOh7hFLKI30b5YFkOrGYVfN7hc6ygfRFOPPHEtA3pNEBYKWTxYXHiKuJatD0dLrrQVCc8BLhuhqPNwJv6jp0MYb22OWHfYNp9z3vekzJSSFwmgQGKKHGf9Bj9GUQOwpYP/4/8SPXhD3+4+OxnP1t88IMfnMj6+l6+Q+xTUUac06vOZm1ds2VFQ40waC9ccj/ldp8ErYnrcOKhQ6dzrujbusYLQiIMi6iuQKIg0t3x9/J732M6p0PpXalaS3AmeTIPieAcMml1OjuIKxwn5kxXDzW64D4YizCE02Bq4uoYJ4yRMnS4DyGsuuc4aMwgJcJI75555plpKpc4WA3ah9NH7370ox9N2ne1B/L5Xk9ltKFI2brXQRbNSuChWlxtb3aalrSw0aefwrr3qyIsAGvDIuhAscehQgKBTBAGExVoakBkUnP7jW98I+24bom5UCDCl+VFkLwKBEYun6eBkZEcqIvX+hlhhbp83roz5/D7sOhxOC9pYYtXmnhotSMq3kRfxM4Zjqb2q8PEVC83sJHiRKtNe32FDnftilZkoZq29Yx7RgjP6jKFG6zIe8kllxRr165NNQaxbqwOOiMsr0464ogj0mCxCLIuicA4qH1gEDhq1ZrnIC2wVrJ9ViH7rqFBPxiU2sc9le9zNUxvo5+Ck2hw3u0QoaGQVfhLWKlpAGpIhxmGvi2vcLj66quT43XFFVekjS2arHXA9xgcLK5Y7yc+8YkUdWiqr2WRyYWVrKh+oHUNvmlDb32ANiuTdhriTiwVYpR7NcUpwWMRTJtDA6JyxjhMyBMDUMPFfQY4YqztOeec84yVCj5rSkdoJGN16VffrTPq4Lt1FgIbOMjmf7SnqT4cPmB5fc7AEvlgKKrXFp3tnK7TdVjHNZSMphCkBxxWndbqfdZhKovrCx06RkWUxowRMySYYqVNWT/30WQt3ZewlLJDNbPVNWWmdANXgcwFF1yQnvUQG6SUrUcMiGgnEQdVXh6n+t73vrc4/PDD/6fOga7mR0gBO29dG/teUy2ZIAbNWRvSLOjaEVb7x/3V3WcdWkkFJ9L4Diee9GR9AUdJGInVBfcTRxUIxJqtZMWUJZIOX/rSl9KGdwhdDmWFZazC+TiIxx13XHHCCSek8FnA+Zzbhitem6Dt9QELHjXEQwHi4pB2cB917d+EqaIKAScxsk2hPNq2NZXLAGcGWThJpmoNVwdEQ55vfvObxemnn56sH0vaBPdvmmadVXohkBkpwmxB3vIg9z9+1oGIZwYwmBCfU+b77HYjwiBm6zvL/w9+jsP32WikmrzoKyRPRHQiOlNtn5UwE3FNk4irgdtW+XQNuspS76gEK+vRsIruD2mtbrj00ktTBGEl0gLSIBvNi7x+Niho2GqsMjonOgoh6dh4NnC0JQKrX0BoEQmypmxR/W98l/5wDjW9pMUQQmPqOvbff/9079EPcT+roZVUCGgs026TM9JHqEswJQtPGeUBJEI2h/dIKPTF4ZkWyhNZ6bPPPvsZG4XoFN8dAySmyADrLERHNhx//PFpf1xkNRhWizAYJBZUcjgNziGAxDGwYyaZRirMRFwnZSHKBOgrNI7r5cBEFVgV0XCIhSSsV9uFkDFte86ZiITZiQUN4pYHScB7RkAyxDTqeWqybSSHAeD/A9X/1fGMyBBiuto5ZJTXaQgbmIm4ocuGQFxERVq6lmWqXnNYPq9kAavJyk2y320TkP66665LckO8V/hQGBHp6hBEZIm0qySFiINN9/wPCWAmqIPrJklEF2SkDNK+zoRxnbStfom2nwYzEZejw3q5kL4DGehEMUPet1FetXYOjciLRzpZsfIDSNpAfNdjUb/2ta8l6SACIV7r/I66TkNSv2cYDjrooERey3VsBh3XU/e/BiMyIIUB6p77CDMDfTuLpJmJuKY0o7tu2u0baEUZpmgsnV4mLsTvkNbULpJQnp7bwnf6LgT+1Kc+lQp1/CwaE9cQVrhKaK9mCMSVjEDmJvg/Uy8LjRgI0kfQ45Oupm7CTMSVbuTsIC/PsK/QgTx2jdW0TiuIgkCW0JjiWbjVogmTgkTwvZIVpIN6B5m4WKYDrqF8BLQz3WqGQ8wm+B9GxCzY1+dH8DVoW7whZ9piJuIaORpUBkhj9RU6nEQwQ6wkaxBIKIq1Fb9dVDxUkuKkk05K5BXuct4qWevQJC2qIBdWqsFYJiJEiLyzzNSticsyaUjWzFQ2y+hZNOg9UyfiruSwROyWdQwruAiQCApzzjrrrOIrX/lKcdlllyXtOo9YePSL/hCZiOxgX2Dmi4d4z+IbzWRxNZCTs7p9lAqmJZqQ9bHMxSArW62q9eKxs7azPMZoEiAop8256N6LLrqouOaaa1Kdg8ETg6bt4HGPLBri0vRtPfdFgPEwO+PLLNGo1sQNAji5UUSH9Q0GFWtrhHstj/AygQPIJGwlZdsV7r333uLCCy8sTj755LTyQfyY1UTaOKZB3JdBirgSGt73JTSGJ/hCf89yTTNZXDCaxUeFYFjePsV0XQvHUUPRVjq1CRwxheI333xzylR1CdJB6O28885LBLa3guIaBGxrKfWLWDCH1MDti96N5Ub6YxbMTFyjhp4KyzbrBc0TrkXH8WAjrdgEjpgYK9LGdp9dgTxQj6vug2xQInnTTTeldHM5qjGN9dUvrBuNyzGdRU/OA9qfk8yQzKP8cmbiIoOLoqUUZZuW+gLTkfinhloN6gmQB4mWBYOH7v385z9fnHHGGc9I84ZsiHjvJDDD9CVJxIgwbIirX/BmmnupYmbiBkQW5Mn7YnEVitt5UUOtNJg0HtKGo9S1tW0C0qrvVazDEtO+YXFdc+jg1UAuWIy47JiuBFAs0Z8H5kZc0xKSkAw8x2WDlWVtpXdp3aZONhWTBxwyT8BpqgXoGjJrnj7paesGlGtjkaeZEdyzfmFxpbvLKyy6BGMm8aMOepZsWRlzIy65IDZn280+lNVpqHIQXifWkZclU0zDu1/twdBdg/WXrPj617+eHkclXGZgkQB1UZEy4n59hlw48sgjk+VdBvhABg9fQ5huHpgbcTkDpgNkWdbIBlrOwDElkS+cgOjkuo6mIVVtLTp2OwsUpksV077CdZIk5QEW0sERiPt172YcpFmpzmGRMAurLcYL/VO+traYG3GBdUNcxFnW+icNY3STLSRLXEMdaYWhrCcLa9tXkAjqGqxrIx1sTBL7OdTNIoG4Z0ZFwH9Z/oe+sBi0zUqHJsyVuEjDKZKlEoZaRkOxsBqKlopMWRNiJa0DCfoMWtx1nnvuucVnPvOZVOfgZwhJMIsFWxRcl76Ydyx5bnfqAuOQrTnwwAPnpmemgXNO6r3Ou3yxKygoF+s97bTTUqUZLazdm+DerMYgOboEaWIVhyKssq8xD8x1iEbj0VOmBta3y+IbU5Hwj4O1Z0Wrh072KmYrksBzn2f5YhdARAMutoJCSvsvuC/aNxwzBevujcyQjfOZrmC2M/PZK9jsS7KtNLimRatVvqvB6CIbVDxxJNosOGwD2tpyFzpbxyFp9SAPdLCUqqosmlEcd16WoAsEKbUtp1KkASk4xwiDJAp53JfBSRuz0F06oBxjxssWqwgcxJ0XeTd4qhEW0mMcCtbsq1/9amq0LqAmgWPGi9VQTaEtt6xj1SY4vB8Sccug6Xnr7tvAde9mHvfDwnI8HUJpK60SnjfItQ984AMpDCc0OW/9vTDisggWGqo5tVRFIy664WSHWB3WXmhotZgsi7TSLjFDgvsWRTF46XzdSrub7apbRy0SQm/i+XZhP/bYY9Pst4is3cKIG6C/TMdy711JhhHLA2tvw5WPfexjxfve9751v50/Fh4/oW94lV07aiOWA9ZeRElkaZFYKHEZcyERXqWlM31bRjJivlCPzSGzoaDY7SIn84UTl5PEeeBdKiDuY5B8xOwQLYiHtXASRTcGS9wIf3CWSAYFOLaRp4NG5AP9K5rB0joiYzmv0FcdFk5ciFy5EekJNJb5LCOrNmL+iESDXRfJBBIBkcNoLQqdztsctIMPPjgt4nODi7yxEd1AjJaVtTm1+ueupGCnxEVUkQWbKlvm4z0NPGK4IBFIQGn2LldZdEpcMLWoHlOf2bc1aiMmB5Jytu3HxtJ2bYQ6J66bk1mxIzgPVHX+GGkYFsyc6q09LdOjr5Qs0rULzmU9A0tjDPIasXbeJupHDAfi8ocddlhKLEkxd0nYwNKIq+xQ+aMog9K3PqxEHbEyVP2pc1ZAc+ihhy41OrTwWoVJYMt6a6m++MUvptK78tqpEf0AOSeCoHiGPJAJLUOfLToEVkYvxKU4oD0QaN5lrUQdsTKEMskDh/dV49IlaWEhheTTgrBXlhcb5ymMVuw9pFUJuULf2KOCMy3rKYKg/iRIWn3tCr2QCmV4RNNVV12VNn+z6fEoG5YH8kDUx2NbPf1HdiyAqMuMBvUuDmXJhxivUEv5EaEjuofSRMVRDiEvRI2jawtbRS+kQhmWokhKCGhrIHsfWDlhNcM8duwesTpEdxBVXa2oj7Cl8GUQNo5londSoQzrpG644Ya0bs3aMJt3jNJhcUBGBVHClGvWrEmPqrKRIUS794G00GviWoZtNa6l2FaqxmP1+7IxXU6Q0eQcS8OztGK15b2+0CRIOxJ3ApAIVgzfcsst6RFOnpVw3333pX0RRB16fvmDAFmGpKyr6IEYraIZsq3avuRCH9B74pbB+no6o40w7BmL0GPIrD1YTpY2CCu5EMvb+45BEZejZsn17bffnnZmsYuLbZS63C8gJ1jOLtSlwosDJl7LMe7TczyaMCjiBuzgIt67du3atOEx6WBfrJHAq0NCQciRFBDuCgfMQkfWtw/6dRIMkrggNGYzD/s22DvWbjkI7fdD3plmEUDGiL9KKAhxSd2Kl8tYxtafQ8Jgieuyw3HztBwEtrO4vbI8P8E+YSP+C5V4KrmUI5IE9lfzMxIPycqWMVjiQly67Z7skmObJ8QVefDA59h+aLWtmHIEK8qaKvimXYW5PINBWaKfkTkSCkPEoIkrKB6XrxO8Z2mFzjw7wcGRIynIh/Lnc4V2QFrZL1ZVkb7wlppnzlgQNRIKPj9EDN7ixhEdgqAqy+wLKwLBefO0SDW/tp/POXkh7mpFAmeLJLC2jxPG6pIF/g59y4K1waCJC0FcKHeE34kyIK90MQKLRJAPsW8vgg9pJ/IqEJFlRUrkRFrbXHk0lIPFFd6qOl+IO2TSwuCJOwloXARV64DEkhccODt1I3ZICK/xvo9ANCQMbSrjxaKqkbW3we67755+RlZOV87IlrhuK27NKwmBwPQuh43VRVwHWSGRITqhBriP8WBEVMDNijpUa0nTsrAOVletgXVhZQs7dMvahPWCuIFwRPweiaWQWVwk9mq9GwIjssPG1Cy1tLLPy9wtMsUsY2X6D6uKhKFP40BaRGVtQyJI0ZYtbPneR+JmDPIAKYXVvBdK49ApqUTeeH4EqcFil4kB8X7SpgwilQnlvUosJJTdEq5CSsX0DjFYEoCmjVDW+oyRuE9BE4S2dbCyEhskhfexBo5lVpXmZwey+z+ELx91cWMWkUVlTVlVR/lnpCQFhKzEX/0c6/BY19CtZY27PmMkbgXV5kBMRERU1tZzI2JVRljoMmFJiTo5gXRBvJAEQVyvrGiQ1XtW1+9H1GMkbgVheQOTWDef93/gNb7D4X/j/72OFnM+GIlbQbU5JiVY+f9WatIykUe0x0jcEYPE+u2ajhgsRuKOGCRG4o4YJEbijhgkRuKOGCCK4v8BCXZMy8vTf64AAAAASUVORK5CYII=;fontColor=#FFFFFF;align=left;" parent="1" vertex="1">
          <mxGeometry x="764" y="150" width="56.06" height="62.75" as="geometry" />
        </mxCell>
        <mxCell id="qElc-rtGXhzsWFZlQuVK-13" value="" style="shape=image;verticalLabelPosition=bottom;labelBackgroundColor=default;verticalAlign=top;aspect=fixed;imageAspect=0;image=data:image/png,iVBORw0KGgoAAAANSUhEUgAAAI4AAACBCAYAAAAWq4LdAAAAAXNSR0IArs4c6QAAAARnQU1BAACxjwv8YQUAAAAJcEhZcwAAFiUAABYlAUlSJPAAABV5SURBVHhe7Z0JfFTVvcf/SFiyESCbCVlJAiEiyg7Koiwqi0EFRcAFEK27r63ta7Va+7DW1r7WutA+bZVKEVAigoAKsljKIlIphtWshCyEEEIgIRgB3/md3DtzMpmZzL1zZ+69M/fbD83MmGXmzm/O+e+nw/cMsrBQyGXSVwsLRVjCsVCFJRwLVVjCsVBFUBvHl9gr/479H/6BTpd1oBD2UerYoQO/b+GaoBPOuqNnaT3790lZAxWfaZYebU16t850Q3IETUmNpJvTIqVHLUSCQjg1TRfolfxaeutQHVU2XpAe9YyMqM70zJA4urdvd+kRCxDwwln6zWl6fFsVnfr2ovRIaxLDQyg1sjPbtr6novpmOnne+fcNjOlKeTel8NXIIoCF0/jdJbp7UzmtKj4jPdLCoNhQmpHRjUYnhNOohDDpUTtYnbZWNtLqkrNcdCLdOl9Gb49Lott6d5MeCV4CUjjYjqasK6X/nDwvPUI0JjGcXh2dQAOiu0qPtM9ptkq99J+T9MK/a6RHWvjFkFhaOCxeuhecBJxwTrAVY0ReMZUIhu/rYxLp4f49pXvKwRZ2+6dltFcQ4qysKHp3YrJ0L/gIKOFghRi9qoT2n2p5g7G1rJ6UStf1Cuf3vWUGE09ekX3r81aQZiaghHPT2lL6lLnZoGvHDrRjegY3arXiIrtUuevLuDsP8Df2zcykPt278PvBRMBEjv9+5LRNNGAl84C0FA1AYBCeVU6PFqGcv/g93cMM8GAkIITTwDyox7dVSveInhgQzYN3vgCrzHs3pkj3iL6obqIlTLTBhqG3qt0nmriRW33uAp1uvkgpEZ34tnAl84wiO9k1//r+U/ToP1uEg+85PDuLQpE78CE/2XGcfs88LpAQFkKVc7P57WDBcMJBSmBZQT3/CmPXFVexbeiOjCi6IzOKpq47SkdOf8sf//PYRHrwCs8N1q9qmmhVyRnaVN5I5Q3f0TH2T6Z7l46UyETRr2cXmpbWjcdvwiXBnmm+RMPziuhwXcvfXToxiWZnBU902TDCefNgHf3mq5pWbrRSort2pJPz+0n33AOhPbC1kv5Z2Sg90j4Q0gvD4+lB5knJaVDEit4rrKd9tedp3ZRU6dHAR3fhYBuav6XC5qmIxDAhDIsPo2S2/cSHhvAYzXH2/XizSs+2FdhPB8bQb0deLt1zzf+yLeZJttWIwJDuy4ze9MjO1JnZMQB/D4nQ7VXnuB0lM4I9pw8npVA8W41kEKmWV6NgQFfh4FM/bnVJm8QjjNsH2HYjey/OQHZ70f5a+qjULrgjzLZpzzWev7mC3j5cJ90jem5oHD16ZTRfrdyx8VgD/Wj7cVuMqFd4J9qQm+b2OQYyugknny3t1zPR1ApJxbv6dKcXR8bzN8VTjp79jv647yQV1De3u1U8zAzoPzNDGvRlAlvLvj8zSlnS8r93Hqff7bUbxXtuz+SJ0mBDF+Eg/jFgeQF/swGWeLzpYxO1ifA6A6sMVhsAw3rztHTqyWwWNYhb3dC4UNo9I4PfDiZ02ZThysqiCWNu86bcdJ+KpvnS9/T0rmp+G2JZMzlVtWjAj6+OsXlQX55ooveL6vltUNFo98oCGb8LZx8zbF/Lr5XuId+TQMPjQ6V7vuGvzGOrYkY1eJX9PcR6vOXN6xPpcsk4XrjHnj3fwGyh2LcOMY+tghvVgYrfhfNz6ZMPUJY5N7uHdM93/F0yhuE5aRVrwUr5q2Fx/Dbsta/ZPzCPvZ6ITh15eGHUqmKasKY0IFchvwoHHsnHZXYv6NXRidIt3wH3HRFoMD0jin/VilvS7QVdH5bYs+bPDo2VbhFtKm+gK5YV0uYKz+NFZsCvwkFVnQxqeFMjvd8y2uOLavt2MU6j8gqZuNAQmzuOnJUMVh3ElJDXAvXNF2k88yBFcZkdzYWDC/irL09wDwZlDtd9WMIv2m/31lCeYERO8lES0pGaJru7n6jAzfcU2Z0/6hCQRCDywKysVhWHszYca1WVaGY0cccRNX1tfy0tyj9FZUKuxx018/vxyLCvQSISXhyoX5DDi7u0BMlVJFmRjqi7r2264yy7NqOZrQOnAPgrCetrvH72K4vOUPI7R+hnO6s9Fk0W+5T6QzRA6rXj+KLPLuSyll8qN/U5giz++ilpFNW55fXiGi2SgpBmxivhPMe2JNTi1glZbITu72b2y59GJfCg3pZp6fT2uF50rdBRcM3lbbsLAhlEll+6xp5DQwE8gqBmRrVwXtp7ktsyMlhFUFqA7PQ745Po8QHRNJnZMaj3hcv9r1t7U+MDOfTJ1DR6qH+09FPBw/05PXiaAyCxu8bkhrIq4aBW5qc77dllrCBf3p7RbowEsY8bUyJ8HvAzKk9eHSPdIlri0LNlNhQL51u2xD78ub1ME7maTWw7kvdwC9fc2rubrY4H9dEuzCJToFg4SBfIRjDiGBtuTrPFKyzcA/sPCVYAY/qQVD1oRhQL5x2hMPs3I+K5G2rhOVcJcR05TWFGFAkHtTPyi0UpxOw+1gQHpYhBSKRDzIoi4aCUUgbzY6wtSjniCn3yfJAIp77ZXneLOmAzIErbnczRF76m9CwvwcCQgT99Xcu7LT6vbGwVp/KWU0LFo6NDgQi0q2FPRkORcMToaHeTe1GoWf6vf1XRoPcKqcOi/fzrtPVH6f6tFfT0F9X8v83eeIzn2nr+7RAlLj5Mt3xcxktPxRYapYhF9mKSF605T2yrogErCun/Dhg/sqxIOOEh9s+slp9CXyKmGVA3g7rjiDcP0qS1pXxVESdQuAOFYKtLzvCfT3nnCK+1QdsxwhNKkIvdgSicZ3ef4L3pyPs9+Hkl3fVZOb9vVBQlOb85/S31fbeA30YtyqpJ9lZYo4LCchSYOwMG/sj4MB7dRhDzeidlFxhxsq2qkXZVN9Fn5Q38vjPwuxruz5HuOQerCvJ6APZh7X39eFAUoG7n3k0VrYq+JiRF0OrJKbbvMRKKnpFo13x6rMEU+ZYwYZWUmZQSSStvTOFv9MbcNHp6cKxT0QDMAETK5C9jE6lwTh86NCuLR4ARwxIZFBPa7haGjlGZqWmRrQQxnonkIPvducKwSggV26MRr7Ii4aAUAJOtQNOFS7Si0F5fYzQwkg3b0WPMbpD54VXRVH5vX1o/NZWmZ6gbx5bdowtPWFbPy6YlE5Js2w1Wpf7LC9qMjhOR22rA7U6qEVHysWpSaqtBlejnWrjHnhM0CorXwPv62WuEn2FGpBGBZzI8r5gbwAAr5bZbe9Mfrk1Q1LPVHugD+3pmFu9fB+gnv+2TMp4AdgQJYWxVAM9H/hlHUKWxeHwSPZBj73//JbN/4N0ZCcXCuYd9GobEtSQpsTTDCzESKJgSR7lhW8LwI2eDIgEcRRi+/65pamW4egpWiRU3JPNhBzJIAP9ou32lgwH+vDBH8Pnh7c8PXDQ2oVUpyrzNFYoNcV+iqgIQrbuD3y/iHgB4YUQ8/XyQvUBbL9DVOeT9Qj5yFpbNs0PjeIuvI/BWVhWf5dsK6oDPsW0X4GfK781W3ZkJgUxdV2praUYXxLND4iibORTyNA10Wnx1Rya/3R7wXK9YVmBr7fG0N94fqC4dhWsKw01mQU4P3rWgVzQZF3n4yiJbo98/mP0xxyElghf6xoFT9Gv26XdmyKKar/iuPl4FNyEauOryigc7CBH3H28/zpOcX87IUDQrGVl01G4DPL/ye/q2GnagF17VHIsDjQAMRdgReswBvnn9UVorDSDAWFoMEhDBtIk5G4/x6LAMylcnJkfQ0LgwSmPPHdMqtBgiANEMYyKWh22jxhi1z/OZdzZSRfXjzA3H+CgV8DO2siO5rDdeF6vDs7qTvTCRJPaJnZ0V5beCbMym+VDyZuAtwdUWQcT72g+KebsuQB3wr9nFf6R/NDdGfYG4UgxjNuEuttKo/VPoHBmRV8RvI9dVyTxDvYvdvRYOwFSqR5nbiyCWHuANwYvA9Igjc/q0GvMGxCkViJdgG5Pbd33Jgi0V9LdDLV2kr7BV8DGHVVAJWMFk4aP3Xe/DSTSRLWIbn+Wm8QkQGKPm7z1YVv7LoxLaiAaffFk0uNgI+PlDNOD311xuy4ajvxzDD9QC119G3pL1RJMVxxmFzEjFfD14E77yIs9fvER/3FdLzewPIPIL4YrAe8pZVshTJYjfwNaIcBCWr4FoseIBbwZqi+kKvBYEMvXEZ8LxBwi0yUXzu6ZntCmCxyEeSBaCN6/rxT0/PUhlbzjKbZG+QNpCLVcuL7TFmk7My6ZYh7SHP9HXwvISOeUBwTjrnECzIMAFnputX7XiQ9IqgwSpNy3AA2PtZaf7T+lbr2xa4SAOg2gvuKdv25UE2xTaeMD03t1sHZd6APtE/usrhf55pSCRKnNQ50J30wpHnPzgLG6ESju58GxwrGd9XEhUIik6Zd1RmrOxnI9sk6PK3oDwBM7JAs6mq3oKfo8Mmvr0xJDCkVMZ7pDHiiBg58xLEodS9vSgTx2u85hVJbz9B2/uuwWn+Zy/9CXfcEPfW+SyDcScXPWZO2N5QT1/rchTxYbaX8eZZn0L6QwnnB9ur2JvWvvL+W5p7o2ccHUkhtk18vYktqQ4A1FZOd7iCNIFKCH1FnnVg2bkLdYTPik7y4N/YW8c4OKWQSZeTwwlHIx5e5m517hY7SHnpFzNNUY6IX9mJuXfmcm9GXfItpArEHgTVzA1iGNxDygwbKemtWzDEJy48i0+XMcToBA10hn+LnI3jHCe31NDL37VUnqA6sILbpZz8WBWcd93BIHJ/j3drzbAk3IFb2usewvCUWKfTE6NcHoOOp4xDGR0YiBxG9PVv665IYSDVeaZ3faiMNg4O4URbI6I+7sWLyA33X34HuJTOkjbEYzHlbdOJY14KC91d8JfD/Z7MeFd64FR7aG7cBBZhV3jiFy954yLwvauxU5/Z2Z3PrfPGTC8l92QJN3zDpxHATClSwmu8lJdOnbgM4jSIr0TtRp0FQ4OkJfD8Y6Ip905EiakDcTDOdSCheCtcb344GsRPI5IryfbnSfIz1VsM/IEsYBdZOmEZFVlGlqgm3CQDhC9BEfgeaDg3BliIrNew/4uxwRpB/Y/LU+EwfRR0E1hMyMKv/o51AmhulBtwb0W6CIcxCUwlbQ9kxRTyp2BRKV82ovsXRkd+UA0oKY0VdyuMMAKJal6ootwkFeqW9CPz9ZBrbKrPdqdnZPTo2X7OKCiwFwP8oXnmaNi60MfFsDWtHh8L35bT3QRDoC3gLJNFLpPE7waTMFAQTesAExhd7UqYRIYQIxFqbHpCscmu/gwZVuKO7YKk9XF2ceeMiohnP8cjOFOOubdZAxRVoFC7j/sa+lFwuBJTC3FeZxb2MVGqN7Z8CYE7XAWJ1g9OdWlAakEXAgc3CHHkBBcVNvx4AhSFxg4gHMeBsd25UFJZMtDmaGM1RNxniuYHePO9UYTpFHmIxtCOMgJIaEI0Gr7Aw8OY0WsJ+atQ7wNeVZWFL07MVn6L8ZjV/U5GplXLN1zDwx0TJ3HQbV6Gr/tYQj5isOyPY3QwtvJlQ7hQPTU3YnBerP4sOcTRrHtInc249MyGvJ+kaK8lj8xhHDEXJKSPI5YnIVjfowIclxq591ANBDP40L/u1EwhHD6RNljFEq8JLT3wpAGmHVjRF7+um0fuVJeza/lApJ7z42AIYTTP7qLbeQHSivlRjZPWCj1YWOujJjvMgIwfpG81QKsPletKPR4EJSvMYRwkP1FFhjAUl9b6npUiCNTmCF5U0rLz+JNQmeFUbhTgzoeEVQF5K4/aohpaIYQDpgmnDYHY1cJrwk969M+Lms1HVUv5m0upz1SA52WYLtC56zerrBhhINBQ/LJvEg1KBk5AuP6RWmKAy7s+NWlmgUF1YBTdZR4UkrB9cFZ63piGOGgRECM32CYkBKeGBBtC8tDdDd9VKpJ5lwpCGSKp+r4iufY9fG2KtEbDCMc8Bh78ztL4fQPis+Q0gNQPxIiyDuOn6OJa0ptGWl/gOFJiIL7A6yov9TRGTCUcDA04CcD7TUxOLtb6YBKpB/gpgNEbK9eUeRzTwRvIgJ2/h5thzEz8hAnf2Mo4YCnBsfaWlvhzs7d1NLCq4QPJqXwZClAfgjDrzFazRerz5Ijp6nP0m8oT+oa9Tdo49EDQ/aOO077wvgyjDFTAvKUCL49tavaVoyOGp6nB8fRI1f2tG2JakHJx1O7juseV0FfGU4b9jeGHTogDhQAC4fF0y+GKJ8ziEkVC7ZU8i5NGQQbxyWF041sVcK4NxR8ewLsLhyJCNvLm7H8WoP5yI4Vgr7G0NMqfrC1kt44aM/z4FzLV1TOGUSpKoxXsRJPBtM9cV4mxrnhWCDMAEQLMSZM4DxxfN1WdU7TMlUtwXhbcTayPzC0cPDEUJeMonYZtKn8Y0Ky6nM9H/q8kv5igkM2lIDB35i96E8MZxyLYF356/W9Wg2CRDfj8kJ1BiGKtAJNNCC/1v+TKwy94oigtxsTTlEBV3p3X1UNaPKAo0AD1wTltwNjQmlmZlSrU2l8hWmEA/YxD+YwM3ZxcZSCeh3EhYIB2GxoAkAC2FeYSjjekLOswNSn7qoBDYYYYOkLDG3jaAWy1MEmGoA6bsz88UVOKyCFg5NW0I6Cr5ioJU5TDzYQvxq3ukSTyWIiAbFVYYgk6nrRIersAiHAZ4TiJz1ByxFaj7TC1MLBVNEnd1TxU2Ms2geds2iC1ALTCkccs2/hGSPiw2jn9N7SPe8wpY0zYU2pJRoVoMxk53HXA6uUYDrhPMJWGr0OGwkEXA3JVIqphIOyzEXWSuMVWnmYphKOP2p5Ax0Mq9IirmMa4WAiqd6zfQOFmvPel5uaRjh5bs7ztlBGXbCsOAjq+aK5LVhRciSAK0whnL01xuiXDhS02PBNIZzKc1ZkWEvCOnr/tptCOOEGGV8WKER1CRLheHJskIXnoCDfW0whHK0mm1sQLyt1HASuBlMIBwOxxyS6nsZp4Tm50jFG3mIK4YB5Oh7GGkhgqocWmEY4c7N78PO2LdSDsb7tHfrmKaYRDvjdNS3z/izU8T/DtLt+phIODr+Q5/1ZKOP1MYleH9YmYirhANTNorfbwnMwbOph6dB8rTCdcDA7Z8dtvW3zjS3cg1Uaw6a0xnTCATjAdcst6a16yi3a8hBbZZZO1K6zQcT07TFoC8Zg7I+CuHfKkbGJ4byL09VZnloQMC3AOHcb7TKbKxroSF0zH+FmBtDnHeLkeGilxIeF8IP54TwMkg7H9yUBIxwL/2JKG8dCfyzhWKjCEo6FKizhWKjCEo6FKizhWKjCEo6FKizhWKjCEo6FKizhWKjCEo6FCoj+H9C2TDoGVPk/AAAAAElFTkSuQmCC;" parent="1" vertex="1">
          <mxGeometry x="604.99" y="370" width="33.03" height="30" as="geometry" />
        </mxCell>
        <mxCell id="qElc-rtGXhzsWFZlQuVK-14" value="" style="shape=image;verticalLabelPosition=bottom;labelBackgroundColor=default;verticalAlign=top;aspect=fixed;imageAspect=0;image=data:image/png,iVBORw0KGgoAAAANSUhEUgAAAJEAAACUCAYAAACTFcuQAAAAAXNSR0IArs4c6QAAAARnQU1BAACxjwv8YQUAAAAJcEhZcwAAFiUAABYlAUlSJPAAAD7RSURBVHhe7b15kGTJfR72vbOO7q6+pqfnvnZmr1nsgcUuFje0IMgFQRAiKQVFhihRCjpkBm3/oQg6GP7HEYrwH7LMsKWwwpIlihQZpmXdpkECJAEeWCz2xB5Y7DWzc989M313Xe/y9+Wr11VdXdVd1d0zuxDq68mpqvfy5cvjy9+RmS+flRAYYIBtwG58DjDAljEg0QDbxoBEA2wbAxINsG0MSDTAtjEg0QDbxoBEA2wbAxINsG0MSDTAtjEg0QDbxoBEA2wbAxINsG10nYANwwhzi8vwHAvFQh6e58GyrMbZAQZooiuJKrU6zl2eQZjYyOUKKORs5H0XOceG4wCe6zI4sO2BMPtRR1cSLVfqeOvMdZy6Wcf15RhDqGJPycX0eAGjeRtT4yMYHx0eSKgBupOoHkSYmVvCS+eX8PqVMgouMOQ7KFIiuYiRz3kYKvgY9W2MDnkYLboY88HjPiVXbkCsHyF0JZEOh2GIF87M4fmzCwjsHBJYPB4j4HGdd8mTcT/BxIiPXcM+JgsWhkmsYp5E8mz41HsO1R8jN1LdAcQREAVAUOH3uHFwgK1C7Wg5LoZGx+FSq2wFXUkk6NT7V+bw5sU5nFvxUYlS6ZJdol8SODb/c2yLn4AT15GzAkyNeJgsFSmlcgiDYPWa7SKplYGVOVi3ztL6J5EG2BYCOlB+YQQPfPLzGCGRtqJBNiSRMLewjHMzS/jOhTIW6jYsW2xtvaT1pmQ1JZVDdVfwLIyO5FAq5BAnlB4SGjtBpIhSsLKI4PppWBdfgXP9TZKpTAPfpdTzmYPNpRPp3viWIjHl2Sxvlvlrxcb3uvvxhV7LomYPoirmb4bwhg7iy7/+P2Dq6DHWIb2mPrEpiQJKkZmFMr7x9gxulm2EyPFo6yVrSdT8HVO10W6iajPgbcyZzcrXA+Kghvrty8D7fw779Ldg3z4HL6zDtUlfWzdg5VudbsRqp7cJhVYorhUzax0azSSTXrO20dhcFjtHh/sYkpr7bCc+oTwx6Np1SJy0LC3Q1Ypv7rMOKjvJw2+yCIIwQK22hFtX2aKlB/C3/vnvYP/Jk3eGRMLCSg3PnprB+bkY83Va2J0KtQ4kUd7DMA1wwdQPRaUV93LtZlBz0zZbuYn4xrvwXv4D5GZOw6svICKREjvkrcJG3CbkElgMkSqzJRs2G9Zm5UegrbWubDbjsgzriBfzHorfTjyqdniUvjZDCyn6jC+t4jBftEx5xfqyJAnbQflqYLP4zbLTGqhWsVJeQWV5CeWlEOP7HsDf/Mf/GnvvPbmlIZuerpCRfM9EjoazJFOdhOBlCqswDGkJTWT1Ys6w5RIaTiasjdYnZH85cAsT8KYfgPPEz6H+4BexPHHMEMGi4W1HjglWrIr2Gd9nRbOXGZ3PoM+WYLE8juWZeGuDKl/lbYnL/Dv8tCO7cR+XMdJrlYbSao1vrmEMpdWefhbflk0pozK7ppFH5bn9mjSQRFncTeKr/DEJFJC/y5UAlWpI75tt4+RpVLN+lF1dv0W0MqErPHpY+8fzmCiqz7SzvNvNVSh9ND7VwbNO3np8q2Baju3DHdoN+9iTiO/9DMIjTyCaPIzEHYYEkc3ebUnsm16oz7S4Wb2vhvSoiUMqrQnmOkZqjU/ZxEDIOwwZ+NkaP02rGT8NafomGFWUBpZiNX4qEZvXCIZ8jNMedEUz7e7xTX4otQKKoHItoASqosJPZRuyb2lLbhc9kUh6cmRkBJPDeYznExKJStXog0bO+4BRZxmZdgTS8x48iuTc419F9MjfQDB9P8V2jT2NVeqyGtk4WU71qd9uS1DDdUO3+BrqiJIKgmTFfOp3KxSn9ZosD6q2kGI4C1Gc2ilC671a89wJ3dLvhkqlhtkFqi9qkoBGUcS7KuxEU/RkE2W4NDOPd6/O463bLpaDRpb1kXUDQcmZJJOGYU1xbY6lpw2y6DymMacgCFkg9e/N0KmaGlfJoIzqiJcX4F/5PrxLLwFXXoVXm4WXBGws9ReTWRO9K9pPK3kei+MaPcOabgMrN4ZoaC9qlHqWn4cXLMK69DJsGvyWnU+v6wIl11rjRoqYb2rQ9ERDjpnv24Wat8aOW6YaK1cDqrW1xKktVTExfRS/9L/+Lvbc++CWbKK+SLSysoIrsyv45hmyuqrS84bmno0k9NFCmOGC25lELajUajT06g0SbVZ57eeaiSbsiWmLuPDKs3BvvQ+c+hPkbr4Df/kq4sqSiW4Z8d2aTltvNB1CgUfN0ESEmJI4YeUmLu0qtwSUDiGePIHKvkfgFIbhV24Ab/4/9BIvwK1UUhXR2rGITfs862gNidqub0dKtCZa00/PpP/HTLcaMtQj1PkpErViJ0jU1xXFYhHjpRHTs60kpLpI9bkKEPO3qfTeOWkQ8fpADWQKvVloR/Oc3F2LqsGKIoT5MdT2P4bwqf8KtQd+GtWRI8wW80dpokpthX5LFWVB+TcOgLF3qKbCRdSjMurD+xAd+XGEn/hVBJ/7b1H/xC8jOfpp1Pc9juXDn0L94b+OZNe9SOoi61oXW/XTeo+OgX8Zthu/vYyCjuiqO4G+SCTjMO87uG/SxZ4hGnDGDFASGkORAaffGXrNMElg3OduROkfqtSYRkNYGEHt8OOoPvLXEBz/KUSlw1RLZVZ01shpHmXQurTEE50jCZKgSjU1imTP44gf+htIPv33Scj/GtWHSMj9j6Ba2ou6P4TIcXkfBzEN+freJ1A/+ElEUw9SKrJipP4ydGjU7UIKpEmcTunv/D27oW/ZlXNtHJ8uYmrIZS+VaSZkA3EZCXQ0C5uAxqUGwXaKQCnU59gjKSnjsUMIKTFqJ76C4NCngPFDxuBOEtpPcd18kjXkMa/IjyIePYB4932IDj2B8PgXEDxAY/3kzyI6we/7HkYwsgehRwKxzKZ0bECLbnQ8fAAhpVJw5FMICiWESs9i+szHnYGRP+avp3pehTTHztZ33yTyPUqhqQkUCz5qEvfsCWvRb6F2GjFJyYJRtZlxnJj2iT+B8onPInj8l4CP/CJi30cUziMOF4y6CsMl0CRGbYrShOeDz/591D77ayg/8rNYOfBR1HIlkobVHoWpyjRDB2nVqfMYp1rVMP0AwpPPYJkkrBRyJNIyc0MJ94HWx1rE1CYa59PnTqFvEgkyvqZLHo7v8pFnj9N82dZxp0nHtJk/yk3ExSnUDj6F8MlfBe79KpypR4HjX0b4+N9D/dO/jujRX0Bw9LOo7zqOen4ckZsjS1jZUhfKYsexACPzzLfYJjlH9sK7/6uwph+jRygDm2p+BxusN5C2q+qutX7b87Ez+doSiYSRnIWpog3XzFW1hq1gq9dtjlTgU/lQdcVeDvWxwwhP/ASie7+C6PgziO6jmnvwZ1K1dViDlUcR5sYpRbRqivnSRNNqJ1lf6aJQFhQr8kaAQ0/BOvAJYOw+qk4SqeX6tWr/ziEtd/rXRKbI0k/93glsmUSxxnbonmvsViaNZp5SKHtbTvYOQBVFNx0aIwkQkfQ1fwTLxz6F+Sf/NpbufRq1Xfew8fMU8WZGjoFqi5cprFa0PtYJXB1USNPXvJVURU1S7OjnYT/880hcysC4amJryYyZ4rjrkqkJaY0s7BT6bu2ILvTCwgKuLtRxccWh+8vMxFJpKcdTNCq+J7Red3eQsBETelWQlFhVV6rU9nx3KtNG+W2cY3qhVOe+x2Cd/Kuwpk7QnqL9qDRWL12bhpFRGndrgaUxG5M/kjsqA+EyrEbQdx0LWP8f9Nq8vkkUhDGuza7g6mIdc3WHpBKB0kpoVkx7Y2yGtRW6PWT52CSIOKp9BUMiHl4XT2j/3Qlt59Xobh7h6CEE9/wY4r0fRVwY4wmqParHtHaadaQhBiuJSLQ6DfeA0bSIr2GQ2x4SeoNJfgTxyG6qyCPArhOIpx9ETG8x2vcoktI+2FmHWEW3/KbKLAvd4/WOvklUJYnevVnD9UXjr6RBmW/rRR8csorZqSBkn2r4ZuOn6BRfxKSKo11VnrgX5YN0+w88RQnI45JILapEVSe70qbKS6oLsIJFXsoQrzCEPDkEDB9ANPUY4qO04R79W4g+/t8g+exvIH76f4T99H8P997Pw/eLJGOzDYzqXM1PE5l3loVmnreOvqY9FpfLuHS7jO9cTjBbjoxqM5Wa9QCTVLOis0VpG017LFcDLNe0MmD7hfnwQIVtlscu34Jz9U34r/wO3NlTVEdlWlF5EiQHy8/BppRJ8iXEtKWcoSl+Fmjc0zN0xwF/jA7BCALfgZUbYhiF5Q3ThqN0orRzKb38U9+A94P/hOT220ybEo1eYmZ3af1QjR2/Uo/5SfPfHG/mrb5YweT04bszd6Zo56/P4a0ri3hneQSVIIbNAqxnh36nx3onkRZrfVgk2U6DDaYeTyJ5r/97+DffhF29hcDdhcQvAPkirMIo4qFdrLBpeMN7qfqGEfo09EmWxCky+HQItABI6dnss/QcLa2TckiiGvwLL8B/7w9hn/lDWLUKVRvJxnuKL9LW0h6VemTIlEqfJuqLmju7SySKmZvnT9/Cd9+fQ90psDyaNzNnGLIklAF9T38PSJSBioWqya4vwFu+CScooz52jHZT0ZyNnYYjrtF7ixLHEID2ppN6voaIBorVlCKCbKn83CXkL74AvPRPWKFzKYkaRrnm0WqUQhmJ2lFbqpFER+78BGy1HuLs1TlcXwoaBEq1rUZq1yM9k36uLfCPLkgSzbH5JQSj+1GbIIFyNLQ9ShmP0sih6qK0gUMjmo0o7zFm1aX9rrUO2+tTnZMqipIsGj8I5CZJoHQNvLG7epIPvcTZGJuSSBKoXK3j1I0lkihkr6EYbejbJvQ7OyaCZSTqFf3E/eFFQk9Lg5EhCWTIYhpQDZ6SIYM5mh0zxzuE1fMWIhrVwcgUvbRDSHIl4+Gl0l+B0ddg57yyDJuSqF6vY365ivdnI9ws0+1MqHpsWfhSZBKPWYbSIAL1R6Ls2h8FqEXToMHZNGTmQBYysKljGsly/TsGzeNFhowRyVmnlKvveRgJbSsrKrNGU32RDpg28YHMnV2dr+EHV5dQi7XI3E0ztfrERlsOze90CkCfvUHXtKfzYQYrXw3QcR6tX7SWvTW97DiDpInquz3oeANm8NSlWpw6AQztRkKXzMybraaToT3PO1GGDUgkNaZF3VdmKzh7q4aAokdGlxmZNnlrzZyQZjj9a+1dvaDXeHcLLKOIIgPXfGc1md861U+5eoVJuBHasKqW2oPOpeeVJUu20MRh4+VFzK9OyagW39KI6Wd6l/SzeXx76EoiPV57/eYsrs2tYFbLi9PcEJ1Ulc5lIZVCeogw9Sx+CKGebVPqGk/JZZEV6I1S+mh+zXQSTcx+4GiovChm1jzEI9Ooj4yjnvONulKbyb1fbTrirs6daU3u6WvLuLkc0mkgyyWFGD376273pFyXxGrXxx8sMpK3QmQROSRp+BHV4FVuIz9/HkO3z8C/8Tasq6/DvvIa3Jl3kZu/CH/lGuxwMe0kMo5JMJNGo9xpuPuQbImtPJLiflijx5gN2kuxxvG6I23F7ee36zjR/FIV33r1HC6XXSw7Q8wQ2Wvo4zDDqcrS/90aR9LowzNineWxoZ4IjdtYJI1ZE11dhMXgVGfhVefgVpdgs/uGQZUSOV3m6nh5euIFhL6LMD+JcGgayE/AztMb8ocQauhDak/YwV6+OVQi/aX3ds4/C++9P4B37puI6FWHSMeiaoFGrJv5Ui2oNqps57FtjhN1JZE2uXrj9DWcnrNwtaInKCk2TVZp2a8SSOjCjp5JFDZIdKegG6c31zpwPU4suMEC3MUrCK+8ClyjxJk5BW/lfR6vwlnNb7OUBlIRrOPEm0BcPIRo30Pw9z8AZ/o+zI8fR6jBQ15rSQKYC+9kx8iw9h72whm4F59F/uXfQry4cFdI1PWKnOfgxIEJ7B71Upex0bvWEqgdylq/Fae0uqW3g2DlOFEV/uIlFN77U/gv/gvYz/8m3NP/DvaNF2GVL/O8lILH3PiUKgpU423BBiVSGMItX4PPxrLe+H1EL/wzeK/8LvIXXkSOkizdb+BuEGgt1MFzQ5Mo7jqK2B+G5XrwXVLlDmelK4m0H+OusSHsLXmYzEdgXli5DaOya8NvlRBbuWZj6Dk0BXkiWtVoL12Dc+01eGf+BO6pP4Rz+k8p+r8D9+a7cFeuww0rjCsDOoeEnk4z0M5ofELPrtt501sddix36TKsG28B559DjunlTv8xvAvPwancJJGoKj8Io9AfATT/NnwAFlWt9hjLunYrl7baUp2woexSZe0ruTg55SHvsjlYKbEtr6SdSPrUsWb4IL2zlEAkPIN2+/Bp93jnSJhX/gWs5/4hkvNfAyhJHHeMtBmj7CnqQWxW8toMG/WddWN9StSbgdbUe0vYYJbPNCi1Ckvn4b/z7+C88L/BvfUmpfcC47Cu7iKRpCUqVNlL7jiSXQ/DKu4ztqygUjQtwhQRyyFLd7vYkETC6EgR+6fHMZ6LkDfbtTQqcxMZ+UF6Z7q3w/bL15bhXXwJ9mu/D+vU1xHPnqVlJ/FOiSIHgRVsKrkln6rmtSsM+ZveV+cdxHTMyDrzmLacjlxlGfnX/gMl0muURvTa7mpPEmFot2lB3MQRRIVhHiozDymR1sGYw9tvpE1JpI08J0sFHBp1SCSpBvUukaj90rRC08D/+8rbDlS0GrmRLzuh+q0uIHfxVfjv/yWcM9+mi/4O7Aq9MNo1JrDBmwN3LZk1ZGkQyaRphA+hDRw07aMGWV847S9EIwBOQHvp4svwrr4Fb3mW9cD4m3S4nYRyZpFEzq4jSEbG2WlC9nmqdWZB57KcS9GL/p3K0i/amdARBRrZDx8YxsGSQ6NS61pUKa0Vk/3OQk/JNpBds02w0fVkhYJD1z1PqeO9/K/gvft1eIs0gsn9HA3mTmprHcQao7pEJFKDJNOcYV2PYWu1YSvpGpAHqgVg2nED4Qr8uTMoXnsDloYI1nW4nURrXtK6tL0cinuPwhvbg8jx4Wp3FGZBFq1gLMUdJHZPpdMOsMNDRewp5bF/2IKvZZ4dRWRaiA8Cpnq0udXiDTjv/hGcl/4PSoKrpExAm0XDE92hbVk82i++pdnvMpNZSENIFzlYpGu8iKRehl+rwg5WeJ+aIY2BCKaJUNaHBj9cJ4Hr0bNbvI7w8vfh1hcoGbc7DrbZtU0iSbpoumMFBdSKNK4bA49oG3hUR5KNpLBd9EQi2QO+72P3WAFHJgqpbaSKMwasCpAVolmY/rDV63hlIw92HMAr36YtQgP6/W/BvvwKUF9WjDXVpO/smCbI6JaEidhNo9yo2SAr3P0Awr2PIjz4MYYnER56AsGBjyHe/ziS6YcRjx1ERPc5pBuvIbY1w2xMU2rQdmhDVWeBubOwmAdNTWwJmUpV/ZjvjWBK0aSB+a1DgvLEjxq7j7a/sXedoHQWtdZ3pLU1s3V0HWzsBO0jdGOhjD/6/gxuVtkhXS3RVCIskElFBcrQz4j11lY2Zl6YkKutIHfjbTh/9g/ozs9QfNM1l7RsK57u4lNdWbxO9kK1voIgP41o/H5YJ55ANHocMb0aDJfINJdSJIYXVBHVawiX54CZ78E+/zLca2/DNzMmbEgFjQ2Ztk3gJ4xvuaiNnUDl6d9AMHkCsSZI+wHJY+bvaN9p0X9i++aYypMuERF90joz83lqADkJisP8aPS8eOs95M//BZJXfxvl2QVUgrxRafLIstH1YLGy7eWxfV3hug6Gcy6OlBJM5FsbJ/uuzyzcaTR6ERs5od2RXHgBeOPfwqvNmzHpdgKZhqaXJXMuDMqostHLhb2o3fdV1D/2K6h//O+idvRzCKcfRDRG1zg/SRd+HLE/gaBI26J0gJLoXkT36omLn0F88sfo3lPi0E5SJzFuv5EavC0byNxaBNhqXfAyTb0oITW7QzXqzF2Ae/l7KNBwd25fQFCvpuVU5NV7MWiKKopQK4xjefQwlmgN1nlYuZPs0l8GXbFd9EUiqbWC7+HY1DD2jnjMmuyANGurjbol9H6tBHO60CG9q0Mp4c68B4cVq4lSO6SqVS9rIVAGbSmjXhsURlGfegD1o59HcPwnER7/McSHniR5jlEF7EKS0wL5nOn9kiCRWySZRpAUeG6CkurQxxEdfQoxVaAxUnWv1SLwi0ikZ/BFZ7MSYGt1o7Ja1Tk4lCjuxb+gp/kN5N5jOPUN+Ke/Ae/8s3AXr8KpV0x5jTRSXhoh8oZRG2FHKe5lGeju3yH0RSIhl/Nwz6E9ODgxjBEaoq5RZUomI1IWekV/8bXRuks1pArWHFeuMofC219D/sqrZt4rjB16SWrAtdB4UBxVqGYiBLsfozT5RSSf/jXg2OeAEtUXU0x3+1BsDdvpj2qE//NqHUw/qUriwiSCXfejOrzPbDNjrBA1XAs0bRI7RdjaXW11lr8/xMyMTS/Tf+v/hffsP0D++f8Zxdd/G+6bv4fCd38To9/+n1C88iLcym0TP1Xv5itBAtIzs0h8SxtXDFOS8qjU2dqcbh99k0hQz5occnBkzEVeRqSpIGWtraJ4aCN7aCuQeRhKFtGuceS6X34N7g260ivXGzHawLzKY/epwuzibkQHP4/aR37OPOIc2pQya6SEvmchRapM1hLKGLO2Zx7roY6nV2duswqR0S5MwRq/B6GT7mXUWyUoZUkukllPhqhzvPnvkTv7bWCpzo6gZ80UKFVEXhH66huI5y+ba1O03celRJ08lu69xE5mStCS153AlkgkKB/pU5YbQOXpiUC9syymwRpZHpyonqqxs8/Srb8KixXUjjR3IgBFO6VHtOcxqq8v0ut6HNEw7RyeF0lW+6aiiw1riKXcNf9SqLEteLZ2bW0cysBOE+vVEXqObBdVn5c+HdMLFMsME9QX4d8+i9zpb5kRd2fhKtU076hJYEdPh9BAdjxTMsxfgUVprKtlbKeptEDSiB4l9Bg260x9WvUik8Coy0a07WDLJJotxzg/H6CiClNhDHonQxO6pvfrYkqPmJXo15bMDrH2u1+HXad6k/fSBknMhIZvaMdY2vMElrWNzP0/AcsrpRJyzX35XeSR2DIkys63B57jh0P1OBqV4cd1Y7TqjCBDN6QRHA1ru757KQk23k12LfQ0Xx252fMonH+BUpYEWpmFlSvBpy2ql/AYI573jpIAYVJPX0fRGEKQKk7VsZDSQxudeiO76QSUoL03lFERSKaAPM9mzreOvklUCyOcu7mESxSvizFFutHDWUbSjN9JOHFoxoNw+i9hzZ2B69MNVsO3QD1NKkEGr+yScOQw8MDTsPayURtFVl+U6mj8aJAn/dn8nR1gVbeUUzP+fnkW0fIsYr31SGhUgTy0OqVEuTCGldIu3j9dv9Qb0kTi2+8gOvctfePN2DlEeLnvLcTX9JPGuepju81Gp2lZVDbluZlvM+9XpKMwPI6I8cwqTCZhisj/tyxFWtBXGmqUai3E+zeWzK4gVV6eyqC0YOuwtjwboJdIjENiOGEZ3vwlOBe+C2v+Ilmlsar0ekMeE4//q8L1mPfQHiQHnkC8/2FW5JQpQzO/PWWuBfIM6W6TxDbdbVSXjVRYTcdIZQuxbKHxwwhoh6ReWg9oSD+rvsLOwXLdPmUelkiyJ2xMvltBN56ECCYOIh6e4O9G2bO8NKD8aMe3iAZ2TE/NbKfTQL+l74a+SKQNHJarNZy+uYyZpZbdUVfRVlDmcvM5mvUF7wimo15k1+bhz74H79qrwOINBIkWkaUVaAxSBaUnUa0G2X0vrAepxopTZgBQyAxlY1MIWSNl2V/9nR3g7Wlv6DUPei2FPXceuPK68RIdGtZmDEpRaZcpnnv0C3CnH6HtPcQLe6xixeP9NG1jRt4DqslAm2akeVgtVys8qsrpe+hd7m4caDuvIsTaDN02+yVZ40dTj221oDuDvkh0a7GMs9e0rzNFbMMGaY5Wt2dMDalzO5NhzYZ7tD+cW6dgXXqRjVljA3bu5TKAI9oC9ZGDqLPi4tE9TECNJNK0B+WPIctmRp7sdws0emyTmM6tt2Ffed68DFBGvhrFseX6j6I2cR+qBz6OcOyQqYJ2tdgNzdul33SJViVqADkdUEyh70m0gpidI3zwqwgmH6SXWOJV3Zx3tgEvtygVrdIefg8pDTRDsHPoiURSAXrv2Y25Gu2hKkkkN1RiViTJKqhDAXSoU7nWYfNIakCXUsihmLeuf5/tz8ow4y/rYTaIctj7dp9AOHEIYW6ER5lP0xhZpjrdk8fMqQ7nJAmlXlboCVGdWosX6e3Q7Vf5GV9PVsSlfagffAq1KTYwbSLjcGzOHwN1NhHHyRfJHo0xUSqZCWFKfKUd0z3XHkYiFb2t+KAGPD+HeGgv49KN71ieFEaKsg7sEXqo9CjNSwx3ED2RyDyPXy7j8nwNZ1mHNeYhJZAaUbXUqaZMa6RfN0QP8VS7JIaZob/9PqzZ05QC8lC6kUibfNJmOHwS8SSlkQiw7j4d8t2YZugISjJJgfr8NcSVBZNUuqBNBIqoesoIKB2i+7+EYJjGrpm/0ux9l/TawXS0SZU/uosSY4TSRapskSqS92LQdslxtIDIY5mPfwk49uNIdj1Iw5suf5pAI3SGTXLapQkEdET0sMFOoqfkyvUI37+8jGtLbEi6mmuH8TsRaC00MNhDtI1Btzm5+DyNzsvU65vYGqpLbfRUOkLPhO4tVY7pwR3z0FvG0iYK2aHmSZoK7SPeQrpGO+drIfM9zyA5+AkkpUme0/vW9EiSzm/cuE1oPZKF5TiH2oEvIHny1xEc+Qqq+59G9eAXEB7+IoJHfgn1T/4ayieeRm38COUcTQoSOX2IIrtP53tpeYpfLMEt7jNDHDuJDVoiRa1ex9xSBWdvVzFXjWHLDllDIkG/OzRGdphh42rscG0LbKoupzIP6H2vSzcMKbpdI4lj02NztMMYRX3ijzKq8rxpUTfEqjHKDiFVGTM9vc8k0QZVu08iuucLiKZPmq1itLLSNo3bUPdZ4U2Weaxr3lnfCW258fsRHP8y6vf+JOr3fQm1+54xnyF/R/f8FdpBx+nW02WnSWEEZzfp2YDJAg3qhHWC4gEa5CPsCH1IyU2wac0uLlGNXb+NmeUIKxvaYx0qRpmXFNoQOr9RHHo7GpdZvgnMnUFSudU43gmkECvU9YbhD00jKEwibIh7LYfd3qiI1A1TKUwgzpVQ0ysfwiXEu6jCHvrrKB/7DOqj+028FCqT7qmg7zzO61MvKzMDOiMkEWvjBxGcfAbBYz+D+qNfQf2hryDa/xis3CRbjeTh5atv3zLQl/VpGo5RbNbZ8SpOCeHIfqrEImKqX3luO4ENa1W20LW5Kk5dX0HAwjuuxwva7ZDWjLQWpFlCrbVZX7zeEZUXEM5fgVNfNr18M0SWj9AqNiQWjWGqF3mQKYm2SCRen2i0fIzGul7d8Mw/RP0n/xFqH/sV1PZ+lPpihOln5GiU2/zPU1rvvXiFjsEi6yJ730emgtqh4ymM9DPE02oAGxHTD0ACKWV2FrPYraMU0rHWwDqhytM6cGuEHlrhLqmzMIoxv1LDjZUIN6vsdVrSsKlUydASLytj9tkRG5yU6izTmp+7BJsSyVTaOnW6FnqpulzvtHhKm6Jb122Yh01g7ssGzE8inn4U0fGfQHjipxDu/xh7N9WmRpZNuRlM/kiGOo3ia6/COftn8PXW7Cs/AJZvN2yzbmVQJpsZTZVfmq4GLtUO5lpTnrVxN4SkjqZAJvbClufY42W9oCuJ9Mjt+VsrmCGBAn+CvTB9Bl+DdM2C7kRONkiHjWEGGGkPeXMXYIV1HkpVQtpQvaP7OEo/ZWiNq0UperxckoF/FHVmlWUjz2ZMafEyklf/Jexn/xe4z/1T2G/8AXDzrDmf2mgblUGkyeKk300bmGt1PstLb/WgWA6N68LUfrhDo/T80uM7ga4kCoMQl67NY26evZ8wa22UFUkj4231kHmW0ww29tNObdDjdQ7VgLdyG755ciFdktsZIhhDuAJUb5txFXNMXoxBqwrR51Yyll6Tdaj0LULpa8QlYbQov7R0AcW3/wP85/8JRm++j2HWgc8GzK/cgFuXJKqrYhh6qUPmP5EEytE1T4O27evVUdAdDLf5p1eml6Mc6rSrkhKlZ1/zet2xYU7MUxJxQAOS6sCo6gZ5TNBP/dcJjcbpuZ26pcPLZQPpCQvt2qGq2GQuSpWVaMPx2izsKoPey2r8+ywzrRnqKXNt4DWm/JoL5y+RgcnTCoMvklx9A97pP4H3/jfhXXoFPlWxy3s7VCVWoNcpqFNGhnBNmJQaQWkz0IaRLaXHndyZM3Cufh+O1pDPnzedSh6roPKaa7pCJFR6+mchoPcX5ugc0DZKbavti6SuJNK78O/bO4ypYaqz1bW8LcjItAZZRQiif/Z9IyiN9nQIpa22Vx8nKYJo2XxPK21jaPQ4CebM5g0+VaHeRbb5Vb1CaitVWWkdUN3ye8kOMHTtdfiv/B6i7/7vsC59Dx6lh9ZgRiSRak9LRtKmb0dWbwrKKaV+FJj9kHIXX0Hura+j+PK/QvHV30Ph9DdQmL8Alx1LdSFnoZc6aUWiBWpDe6jSJCA23sOoF3QlUfZyvD0TRYwX1JN6yWhWEQ3wks1d/M4w1U6vKo9luDEN1FCeDftOo1e13kYwdgmJboJOanDy0quwZs+ykFlFbS0vKdaXTUGbXhXP/iWiP/8/Yb36b+DdeJVSgs1qxnBUBio7krpuR3D3n4Q7epiXaYeRzC5qQklqUte7/R68t/8znBf/KZw3fgvu+a+hcPN15K48B/ed/4z6a7+D5Or3GsuEu6GRwQ5wShPwpg/CoordCXQlkUZjh4cK2DdZxJFdPnuVXERVYiNjpj5bKnUjdC9pA53S0TE2AsW2niK1w6rR7TpMOWBitMMQiX9qQJuWo32NKuDWO/C0S4ca1EjO1sxsmrEm1OBG8thwggrcpetwLr9KtfVn8E59HTj9F7CuU91QfRn1Kbe8AT1+HWtUWysKqEbYs3g0VYdpHhr5iFjOhUvwLr6I3Kk/NovunJvv0kCn5CnPpPe8/T5J9V2W6zQc1olUYz/FEOxiyXhpiZ+O5G8XmyZxaKKARw6OkkSay2EvN72HuRah1g1WtVRIKzq3eQM62SlCaghWgvRNRtoeRkZ2L7BofGrRhjP7Dtwbr8FnhevNPab3r+avS147gvFkA8moJ5Hc6hzyItALvw3nuX8G+83/CLt8ladYN94w49B6Yzzzu3EfvXUomjiCZGh8dXyneXd5Xzwkh+DCi3BJoPyF76DAcvtuCbYzQiJqv6Q8nMRDcWEG+aWbtPfKrDkZ9htWsIHks1aJK2h3N7e0m163lw5YbhObJuG6LsaGcnhgbwF7R9TDmWUaY6mW3wQs21aXghh7lTXLO9LAz1GdDvHoxkb1KnRP3VtzbNfeRvzG78M+9x328utMTWnIRNeuaRmpugSRgPaOy6rPUZrlrnwP1kv/HM63/xH8l38Lw3On4MswNcSRZGlIwob3qjqKYxJj173AiZ9GffQQQu1zJAK1DBQqHz4dh8KNU8if+lOS/4JZjB9QmrU+t2psIN7HbDailjN1RJtIDOwRsqDoAqBqj8HK76dKG22c2To2JZHUWjHv4949Q9gjEqlHK/e9QNF6jNoJqhyHjWjbeuyG+tuoo17Am/KfRqyt8jwsqjXv/T+Be+E52HS5NXKcliNDmlGzalGB5/QMvbN0lerkHTi8ztUmVu/+EYrvfhP+uRfgzLxrJJIjNUnJ1zRwRSASSh2N+jcZnka4/wkERz9vVhca99zkLw26Qvf1Fq6RpK9TXb0Hi/nTc291Hg/Y5NlfpNUJ0gi5knmUO3G1IE9I/98MjdyZUoZWAYme9PX0HrbtoSdhpq33jk6VsKsor6FsLtrePFQvSBvDoQrRC+HWP7vVY8WxgZ2QkuS9/w/e6/83nHf+2Hg9Dt3tuPE6cy0zsfjpaeF7UoNPT9B4RpepWn7wn2A/+49hf/s34b76rzF64zwKAe+t5/FbJIWZE1No/I7jmlm7E+5/ClUSqLL/MdogeoAwrb0m0sX5HlWud/5Fs+BMz85L/dAcRzWproaAUk0L9OvFAwiH9iH2iySVYvam5lsh1RxrR7UcJVFvVdkV1DYNmdoDzl6bw1uX5vD+Yh5lzSSsy3yWlCopxnDOw3B+o8FBNDb+lFRordgmJAkLr/0bFL/3f8Gj2x5F7JO8TS92QAqmS92YaLyLdoneK2YP7zIL1WpqVG8XrBxtDYcqpc581G4iqdLeqFXM8tpYS2xrNOppxJrVBAm9Lqqrjst+ZQdJMkUV1IpjqO4+ieThX0A0/SB7/ZQqW5EatZPWnZSeT3nj0H33Xv1dlnGZx2gH0qaLSRg1j7kT68GlQe/4BdTu/6qZ2a/t/6iZ30zRnp/0t9Y8hdUaquUyP+ukMI/zX1Jj2S5+H9FLX8Pu6gx++V/+LvbefxeexZ8c9s0j1CNeTDulE/t75mNvYKNENFK1SlAvQJEJaZZftNfXhjCMY1KUaGqERUohPS17/jn4Z/7c7OGYDg4ynPkWXLrrzjl6P3ok++Z79IyuGW/MVL5e8CIpoUbo8Mfc8j6UPrJ7ph6AffzziPeQQIUJXpCRRpnX/2sLEYdsZKlQEdFINcl6l79lFVIiy4ZiOuHUScSHnkA4foB1wzTWJtMTREy9FRLjB9P9BiSMOzVnj+iLRKMjQ9g/NYqJXIC8lUmPDUrRUwFFvI3JF9CjKdMlraJGKRSYSt5K7cmusujpJO4Ie1wBPivOr1ymPfIubRENBdCVphdo09hUHM3M205RFzZS2BiaZ5fWrQ8fgn3P5zH8kS/DLozzTFpPrQOD60ps7pHeJyuZeWeZfqmFgxXUJw5j6b4vYfHgx1HXOzyMKt647jqDuXB9OJMHYI+Q4CLjNtBb7bSgkHPw6OExHBqXp6ZZ9VYKp5W1CpV/i4ONBhLlpgeOwBrTy3J9eiM6np7eLkyPp9dnOSVDriDJ0eZglfSdfuqFaRlueeQQoo/+PCoHPo6lWOll5ZeskhJL59rSqQ8NmcjtptMw8Sicg8+wfHQGqktUoXQIGOJkgfaPi/pDP4ngoZ+lFPo062GYqpX531Akd68oXWWeXqYKz00WUDxQYIdh/rZEyC2QyHcd7J8oYn/JxYQXwmOO0h6mYGa3GjFbsFFZNwML5hbH4VF863GXtOd1r6D+wNzKg7Pk+emxZIfJK7O9p6+HAmS7SD0E48cQHvkMosMfR1A6gLrspzRW4/+USKktmd5DfzLOo4njiO55Gsmhp8wzcuGeBxBMn0Rw8EnUjj+N2okvISAxE6araRazsL+nLKaR1C5rmyH9bY2Mwp7eZyZjt0qivgzrVly4MoO3L97GqeUSylFzdFYz22kl7dQmVxaG7ToKc+8g+NpvALNXjSr6sEDrrVXmoLAH+MhfY/g5VPO0M2RzrBa6tfl0rFV6C6na0grO0cWziFZuoFpdREhJZmwfqjHbZ2OT5Hp826Fap3ymPMvqzNAh/dqG1LCmn1eumM91uPQKdodX8PO/8new7+BBMy7YL/qWRBkq7GVLseauRRktiUiDelZ/6F4BKRJU6Kks+bsR7P804tJBxHSDt2UJ7gDkhfny3FBEffRRrDz+91A+/kWzsZRZT8S/5mBmhlZStQSpfIbIy2GpdAgrux9G/cBTiGhAY/yIscvUETX2pFoOmHJzEDJLZ2tI8hOIRg7CvEJ0i+ibRHIpK5UKFisxZgOPdoSOppWTEqhfEm0O2Sk1t0TR/kn2ynuoPrrNnt0lUIXJpom10wbd+JhqKD5GNTZBdWaeAdusUbOGXxtP5Kv7tM30yLOeJ9NLaCiBzPJYU7VSheq0Kn8qvTYn0MbnE3q+cWk/DW1tzbxZWp3RN4n0KPX8wiJmluqYrVISNebP1O82L1An9EA8SR23YHpmMHkfQmu4UYkfDLTGSgZxZeoEgge/COejPw13bI8ZazKOAJE2djdpmTW+Asth6pBBal/jPo2QTo10SqP1+u1By0IwpukPmh13i0QVip53Z2q4tsiKbFSSKiz9vgkZtgFN/Eb+EKL9H0V0/xdZaNoHSQ0e3ZTtV2WPYINKlQbD+1E9+gzCx/4mgsOfMIOW6bKPRn0Yr0velwiV1YtCltPsdyM05tqaaDu/Gtqha7Zfer0gcebWPJaWGzuc9Im+SFStUfoslnFhLsBcJTOgWTiWw6zwW4OdKWArtENGvOsYoqOfQrT7fqNOzEhZtx6vhtli72qFzbKZvajV2FRZAT2w6r1fRnhQu83S8JU9Ye6TNna63joN2bEmWvKjr13z2HptexpC6zWdru8d1SDG6Rm2660VQ6RIkrAP9EWiBT2DNjOLmZUY5bAt4+sqYnsFW490zEg7kEUHH0f1xE+kLnVQS6VAO5gfs1tHxwbqHRqB1vOajhXC0vZ6x7+E8JFfQO3BZ1AvMi+mCnmPvgZAs3j83HAcrRuROl3T673XoxImeH0mwltXl3D15izq9c7rL7uhZxLJoL40H+H1a2SuS2PPl5vdKJRx4TcrZDcobq/x0/Q1kRkc/Wxj7OQpHiFhomwkWz/5e7VRs+/9Id0uhlKOkq46tA+VB34Klc/8dyjf90WEpWk4dMe1ze9quVfrgNfyQwOB6WBga/kacbN6UnzZQ1kw17de0ykIitcpbA3aAyDnFXB12cErV+q4RtWmvRd6RU+1K515a2HFvN6cUo/KI+vhLRlvVODWkFVOj7B9xCP7EB74GOrHfxzR9MfMjq7aWs+899R4TwTz1Kz6ze5B9SPVqFcuaOsVFad0ADFtnvD4XyFhfxy1Y59DfeIoSVw0k7GZDWTQUv6MQE0SbQBdtxoax1Zz3R7uFCw6BS5WYg+Xly28dZ0a5/aK8cKbE7zd0ROJqhRvpy9Rjc1pXCQ2vVArDT8YpJVpsXDR5D2on/wpBA/9IiJNTCYVtkWZBafRbzybRuMY6LN7MOt/dL2mcrTDmuUgoZSLn/xVRI//MsLDn0GY38O4WhGmitV13XA3Gn6nQLI3vukJ55qdx0tXQ/zg6jLm5hcQ6kmfTbDpiHW9XsfMQgXffPs2biwDNa01NN5E62XtFabvCYYLLobynm7Stc63+yJhbdrklpfgzp2FO/s2olunzdsQrdlzcEkmm/fWfBtpQkOXUrRxG2XfzMMROqZdXuPSETiTR2BNHEE4eZw21z1UXZRGVN3mCY8NyvFhhZ6311KQmhmxppRtr2eWyXJdDO8ao4Cn48KK0TUjTmReBvSJoyPYPTaEfL77Bqabkugm1diZ60t47mINy4EWibX2xOxSZawtczyXTnv0QqKNpj02QpqomQ7Qep/qLGJthXfjTbi330WuvgSrsohEa4MouTIi6SrZAdpZNaGxnBRKVIe7EI4ehz12GPbEAdRL6Ubn2nFNMOuETDA/f2iQkWjNeqI2OJ6D4Ql6uoZEpBnrJg5jFOwYD+12cN+eYRycHILnaZ5x/fUbkkin3rw0j9cuLuB6LY+6meFOvaSUSApCJxLd+RfErAMLr1FfPbPv1xcwsnINwe3zqM5dgR3Q8G7R7zFFd5wvIh7bA5tSxyodpqel0eZsrXTLFI6WZKh4+tmDjfBhQqskCvjZiUQuSTQ6McQO5SFokEQT05qMDqoreHJ/Dp88NoLRkeGOc2tdSaQ3Ct2aW8Crl1bw5o06e6Q24FYCZGpmb2SV3BH9vNJcJFpfuP6gG1iUMJo5J9HpWekBv6ReQZRtlN5+C5JDksjyiqzJIitcVZySeQ2JzHX6r3s5PqzISNR1ApaQJBqiJLJaJJGx/VgXMdt60gtwuAR87OgYJkcK5rVlrehKopVKHW+du4G3bgY4v2TDFYGkyqQGVkkktF6u71lL9UOi/sYlOiO9gVSb7BfZOa2SJzHSpMkik6dVSdoAf8pm0F86ZdEl0z9E6I1ELgoTJWMTqfnSjsQO1qgvm95qyQlxctrHcaq2veNFI5Ey1ZZ2uw4IogSXF0MsBA7cXCEdN2mc6w5VeoeKvyttodyljS9PyxB9NT+pCrbMFnhpgM6zgtcExktnvLJrf5SQSmGtCTP9hx1Q42DGFqR0Xw5zeOnCCt69togV2ld6BjFDVxKp444XbAy5mQ2UVrKaqdFe5vdaKLkWqvF02uM3QpruAHcWaS1vVM88ZyKtj2O6lrw2qvxzMzW88O4Mbs8vGc9d6EqinOvQIh/GLhLJDcopI41aEgM3ykwGkslkKv21MXqKNMA2kMrY9TUtdZdtuL7a/zMhkQVzNf/otMzXbFyYC3H99hLKldTW7E4i6sfjBybNMthCqG3uGiTK1EBXCdNy9xYbZIAPFrLzhHSgo4lYJArlRDSgMcDWYKCzkkYxAi+HsjOEG/MrWFxJ36rQlUQZdo/mcGLvkNlqJsVGl2Q3bYA/e9v4c9NsDLBNqJa13jJdc9mE41jGxU+X+XUQDHJOjMBgoCCxojoKToR7Dk5jisa4sGnrTZTyODI9ipFcYnYG2RI249EAHxyoLcwMhEGm9MzXlDwNAsmJj8IQJS/CgZKFXaNFFPLpktpNSVQaHsK+qVFM5TWCqUnHxokB/guDZJHI0rCcRJ6Gx2rAjygMMF208MCUj/yqZupRjxQo7h7aN4S9wy5CWuQyxjoju2kWekE/cQfYKay1jIRubSCKUA1SWk1Q8OwdH8Ke3RPwWl7O0xOJPNfGvglKpJKPST+GxwTXatYMaUbEae2uoclPg005smmEAXYAqmUFGdcNebOKdIxIge3a1hwyvmXK3DOVx/7JAoYKearAPiWR2V6mWCSRcjg2adOwatxsHbJsyogTibTYvC1HA3wgSImThqxF0u/6JfpkZrcGG3ksEwA8omU1eTvGRw6UcGB8/TN/PZEow65SAcf2jMK3aySHnn6SSGslUyr6dHs9WNfbEnrF6SsbA+wQJAqSKEEYtLj4ayBy2dhdsHF8wsZowe84AdtX6w0xkd2jeVrnNLjprZmF6BoLWjcepHFtzV/pXOPQAB8opDnU2K1BTSOvS+pqnQ4jdF6iYO+oNjkrmc3OOm09s/7IBlACwyTSyekcmCZJEkJv3NGkbEeQRGYSb0CkDxxqgtSSbf6l4Lc17dMklHSKb9exhyrsnv0TZgC6E/oikSCrXFsTTw57yGOJdo9m4DMWp1lNQ69Jd+4FA9wdaLDRoePUtJay9gPy5Mz9Exb2aLvMDdA3iYyRTet8iiTaV7TgS6WtGmFtyA5vypFNIwywA1Atr6tpiiENNqYEks+2dkA5pnPUZbXQKvomUYZdVGuHS0WSiKztdg8eH3hnHw5knlnTI2sHyaOBxpY1WHUa3RfnI9wuRzy8llyt2DKJbjHh8/OhuZH0a+qpZVAms7AZ+lF9A9w5qA1SNZZBG2msxAXMLNZx/easWe3aCX23nkRbrVbDfCXGrapttjlJDevMWMuIw0/9XJuvAe4q1ld+2iTN4+lSkIaUMU6Q2jJtOzlFemPj9aUQZ2bKqIadpVHfJNKuIFrZtlALsZx45j2k6138BhoZacnzAHcN6ytdRzQ21AqpqYjkSLs+z2kyVlFMZMvsuH9tJca7t0KU6zFtpPXapW8S1XnDy7fKmF/WU6K07Mlk2dZbhy5uTaBRApFPBRqE/kK3Dt0zlAZpYdJR25JgtosqBcaZmWXcWmw89NCCvkgkVSYSnZ8LjbFlxCLbfy2JWgph+MH/1pzvhCxChwowkmwQeg+NOusR8szk5qfzDDK5qbLM9Y00zKy+hUpk4fRMBdcXakYbtXpsfZFII5vLFGnnFhPc1saxjeMZmr8bmeCBjaSUyQiD9PK6oJfRKFDcdjw/CJ2DqlR/kiBZ3W3QkfUAhmNm5HWVyCHSNCLrg9cr0VqQ4P1bNVydr5rX3LeSqOsjQ51wY6GM92+U8fKlCpaozfSqhKaRxkzohqtIMJxzMawRqw6QLpaBvrRSw8rKBs/1m+SzewzQG9TwjW9sXr2KNQkby5o7IH1kaAS2nz5uZWdvYxI1Vl172kf8ft9YhEemXRw5MI18Ln3+rC8SvXNpFq9fmMPlsoeanoZtbVulomeUWzCcczqSKAxD1KoiUBWVcg11SrdW9G2oDdAVal41/kYaoSuJBEmmrG35b8yp4vBIgk/cN43xkaJ5rL5nEikjL75zHc+fuolqbqSxxW47Wpvf6kgiqcRKeQWLS8tYXKwbz6AVynq7BzHAnUWTRK7hyhoSCUal8ZP2UxjUMerG+NKDJfN8/lCx0Funl+RYWFjAUggE/hhcspWcbZzVzdKmb35vyUALzLv2qRJn58tYWqoj5m/FzFay6LtSpSZX9AHuKtqoYFRZI2TNwWN6IbKGdU7RyL7BNhR6IpE8sot062+vxIidHPSCf41TryWNQndUqwEW9ZjJ0golUYA4SEVsq9TJlropzzLzBrgzSOs3DWvRaIHVCPyvVVHxqx6dDmjKXJwNcGO+xnat9kYibQz53q06mZcuXoooN7Rb2mbEETQ4pRHRleUybt1eRGW5QgIFJBCzK9lpMtsMq+/uGIQ7ENgWDJL0JvC7rBn+MxCBpBNS6dM42KGNwyjBzWWGhSoWKBQ2tYkCNvgNqp+vvXEbs1XewNX2K60r4Zo30yo4SZBMivi23mIYUnVVUK0ExkuQ9JEaa32Wux26enN6DrAVqG5tLW+mDIjNi+OoolwXxfFheMU8bM9LSdQRjZbRZbSRdxdCHN/lbk6iuYVlnL2xjGfPVenWO7B5QzMgtYr0u0meCcuOLno0qun9DfHTJWvKdOMz0kh+ybiOs0d3B7jrsDS4SLWkzpzxAmzX0HHpdVtYobkR6KV9q69qkFhQ+2Vtxgt4vc/GnBoiITcj0enLs/jBxVmcXcmbUcu1SGiwU7FRB1n81KvHJwsO9o74ODAEjA/nMFzMMjLAhxVhGGF+uYrFcki7N8CV2xWsoIjAG6H6o/kSR/yU9pESTAnERjd7Vg3Ro9uQRHLrXzlzGy+emUMZQ6AyYiLN6NrNfiIXYaqQYNeQg/HSEEYKPopMmN49PIpNR8tnB/hQQxSQ56zthGTvVIMI5VqEJTpDN+lM3VquYZahTNs4tH0kemWYiJQ4lFf82o1Emh/R7urPn1vA9y6tUNoV4LsW1VViVNVwgVIm72HUTzCW1zY0DkpD2kXLM6sfB/jhhraNqVTrmKvFWFgJKaXqJFGElUBTXwwBzKx+ta49jLqQSK9guHh1Bt+/VsXpWRKHxs5o3sauIqiqLOzdVcLkeGlAmB8RiCZysmQj35hdxpWVBNfIpNu0n7qSqFyp4fS5y6jSgvfyBYyOjqBg1BQNKoacT1HWsuXaAP/lQ+aNNsavUyJpRWuVKrBc24BEdbrj12/OwaWgkXGsJ2DNPMmANAM0IOrI7NnQsB5ggF4wMGgG2DYGJBpg2xiQaIBtY0CiAbaNAYkG2DYGJBpgmwD+f3bRwVE2ixn5AAAAAElFTkSuQmCCM7a+9bx1ek9hu87APFuQbJvmryEcBPQ+OiOVqS0DMBMguo9DeJvI7c4MngnpQ/+c1c9etO7Z57C3Z9GYLY8AtFY4hmb0BJaQMOQwL5n+aoNkPBHURGQhNlPvcVa0PmhlFe9JppKwAkxlSjwKpvDgYV6AqzW4TCN2ul2XEEw7d67lPyWlX45XOQfyYRyXaXX6nmsEJ8tcF0TxASpNEtmCWUK6Vq1v2KJ33qrtbZygJtwW8mziWe71DfkhejVAzQeaJurRqHIwuk5714l9zxIznsULvbDYtydtx84TnpxZ3LRT82vWn9+wVnYL4PdQz0NbUD5FQmQB81rPZrV1m0Vb1kAa185/3tbPfd6qzTO0o0e5DvRDIosWWkEOYM1pOqd9GtMqIsItbeqEZpl1IPzmBYvOv2Dt575o6xe/YAsxqd41gYm1/qkODWIA8UXUcvDIGSGXNIXeEPP9HiSBPKfZ61sEqIJKjmEpUhxFzBWQvszkx0nmCkzu0f45qqP0pmBkniFA5QjV8LhWOz4fk7+fmLSqTTOOU+6bhHptvYXT0/dX18etvmXEcdWtTctwNuY4R1mIq4CGUEigF4i0ef1CA8saQahMsN1H9G/moYziM7VV27F0aL7bXNlVTBQOrucKWkCvpOvHZmSXpSbTKnXHa5bqbazTL1p29lWbnXrOhgTtA61Lou6QGFt7jITasptnw4f+On8Sn7V84wtWvfANy5/8BUuf+ce2uPgtWzz9ZbOnCGfOPAmzNGACAYckoonqiq0VlwOs3syWZPtEomZ2EHb1RT9Gq314FU5FTS2MJjxxQpfaQBQvbZijSj5RMgUmFFCmUACYmvjUi1cq7MJOHTWCWA3p6aeknGFUIfcu5e/kxMPFXZqiEpjaoGJIg7X33DDq2ZD4K986bY2zZy2LUTfUm0I47bMzazQtj+F6GEgr+vJCIcsIYnAs9Fqs4jON4kIoQGwBoDs1OLaaDJaDq7BMugweARRNLNFWJF/716Z1VPbWMzYHzMHa87ZX37ZdpH+AapzR1qA6tVblAIkaIUljV4mzsG3z7lPWfPIbtvnFX7e1r/xza3/1v7H2l/8Lqz77NZuefsbGzb5NcO60KE5boArMGgCGmJmCDhY+3g2NoYFmf/TGtGik34CRdDZ766j5tguBwPSNrKTZpBqU7tnN0gl6MAkYLYzVULwX5Cvo6atGWJwe/BmNRm4z/ScWSzR/SirLqEE4gkhc1TIYYsK5hLoTmELrVxedNatvbhNV4Ojw+Blt0ET2lIx1xpvVbtIzS7MJ/JaUtaptNDnRMCBtlNbRQHtNkslljQVLo+hYDjfDDFBvip1OjLirfdq6T33etl/+WYvPf85HX+5is6dxzxYNVCxMm6GWq1qFH2gtMQ0DgyzAxoYbNqk/baP2C7bXfMHutl+2vc5ztts8a7vcP4BhffiP/nooB0NrgggeBEy0WjV2z7VK2KXX6bWjgWjkU3m0s0Z4UoWJxdirrN3M7vmvJUSOlXftATD0GU50o1Ce8Ov6qvv0lq52thwOhxBVocX9cku8Hkj3Ty2fKtdYKpK4IgjHEHcIt8+wiQPfZaSB2u02T1uvheNR3UKqOmUYoI3v8zGx59A6+dCamu2nGpxBZ7AJocsROnUYhz4xPaRZ+CJwsuw+INawt1pigtocRBu+nemN9iu2u/aapRd+zoonv27RmZcsbq/jIC2ww5LEmbU1KkOYobVKQyQ11UA+fY4JK0QmDQJkOEQp3msS9W2E7Z3y2UMZtI47MyKp2zbJjyRMdhHNg5OjzYYldYrpAxDWXrtyKDHnaBz8FdpcwOTaaFlLbKRkfKNI7KnHrCvHiHodCQX+TmpJ4pLmnvwz15bn5AhNoNDtW0MbjbWoq5zsva9cdVzBpzP3s5eAKJ4hfAGY1WCCxzxAam6ifvY55oQisbXwUp84/ar1259DJeJdEq9pK7QWBF6DwJvYyD790EZMCtE0watVd+N6YUkztgncfESYoHBD1ySNMdxdJYbNYJZBsGl7jWdsf+tnLH3ym9Z85T+19OxX7KC65vOL2lGkjxijYHkunAvjLABRtl2zM/pVIL0NprhUP3Sn/RYmhfZj0Or4ro2qTUu1J3tYc7WoGacCdbYCSeBUBBISOwNUbY+uiesq4Zc28hfBFe5I1uTR6hlHOPMjkNSEg1Syfo5L2ec8HdAlmI8mTqsyanRflUbzlUrLdbM3bkB8bJd+pU8/Gl6mFaD3k2B1/MqvyyOVIJ3ly0jazugIicTD1Fof3HO9YRwgOfUeLv1pvMHtl3xZonS85hGr05FFyaEFhCpV9LDAVMUaeEhxlqZIzQQPd1br2EKLlONSXR9O57abLAhBGjZpnbfKkz9jMSB2Pv8rdtR70XZr520U9JGkCOdEmzVmPq1VJx7VUhS9QpEAlPb3U9KGUtreVH1GYNx0pDxbq/RSpEYOSznhjFajEErUiejgKitGllmQvZTmgy6+SIy6YtEWR0/hidbm7g6O7PqdPbu1O7eBJq2AR68e6of3fHhwKZ3LH3ZDbdBp/Tqc61N5OBBJKwsWBKzS4VoPtDsyu3R1x67f3rF6m/hHnAeYLo2SEg6Scr0OLsdJTVz2gfMYdDg0AxS9ba3guZkRVsxwomZ4k5WOTQFtrHc5UAE5unGKlCV4zQMaMK9ol5EWz6NevELtXKIkLa8dtJr0rpM2AIATuu5LICFGiJMVtG2PsGM/PmfJ+nO2OPOqxRdes/q5z1l97bSvmNMaVb2hJsdo9Q6Msn6iQ6+v6w0x/bSb5i5rSI9ey0PZcQ/qVkB4kKM3VrR/nzZkRIZRmxFtDxWSIPGanpZ6TF29auGZ2qk6kHI0TzDVz44ADdrJdwuFlpkkWpiQROcgIoqAn0I1T3BxTbSVKD0KpqjjN2spAw8X5/B1Avu99+GeXbu1Y0MMZ73V5alaskE1rocFZgnoI2CSZXe1rH4uvYcV19vKjVxvRBMYzzpwvRY0teyogQ2itQJy3GtZ0e4RNHfowAZhEqpS3Iv91AaHqltNbtK2blaz9ayLSiXUwIomxCGjIiKYaNhRbdMmvWescv6LFl/8OWspbNh6ltBo3SZyRIBB7fO9Zh1MMaiAhFkBwIGEmcTUEcxb1/KPYuJAwi4ArEVjWnsw5q4R18sNGWv0N/LYMsRNEFOQAXIGk+WAqNBLWbuNRZkG7RNpdA+XCsAUHq75fMUBdhsfRTFoBadKgitARW+1XT8LcgKYiCwACnY1VTHPiLDk1t4MMK/ZGKUd1SGyG24ayb2SToFJnc4L2pHqOJhKAlrvR+hno6S+tX4nBoA4A8w8tDHe3BCOOyBPqHvA9/26iFkHMP1mJLaTdml5oyafM4g41xINnhfBzfWsZc1ZnzBCddF2gvfK2jkLiBejsy9beO5VC/RzGKdeskX3CZinZ6M5UoK20E8turJCMqUOlSVrngGg3BIV7UAZechafhLr56FgG0mjwJRfHGkTfhwmSW4NmoRkB1IrJhaSSL2KoSwHZgkmGqSGOMaYkNoYLx2boKjBBw1EM0CqEZbVm9hgmExreLUJs5bK6G1pSCQqO60rt65+WGgkp9vtlut54BwBClOVvx9ChTf2Ert0fdfeu3LH3/GoNfHckLA5kqnXvudu6wAR4yB+0J4H+sljPUBLTHzlmCQGzpqiSrK5GiOujel0HXBif8XuiKxjjk1dSE1S18ZsQh5ba3hgwfAKxu8yiF+2cbKD4zBA3Y6tkjfh7jYM0sVWBjaRx9NuWqODZ0qoEzWQ7saaL4dc1HrEcy1LIK5+M0SLrbRkQ+12MMUs5NLjLGM92cBZVduGh2gB/aTU0H9tV/OKGAS/J8d4lwBhRhTBAqCk2zRTonVK9DGBzjP6p1z+wi2eK8cOmq45QqoPBr7VqQZVNPEgHGRP2/2+j7ilOEiiWxNn78xW1y6cwVHcQisBqAZKTgCzdHn163MTLK1WWv8QiXznw5vYtQbEIO7CC8OfwFNE+lBN0tjy7LT1mSZX74NJcjAlsZo+SskDOIwYsYLNk/2DYfDZIBqqrMB2QuQEQkxRj9rYsAuBN2lsWyvb5wNsyz6O0J6NiXHHeNMJXCdvUuzke7RTR1BtA1DfegSXnRoaQMELHqh++levw2ltzUILvwgfNFg/A1DFdZI9gaOjB+m0uRzkiL0tOja0IgA1r+y7ay6zJExM6EG/PF4kWkcTkPSpQAtMIW8KjVPt6iWGXYLZpgMNXNVwX4vVAEzrlmAQ/dCdRoJ6W5u2vr6OxC5sRr8r0KKDt31qvW3nN1t2YQsTo6VPJ4E5RSTUGG31deXOof3oyg27dvfIwtYGgOpVcDgHwDVKISJFsLWvTxEvOpihxVpxJzQfkMwZ0rRPh0fUP6IrpSeon8eo5Vp03LQwa9ioQrxmPX8vRGoNOmG5cBICeJawBEXMv9hGOD1jgE8I5BNNdNfm1sr7tg5IGgFqkts6zg9RZWPq4i5Uogaz9cs9ZYZwQKgNpspV+WQILPvovhRHxYKKGWXzamihuhwgGKOJpMh+KubVHgzyMrUmNwf01RblFbmdc6QMdTtDanMYU0OUmiIDepimsNYUhhsh4fvagBhNE4sxc48rxajttXXrkn1kCHpWMDP6fbIW5bbagT17dt1Od6H3w2AWNES7JevncBMqe/NHN+3yrV082ZlF7U3UE8QjRpGBVvyj4Rb9eHgJpgbD74PJKTpB2SWY+mWhsX5JD+ckhWBgT6IOZCH2mXuOUO+IEECzDkM86SY2ujoaAkqGRiAcIBfBlBDE17zZFIJpvK6q1QUanbGuNWtrziX0l4zX6Wts5QFwnWP5qw56OAQViAKXo6SxzFwRsVXOAaasPi/Lexna3YIO/jvTGLmczsqualONGT6D20eYQL/WpxxQRqv5MaQ8TxJMWWpWXXEaWjCm9kOYMkVofKUW2gJNI4Gqd3rW0Dbi0FA/cqetawSovOAeTPz0dtfOreFbPOwAScXqtyt9fzcetnOY4PTAJahErInI4WXUGSkl4aX7BZyy1G3EvfpxN9oJHRwxPssBylHbNLBATWt1GoTX21qVOYyEEyRPUUsw5SBMUSOJdmyG+Pod53VoGgNWEACcVLSYQB3Dxis6PEXLzmCLO3i7+XDfFqniQ1SmwhyCdNkg/eqtfE5thSanWmPOmvT15Z78k0MnjaRtxuUG0RvqQGtQp7Yt1fshktQpzDsixtbb2/rloOq8CYO26RNeOY6ab2BMSKQfu1GMjp5F/YuJoB5Z62e1i0iZFLZAT/qv30krf6IKKVUAjdcrm61X5Ak8UbNS+7QLQou2XgXtymf6ccaTBtrhPC13F0r00c6eO2UduEIv1+qaFuZq+1EFtSFHrcBWzR5rrtq3Sv5df1ZZAgMxc/2kkiDocVY7jbQgGgE+qqj86Sg8VRRtWj3i+tjqUimcBRIP5jUP6Pu/on/125Y9bNYajtKp4ZGvOO/n+snTfVTRiPuxPXReAwkJoc8UR2jeXMch6kKkpsfK6pdoLvDkwcrWKSSBmrQtkjBZXQuuiAU1oCDJ1YzPVMNsVeqs9tASbUuw+4kWY8EME66NAVSDCJJWOUcabfXtV1HN2rdBG1rJ4xWxtfWc4k8NJkha/ae4ZDOhu2ylD95wzX8Mj6wZFW1XquVdB0dj2z8cPgqmxizcmeEZes9+g3Byo9exLsG7732Duit/2EWyiQok+9ZgyqqA+0rClH/Lox5TlvbfJUHtyYZpib5vGCxnoDoFvAVcjQagDr193JjBzRBRzsUkxvjjpc7oSAah1BkxkpwuEWKCVO1zbci5TNNkdBSR47m0F4kKcLoivaJQTS1GNTm/+vI6ERomI7saxFbxFDLPBlatwndbxfN852oA1phwm2Bev9QgLbGoJjyLe1CN8uhj6NOAwdo4S3VX8QIS0sA05U9+aJivXKlQJj2XALM68efrLa+F4lIkFRydhJJEjZzJ1RPt3dnkgui3gJErGgpUVQ8kLs5n+nFP76dhcuzUWsNefO4iMSIOzPjIMsR6OsGBwaHRnOBSLj358RigS7h1yr+L97UBkhyRaj6kzgPCgwPUXrIEU7Ed2gHObCkGpD0pHRwFqGiUgOJIeZXiSI2R6vec5bBrQdgoRkrIKd62wiZJkLzTGoQSiLh21Iu04mTkSJl+KnjlgcqBKcHUiI4WrCnL0OCkQKUSTL26HiFRFWtmiiVTys5gHIGpuVX90JuGJ4fWgFnb2QQw8VKRQiUfZAeC8ic/SjDBBKBKMAtnCsIjqXlCmRwwAy0fqWnzf3pCX3Nf9afelwKnWlpEDpv99gnerBwbGQaIMQdNGeAEYPdgmtffvml3DqeWYMzdkw3qFknVqlmwjrhSDNDEAaotQxM5GtLtGnJSnDmGURIYQCvwHifJ1sp5etxUMhHHx6v+7yTpzWaFRGqS+qI+qZ06ryQapYQcyXhs85FiRswOcQy6yhb4DfFay+K2FoJr8jrA7AAizFTFvrYWA9tuzu3FJ/onSCaPFKZaaCTktclCE43VwWk8u7Vha90WgMmgw2NUWkMna8TEN+uTyoT/VMdK7TrnKXtXlOkIjKD48rGy29GHzv2UrKHCk87/feVVe3Rc5Ye/3zsn2gGifsJRzp6Wppb7Bins0xYzMLdUK3FugfRHaKyNjY6t9Zong0kNsA06HPTBEsVi1hKY27Ft9gjI8VTdVQBUTYuVDShtaAniEkg/llmpBFdgloMFn0j+MYT6+8rH23NSO4/nsozopVALO691LoApwylIakh16AMjGhIlNMF0NJuBnd7q2Xr/RDCRLAy7hu81WapX6gSofDtt4rDWa1mv07Q64i6J1BI/AVmCVh6lV+9JparUZwdUeSmZq47+tOzAk0+6dlL+MYT6+8ra3ltrfRSFS4et+nPv/Kp/q3ugUeEzQiM+S/pmYIFTBKDlSgVoyPcQL77fqZVAooYbdZ4lQj+QVFheKxzhkaRUJ6dUsMmfNXm3fQJzbKKkUmWlXpUdq/LPPehKWMvjEmL/Xn776fl+LY+Xvby4aPX57z1DlxPb8/D50jwplNKPHSxwCPVmeYFQ6X0cvW6vkTDf52Gu0Kxqa2ttO3N60zptvZFHpEANDyaBQgVeOSKp0MCnvfmqwphMO32qbe22NhaU7TsumWrUo+k+qVePO96Jn5zv1/t4+eOU/XRmVCghm8DUnnwLtKR+fspxFw6aUsE7rtcC21jrgEXNQ0jd+yiYnsQCkk6OuMFayuBcwRVNuXSJ85t8iHB+Sqk8TsRjCbWwOqvNnFTDatUCeuPx8qqGk66dlJ3DHzr395nvUeD45x+TvTxgahxyGRrJoXT6IpkOKkV8M0mQi0FR5k+U1aD9o2DqiocC+lAmudL6qkcpvolxhnz0h3DjvkwqL2PK5Xn3bfms7xoeK8c0afYynnucfO/XaB8zH/8F209FVnuOt2n1/aTsZQSqVKLGnGP/LJp6eMM/JQ0qaCsZrZKcckpRrEbWTpZMgamBVuEJABpp4f+9JLM6h0tysmbC9QgH0iVRVZYAlv6t/F4Bqe80gjrLDaA0/fMY+V5HT7j2Y7IGqf0l309Dvgci7Vp+Xh2Pfy4ZUUwu8mvlfoNc98/lhohOZDxY3CiNBWQLOzgY2Z07mr7TJZwjgfNIkiRidLXfrFei78vEGfOfupqlXM59FKaUxqV0clzNKjigq3zvu8po5uCEjp+UVyCddO2kfAzUT2PWcN1PPCdEAsCstqwiQAFT9JcAKZW/nxI6mPu7Q7t1e89hksbj1lKyHC5uKrPEUJcEkKaHysLwjSV4yoOR+S/b6V0NjdJqYtd/wY/PrlYFKln3lPUtz4mDnIv4jpp4nOwDVvqMG/9YeXXfpyQ/0BYP8sqs3zKrVhTBL/t3r1zMZw0bdiBb04fzVpMZDhJqWGuEsnkADnO7s5v4pltaV+thSznfqMJemkyiEvMFuOUYp4AU6COkcmdvZuPJjHOINuU0nSRgtVWLL7UXkNTpX2lIGGlUW4BzDoTvbfD3GFmd1Hadq/cWf1rW3nILuO9Tk2l7CdSyT3xWzFmt6D2d2AH1PlK2BDy2JNHQp7bEqVsUt6ze4BhxDxhlRBeJRJFrlUobLRnaex8c2q1dFz8lUb385B8giKRJ64H0UxQrqZxRbP/Q7M7eQbnMIkQdKAO4lga6ZFLOy4tLSLKRKyYpHSl1DsLT+H8I+T6o5XGe388LHe+VkSbEN9E2MvU1aNrnWs1m0zmATX3BuZJe1NIPHcim6jc89Tsu+4Pc9pDOR3/aX0niIyfItxCFG8Ag4fQBUvnm+4m999FVmKxhRdQAIABEKjXRK+Vag4PqSGK45CQNsAtIbWmaoKMnZK2Ik0n+JFLJNuSSlz4VqVzVsEwwtC9Jhb4+YQ/dtKdenqVkdGUu+nWICANs4chm+cjqzcCanbY1mmhK7tGb2/rpEC260368zaiwC+c2TwDTiU9GXWqaRpsXYYpsCoVuHZi9denQPrp+Cw3cwxkKqZD4hgeIePK02qiEZiM2vSGmmYIsnVmCfR0NRzYcjWwyyXmEZvJlL/72k3v2y8+fikR79FrCCk5nNNFrCaaAFqDaFlbZsIU1ebGKIKvEmmFq9TZgAqT2uZVQzPMqMX7TQu1EhtO00N5ILbTjo5JZIl5BdeZBuQZF65EE6psfTOzS9R3bOTxyMGVXSylQi1Gy5AYg1muRjw7pFfl0qn33pkgleYpUajsPbQBTkD+h9OkCEwdzme8lgbnMnpbXS+0WokZFHzmNEw4JUlm1drttYQ1MJMVIrXaarxiaEZHSK/2hVjI8AiaVzFKtncEB4mbNZWrV2d7Y7N+9/pHd2h/ZlMAmqDX8DSUt5pJa1hiiBoD1O1ganZDKTWcTmyUJOn/myx+c+xYy+FqWQf2fQHLyfIqkUxBKQ/mnFZ7eOP4IUH1agUrSZ72xlsuhzCc4lQIzsm6vhy1tulMpMCUQenNbQ3vyaOba8+EkyUSS8YFQoThAqHCbgNPNfbPvvP6WjTT7rbeXeJg2uBV4WmYCe5j27tHrc1ruNc9Tm4yObDIkI5Wr3aX1Ay+Knwp/MfZvPzlZPlVglhL3IJBlcij1HwD9fRGOchgXBeBoFcQ85XOGiq1Zu9vHq9Vr//goRQ3pJQ5FzYoPAjDQDwmcACYxD1krwbQzlFbW38aD/fDajr3z4TUcIr2h1EA6CXAppwlqrYLTYG8Dkey3sJmxRvEJV5IxOUFCtdRBvaFjDiZu9ycE5ip9Whyg42CK8A5YeaFMOsc/OURyGBeoy2mm353GbHnZAuC0kK5mGTHgJNGvN1Cf/A7FqdxXqymMoZaTwFTWG8ipkITmH149src/uGq3D8aoXIwuN2uQwGNIQFNkqbWyvUbNNrtt67djbCfqVNM3Wjqo0X4lANXiKD1HgwufRII2n65E1/XClKtS9V3H5QXnbxVYgqnf3dQ6pEQ/BY106CcyfEBBggWQ2vf38HBoh0O94lG4dvSooKrxW+5/BExuHE/Rq0il6QfDqfSdD+7am+99aIMkt6wa+zLLZrtr7U7P1gHv3OkI95jitNP37eFIuzThwiPK7H2g3XjVHhtrf/dPNH3C1T9+QjJlkgQkgD2QZHaWGst/iIYyGp/VTyLrXRuNBuWZzFgg7eqOqaKXBHg0eHM4GtvegYb0dm0yPUnNaqgo10B46O8t3j0c2aVrt+z6nQML8WAbvU1rtTvEPA1toePLSfraHpWHKdjwTPuElU/X8P0eM6oxNkVDSN3KcH8yafW4T0NyNcs/oIQWztblBdLqmuDUWZUpXyci/OCI4TLtuVvB8xcNvRxHUU6vLQxngDoh/j8co36R/ltX3i+kkzfW1xFtkR5Aq6hIjiMk9MPL1+zOwZHNEPON0+dsY/uUrfVLaVNSI8RcAk5KWrZStTiYZDlHKzDn6O50MbMQ8fVpsE8giSCfrlTaTEml/t1vn6AUmKV06qykV+Di/nBWCa9WIcpcEQCEpZAL95L4ouCKihqdA8z3HMx1JLMaCQ6BqfFYPFkASmZaq8kDsJHaaVELwI9ri1XTdFw9R3nlgBwr6qylxjrSy+Z+MmnVqk9HEmg/mclEi/J6KauSSp0rndFyWvHBpKsqpbT6XLl95Z1Crm0JJjKlgV9fuS2F+Wg6CYJPF+n+Y0nHKX0yhR/G4iE3pLxJf39cPi59q3xSuf8//21mn0B8JGuM6IEsMMus21bp/tnPXv6Hmx60Xvdooj/Swp/FvOzNvb58xrKnk/r103PlBjZTu4Osr635uyYKSdxu6viZTEvl5BOpn8HknuMDyD52qly/8m6hCc+NjXWLBCbek6aofNDgM5v+YwDz46eqZv3V+QeqcDqsznzW8jKJKJ/FfC/p88fL2Mz7/pHGKXS6tJmf0ay2ez758qc/8+eRc4+Tzf4/ZXTcRo9CfPMAAAAASUVORK5CYII=;" parent="1" vertex="1">
          <mxGeometry x="690.0000000000001" y="384" width="29.39" height="30" as="geometry" />
        </mxCell>
        <mxCell id="qElc-rtGXhzsWFZlQuVK-22" value="" style="endArrow=none;dashed=1;html=1;dashPattern=1 3;strokeWidth=2;rounded=0;strokeColor=#FFFFFF;entryX=0;entryY=0.5;entryDx=0;entryDy=0;exitX=1;exitY=0.5;exitDx=0;exitDy=0;" parent="1" source="qElc-rtGXhzsWFZlQuVK-7" target="qElc-rtGXhzsWFZlQuVK-12" edge="1">
          <mxGeometry width="50" height="50" relative="1" as="geometry">
            <mxPoint x="751" y="372.5" as="sourcePoint" />
            <mxPoint x="724" y="397.5" as="targetPoint" />
          </mxGeometry>
        </mxCell>
        <mxCell id="qElc-rtGXhzsWFZlQuVK-34" value="" style="shape=image;verticalLabelPosition=bottom;labelBackgroundColor=default;verticalAlign=top;aspect=fixed;imageAspect=0;image=data:image/png,iVBORw0KGgoAAAANSUhEUgAAAHsAAAB7CAYAAABUx/9/AAAAAXNSR0IArs4c6QAAAARnQU1BAACxjwv8YQUAAAAJcEhZcwAAFiUAABYlAUlSJPAAACCnSURBVHhe7X1JcCRXet5Xe2EpbI1G71zEbpJNDkmTFEcKhWaGkmYU1kgOKWI0IckXhyN8cPhg6a6rr777bIcifNDFBx88EZY8mrEcojhjccgmm70B3Y0dqH3f/X0vM6uzErVkFQpAjYEv8CMzX77Mynzf+5f35xZoE7jAuUDQnl7gHOCC7HOEC7LPES7IPke4IPsc4YLsc4QLss8RLsg+R7gg+xzhguxzhAuyzxEuyD5H+KW4ENJqtVGq1FCvN9BotRAIhhCIRBAIh+0aZ4NQAIhQXeLBAPg39filILtSrWNjK4mDZA65chXh+TmElpYQWkjYNc4Gc+EAVsJB3JoNIvZLYCOnnuxPvniOv/30Me6vHyJbLKPWbBgtCiwvIHZzDVfeewvRuVm79gTA1mjTkiAQoAWxywSn3IUw68zRuFyPB/HNxTDeWwjZa6YTU0t2rd7EQbqA//qjz/FX/+MzPN/NodJo8IhbXFkFZiOIvbSGV7/7LczdvI7Q7Iy95THRIZt/btvslJs/aypQubFMW/57lyP4/moYK9GgMe3TiKk1PvlSBf/zHx7ix7/YxONUBYF4GHOJGObmYpidjyLeqCO8c4DC5/dQ2dm2t5oARDKdcRfRglNOdoMhNpu9ukHSk/UWfpFt4O9TTRSbdi+YQkwt2blSHT/6p018vZVGhH4xGKK9ZGCGYJDBWQyhaJQt3UT+4Toqe0l7qwlDCkzyOhqtedeyAy0+q7bw83wDpQuyR0O11sBhpoQvnqawn60gQk0KkGRLnShBEh+KQA6oupdGLZlFq1ojARNsaO5KHs54Ode8iDZke5Cqt/Gs0kKa0xo9zTRiKslO54rY3EmhVqGPHsZfO4CmArd0Gi1q+qRgiJWW6k8E2/N9wXU11tkh4VkSPo2YSrK39gv4xeMDlDmudnyjEGB4rDF2VyFRS6dQfvocrRq1exyIR5lnt/TQ3kFQ56hxm41SC4dTqtpTSfbGXhafPthDtdlCyB0ocahjDlkTm/hAKESysyg+3bRMuR+IXMcsu8U20YboMZSzQsPydaGJveoYG58CppLshzs5/PT+LprNJoOzbi3uQAFbJI5gPIZ6Jo/ixhY1u26vHAxDLMPojlCTxyHXCwVn/zfXoO+enDuZJKaK7DrH1tv7WSQ5vq7X2GAk5QiU7AjQlCvjoaAtHON8GC2lUjNZNEtlu2I3HL87jonuBbcVcPan/3XuP0PN3qPv5ohsqjBVZFcYhT96foj9DAmTbzak9tBsk9oytpz1lB8Pos3OUdnbQz2XVw3T8m4TbZYdYsTKONB2w4Q45DBsvdhC1e4E04KpIrtMM/zZw31spkvATAztSJjBtr9DbNeqNOXPUE+mTKO36O+7TPUEGt7t1wdhu9TEvXSdPvyC7L4o0Nf95NEhNg6KiClbZTSXWkv//EKOanswzHK2a+nZDqqpjF06GTjkGoJ9crdXa+M+o3Ja8qnC1JBdoVYnMyU82M4hma8gQj4tSnmIxpzbftouDYhwh3R2ggDNeT2dM8Fas1q10lqjQNWHiR+wXo4avcvhV4bjbVr0qcHUkJ3JlfB8J4larqgoxy71oN1EoKlEC1tUQy8GZoZ8ReYK1Nohk2Cpp9OsOlpE7DbRXdrsF6zaqc+Jk2DJTVGCZWrI3tzLW4kUHVK/y0YkuGPOTfpUZdZEWh6MRhmgZVHmmLvdqLO6s9IDm5guUkfkxLu9CQJtaLbCOOGrdAM75ekZhk0N2RsHeXz6OEk/10ZIfrkneLiOSRfLhkv907yuSCnBkkPRZNNcY27x4BInOu8SP/Bu4xUb8i7y118WGtieIsc9NWQ/3C/hp48P0Ww0jb/2BxKsoZcrYq8l0ybB0qhULY0lvCbaTcwo8BuNq+9VOHlQbplgbVpw5mTrJoWt/QxSh1k0SrUuczgSpE7hKKdhanUD9YMUGvniWOQ6hHrFz37aVGRHdK9FhhHatCRYzpxsXc589OwQeykGZsa8+mRG5NoabUXmnKeWS9NFTHV/D/V8zqwfCv2kHxkGd11DeBsH1O4nU5JgOXOyy1UlUg6wyWEX4tRMJ/AaBvrtzpjbFZnrjlORX9ndRTObszrCIJADt/ZKxoLZjz3vggI0k2BhwHbWOHOy89XuRMpoB+QhUouM1FutAIpKsNB/e92Cl9hx3YbbXBvx7kZ9kB1tt9o2V8KmIU47U7J1i3AyU8TD7RxSXYkU/zDpVKPdWtKU2k6y66kcakqwlCqGVANNeokf9NrOKz2gcfZWqYkkO3X5jLX7TMlO50rY3E6ixkCqbyJlIEiufLTx3Z7IvB1Es1BELXXIMbd1x0uH9FFhtu0WPzBWg79ZI+Hr2QaS9N9niTMle2s/j8+eHFqJlKgSJfb4eVRwu66cOafBmBIsOZSfWde5RzHXXmJHsfRuF2G0ncdS5Tk9ZpB2cMYh+ZmSvUGyP32URKWt23OllTLDHvFFvuqqo9hQwBYh2fkyytv7w29qECnDpB961XVE4KHpxpUHxabx32eJMyX7wUEJP3mSRKPZNneQqmWk3W2ZZlsswkeEtgnH6K+rHIKl0aqT7H7tzHKvJvuG2dYV7Embe6DM87tfsMbbZ4kzIdskUvYySGcqaLasIVM/yB9bHeCF9K6vjsJ90UI4NyXKVzfLRdSTSRLPoR3hJXbkYNxN8AgbN0n4IQO1p7kGqpw/C5wJ2boj5aunh9hOFbg0RHONOedhdkTLnjJnH51lTTlhm8qEV80dLDmz3FMGwVPXEOwuG4Suum3sccz9gIHauSK7WKnjH746wPpulku6I3SUk3dMvUvT+5h680gvVxU3tzkUG++mBpHbZab9HqqqmvovNthikHYv3YBuhz8LnA3ZHHP+4/ohNlNFxMMhctWbLL9wTL1hVh1AwZ5MejjKBg+isr2LWjrjbveBGI9cu74DHoousarE2Y/uJ39CU35WqdNTJ7tArd5JF7F+WEau0kQ4yMjZXjc2TGdR65oFQ7geKDAROiP9RraAejaPZrHEhncFSYaJITIOzLb2xq75YqONA0bkSZJ+FgmWUyd7J1PEV5splGv6aWnjKaAdRCNfQPXgwEqw2PCaaEfGAjtc52YJ7Zd+2bofvXt/uoNFCZbDM0iwnD7Z+wV8+egA5aqi4wnexcHGbkuTTYBmwWh3KGISLI1iAZXdHQZsegCQfyJ1RF6tbY5uZDqJTa6RHnUcaBgmv719BnewnDrZm/tFfLaeQb3RtN5DYsytDsPWiuNAhNuzJoUqFyGTHomhUSihTN+tMXcnoh4Ere9FrFPuiDqA0wk6YtXtBT0scj/bZGR+DjR7PVnBpxt5NNohhCMMoBRQKbg6ZpDWDfntFzlzJVgaWZK9uYd2dUCCxQ2S5tV+x0x3abHqjAANu54UGjg4gwTLqZFtxtZbKewyOGup93vgP3kyBPZ+urblrB4AFFm1VNKY9J5wCBbkg2UpVOYi12iuTxjz7hIHmtNVsI1TTrCcLtkbh9hLF8DR1lFFVoE0sSNa9pT5Id/sWNtZ8+YuVG0bjpipgrSmcweLiHO1teFRpBhi7BWaN/UcsYp7QuuGiQ6Nsk8zrgTLaT41ohY8FZSrDXz5MIl9jq1jUWmNvaIvRJRH04dv1A0FbAzQzKXPkMbcAZR3d1HPZE3DG20zDHfDaKI02ZDuE/b+3NIPsjBbJStQO807WE6NbCuRksUGx9fjopeptzqB5zSk0Z7I3EBBYTKFQKnYOXO3me5F/EC4CR5hW9U/YDT+JK8Ei114CjgVsguVGnbSJWwwOEsX/T1D3RPSbBHokfaRci13R+ZtnmqQZTdmo3h5PoJrM3qFFeupkjHPEqt+X5i6L6QT1TsyAJ2fsMnVW5X2GaQlGZ6XTkm72TInDxH95WYSZfrtE4HIdGu7ubbtmHxOacZrCNGix/Fr77yCj++s4f3lCOb0Pkq/MGTZWmzLMII7MCS/sAAK/NQf9VqO9Vzz1O5gOR2yD/K4//iQsU6j/5sUJg39jN0JtCCNiofDuPvadbx7cwV39ApK1elHmJsgmyS/5JqqtmvQvI5Ffto5c2t/ToKlbh7xPQ2cCtnP90v4pycZ1JotWC+MO2HCze5NC9tTxmeUuXgEr95axZ0rCfO+Ud3geMTXalFkOeS6ZRBU3Rbrn72JTawbzqKuft1PN7H7/xPZ8tX/uJGD3PVRM3sSsCJ5d6eKkNmFRBTXLy/h5vIs1mJBhL1nT1YcTR5KrgeGaGdbopOAkdjl3l3q6tfjbN0Ea6eBEyVbPloXPXZSBetEnbMlCR3/aoulhZOFaWiKHhZ85eoivnX3GhIzHG8Ts/zJDxZDeImBWocMLxsDYOrLTHNql9hTznH2RfkgqAO0cchAbf0UEiwnSrYe7TGJlEwRIb2l0K3MWhDBtvSMqI8L7oOOA/VWCLeo0b/6xhXMxSyy44wdvrEUwQ1DNgvUzv3aWuT1WGc20Tpnexd6VD8KVlKwdloJFrbqyUGJlHsPD7GfKiMWt9KVfSHC3dpuxsnHJFydRgkV0HyvLuGtX7nC49AyyaYTv8OI/PIMf0taOKCdnSjcXccEXPbhmfXWrH84vYf72Co5d7CMvJeRcGJkt1otZIs1fKJESnKMRApbUoR3zPyYPl6EKGO3Qj99dXWBowHtS8/7B7BGrU4om6dO6Nq910RbQyUej0hVuSP9uFG5d6WWu8QuJ+SzHzEqL9ISqt1OCidGdr5UxyY1eiNdQ2bcAERMOSa9M2+LD/LVcKFgG7evzuHW6hwSc3EuW6csfvUlgCvxoDHlMu6GA7utxYWz7PDicORIB10LLrgrO6L9O2ZfQhTrLXPn6SHbSfMnBevMTwDb6QrubxYYHLFVzT3hx8HRgK7zmo0B0DXzWKiNj99Yw5vXFuzSbrxEM/4+A7UZHqbRaDLqJD0Ex4Rr2hemF7jWa1vtwCl31nFq9ucSB0qbPi8B1I0Tw4mR/Wy/gJ89OkBDL4E/iV9hY3o7wFFtDyEemcGbtxZxdaX3lwauMCx/nb7bfOPDbnyLXDPrDy96xguxO0gXqaYTeY/RQqnRws92a3jGqPykMHEadFp1nujTwyI+f5pGrWF902Py4E7dZl2NaMSeJ/RultmZGF69sYhLC3FT5sUyzfhLiTCiJrNnbWdT4w/uypr3mmmv9IA6gO5leJBqYLvQNO3Xp+qxMHGyeZwo19t4RjP+1W4RlVN7mM2l6XbSJhwJYn4+imscdi0memt2IhLAZRIei+oWJots33C02IhT5NFmG/3KDfizevXK81LDPEig9lM7ThoTJ7taa+LxVg4HJFsaZp7Z0qusHDHB1cmCXpc+MITXrizgt9+8jIUZa7jVD+4EC9mwS3tA67pEkxck9iSyH7StNNgWY/ZZnCXruxx3S7snjYm3fIVj6y/Wk9hNFa24jNpiLjHaYl5P6Vo2ZROG2lwfFbi1MouPXlvGXNQabvXDDE34294Ei6BpR/hPU8dMUwy5nfW2DIKrXr9t9znmfshhWPUExtwTb+litY6fPTjA1mEesbB0rBuGYLemK7CyfezkwIZqNnBtMcrgbAHxIWTHGEG+vhI1426Nn832hgy38E/ax/mOFvNvFJjtHE3us60CtJ/v1VA6gTcjTpRsvWs7TZ9zb7eA7XzdH5HG1NPPujvAMbVdvjfKwGzl0gKuri52Ein9oKtfl+MBJOS3qeVmbO0hVmIi6RH6pUPsMIINtGsed4oxztN8k+acptx0vMlhomTr80xKpOzkKihUm75Jc8y5I25TP6rWq03DjMLv2ImU+dkYdzf4OBSXmQTLbBA3Oe4W+T0j6kHw1u0l/eCs5+/KfKcqTexSw/MTvmdpomTrpfCPn2cZpPEgj2GaDdFjarl8dSwcxsd3VnB3bbTPNr7MSO3DFQ7X+JPSZC9MWR/SjPZ7NdkvtFvV1x+lQkVZP6zhsDDZMfdEyX66nzeJFEWSoVFu+RmALuLd0q8TtFqIB9q4ezPRN5HSD2smwRI1X80dhiPE8s83vPX5c8ZF2B2swoIvacr1VuNJYiJk6xBF8LODEj5/nka12aTpPD7ZATpPelB7yR+CDLb0+UYlUlYWeydS+kEJllsLYcQ4Prca317hQMv9pB/61XOshKvMycvLej8m2buMzCeZYJkI2bpQYxIpmQru75Ymk0hRY7T0fvE+YrRAHapbwvTRc6sJrK0t0V/H0WRj+ZU5xnGXogFzV4t216WxmuVyR5P9QtvZV8kczXVSip2rZxLXPhWYPcvWsVdsTDTBMpGv7JboY+5v5vGffvQAf/WTdURjoWNrti50NKIzVkQ/AlZmONy6ksAfvn8dlxNRu9QfQo0yspUq/rYwi616AAX1Wfdp+GkpMaN62k5toHkVqZyLzu5U3Hd/LG81Wvj+S3H88e0Z3L4cwyxHCsfFRMhO5qr4759s4q8/eY7/9dW+SVMaMzgmWuEomtE4GvEEffNoZC/Hwrg+H8GtpVljjn1BTdBuIFwr0piUcRCaQ2k+gYa+yz2odbzrzDK1VFNK5zo5531bA9XVDqjdH6xG8b1bMfzOa7NY5ijhuJgI2c8OCviPf/05fvooiY1M1S4dH/W5JcolDoBjVsGoh6jqbCwz9YM2Q/hmEeF6GZFGBcFQEyuv3sDKyzcHk8R1jp81ELdGmz3lI8D8nv2b1+fD+NUrMfybd+Zxbf74ZB/bNuhNAro54d5OAds5K5HST6xufgrQz2g04EeCYkVDHPptRvn1cAytGslilKRPRB2BitSRJETXxRMVqQP02Gwg1Dm4vy6/TiRLHIKlasjQTaqdj4tjk23uSEmWsZuvomDG19xlT2GjGPGU9UCwUUOIJjXQ0L3HPMlxXII24U8MFcOQfkMdMoyWpnoPS7WGut6dpujTrmIgYjhvOHHKXOhX3gVnB7YYK9BZtqoIFfptJ8FSmMAwzJzucbCXKePRppVIGUyJnRZ1iwjvgVC1hEghhUBdjU2tM2SPQbhfaP8hPdJL68N53enaqFRQzWWtzzQbQrqJEAw3tsn1DXsbdyRudtQLPA4Nw54c1nHAyPy4ODbZT/esREqNZIQiI/oVNaxNvNF0F/RJp0ghiVA5RytbY4EKT5BwGyK6TVNerdZRSOUYsNn3z4mPY5poIz06zSAUOfT6dL9m8uXHxdhk63hNIuWwjM+f5UC3Qr5G3R3Js026975x0RqqVRCu5BGq5KjlFTa2fmTChGt/6mwdyxHgaCCCer2FWrFihkAOOYboYUQZdbfFjX7lvaAqdjU9OPA428Bu8fh3sIxNdos/XKLpfpau4evd6vETKSLcMe9GRDqthUx6PolAOWNpeIeUCUFES+xOZEw4A7VmixpeazBIY6Dmt4VZr2OiHQ3m/jpDMB/o6hMUJXt052m63GJ7t00IMS7GJrtMVb63nsZOssATkV+1V0wM8p0W8dp1pFygSc+yqxft1RP/QZt4fUFI5LDzsWEr9NsmUOsFMuKY5yM9QkVkxiL+hXXwwk2u2cWReuoswCF99kayiqoszZgYm2y9I0V3pOhthUGTRLFXTBJ2owsh+vBwrXTCJp2/ZVyRFUs0OS1lciTb9ZCDIcRixCKH/ygvImqzykJnvbVoYMoGSC/wNLdpxr84qB3rqZGxyS6R7HsbKexlK4jEImz3k2DbgdX4QQ7FIgzYAhVq+ERN+tH9WGSHUcoWUC3rk2w2DLFscG+bO+UDYHj3iF88zTfw84OGCdjGxVhkm0QK/cgXOxVsM3g4NbBDiRaZ9GgxhXApQy3n7x/Djxmoo9JPW4GahRbnG5QW45I245EOkToG+mCLcB8N36Oa0Qs//ZQbOi4gz3H2LgnP83jGTbCMRXamUMPGQclcgis2edSOVmvqlonD2qdMeqhWxkwtj5uxJpYibJBjE26ZbyN2rNCS324H0KzV0CiX6X81/BF7mthTN0y5S5yJa3koTF3+E9FmG+ucFYnnGCdtZevIjZlgGYvs7cMi7j1No6wkRDRiGkbkmjFq5+aCkyBbsEw62PBzrQo+vNTEa/Mwr8wI+G3QQdBx2wkWcz4kvFFlYJTnmJtWpBNpe2Dz0yVumGW7zD3vhS5VdII+ohPJ81j0KsyvD+rYoYaPg7HI3koW8cVGkm6zDHk2Q7QhfKzdjQV9RnuGpPzeu5fxF791DX/+G5dwRZcBJ3lXps4rHDUJlmI6C/NmRnUGB1z0kuqGFbRZ8/2gjtOvA2nn7khe72D57LCOrTFvVxqJHZ1spdY0d6R8uZk33/ronLtm3A3hLLtlggiEApidCePNmwl8+3YCf/DWPH7/zQReX+XQaVyTrmNUp7VNp6adBIs+Btdv2DOE0A5Uz907nGWJyJaozIHmXctKsNxP17DlJFjcdX1gJLI1wM+W6ljneO/rPQ4D9IRmP22Wv3NMusQ29RMBTzKqZ6tXIlicj2BtMYp3bszgz79zCd+9M484D2mkE3OgY3QdZ1eChf6yxc7d9XJ6nT7FNLqPhjcm2kuoC8OCPpGtD8rs5JtWgsXHb7oxUptIqx9s5rAvM6KPpI5ittkqIlwfW+slfjuCGqRereGdy3P4o7evYNl+R0o0HMS1pSj+5fsL+MvfWsVV3WM0roYL9iswzXGp47Jha8U8mhVrzK1lI71+Q6TKNFOOkGe2GZ5sceD8jhDisSzQomWp2V8fVM1VsVEwEtllhv2fPS9iK1e3Lnr44+cF7IbrJU56dBh03roQ9sqlOfzaa6uYjVnPcSmOmY8F8fbVOP7g7QR++M4SvnHNvvlBbTKkUY/AOVaepDqpSbDkcqhVOObWvhwZBJGu35YKujXabOta7gNvP9EhRUn2Hoe998ZIsOhsfEG71fXqT55XTD48HGr54cY/DOHDNVxrAwhjbWkWt68nEPdcadOjPnfWZvCX37uMf/HWImbDAYR48P4j9aO/b5FtJ1iK9N3D9sVz6ETRhnBLhm1o+HdJT3Cf8tmfHzZGfkTIN9ky4YeZCp48O0Qq0+d93ccFG8lr6r3kh2mu12jC15ZnsTAbQUiN6oGKZljvB99I4D/87lW8eyWKed2VYsyqXakf9Hv0094ES51yJMHSA4bYISbaS6ojfeFUsH9XF0YeZnQHy2gJFt9kZwpVc69ZqiRfoeTCCUGN7TXvYo+iJEc0GsW7txbwyuVZ46c9fcFARVxlIvPfvzuPP/1nS/j1GzEsh9vUTzWcVa8v9NtmLzoWdjp1QAmbK8hOHy5XEXDIFAFeMeRoR0PQr47Ke4kN3WqsjNpmto7sCO891Vn5wq7ekbKdR0WBS8QKik4FhnBF84yKSVU8GsNv3lnEbZrqYdAbkV5aiuDff2cVf/LuPO4k2ubdKb5NutFyV4KFw7BgXTdVFBBoUsNJqmOiHfHCUUq3dK3wwl2xTx29EkSRykMlWEYYc/sm+8F+GX/3MMeBvfX+UYcASwtOCWzoeLOB168t4MryaE97fHx3EX/xu7fw9ssJmn8etx+T7oEuuWarFezmMtSuwdbtCE+mwJ53o2MJHLHL+8B0KP4pR/43OxV8nfH/Su+hTDmJlOepKu4flI2PsIIPS0xaVIS75YQQjwSxPBfBjUv01/aQyy9uLNEi3GaU/t4ivn0rhlszLUSl4v0aV+dl/DanBnQj9OXVRgPFchlN+960XjDFPVfZv+dd55S5y91lXiE05tZD+9scc4ufXt9d8WIoM0qkZEo1jq31VGEdDa+pIrkdn2ZEhDsNNFksJuK4eXUBy4no0Afse+Eyx97/7qNF/Kt3ZvDNVXDM2mak3qeRRLTEPhdvgqWtL/nbwZF24RaLFP1zwWmTTkVrsSe0mu3cSxzQwCJXbiJJTrLluuFpGIaSbRIpz3PY0ztSfEHaLtItM/9C3FoyGtQ29WYQrzEo+/jOAhKx0Yl245u/soh//a0b+O4tvUeFrTbMpMtd2QkWZQO1HC+VEa52v7Ss08c11UKHWEes1UegVW5SVdcnkqUWnqRbtDh2wQAMJdskUjZL2GKoH9TwxQ90on1Fmu8Il/2A596qNXBzMYb3X17EzDHJvsz9fPhqAn/07jJ+5/Y83lyOwEQAtqYegXPcYpHTVjuAYiGPWrXcTaDmHRHcy06ZA1e5Ide1bGQIdDRxHpfG3J8yUPPz6QltMxAauH+6WcVmrsExbsA3P0dBreiYeltMA/oAGyNIstfmwz0TKeNgib7/Dz+6ij/7cBXfe3UWqxyrhTWK6WqzoyerY5Y+7xeyyFXKXdXNfEeLu3Z0BO5I3g+5XihsmicfzwtN/GS3ioKP1OnQ1tb7PyvVKmr1Y3zIpR/Yc/yY+oidSLmyPItEn0TKuLh7fQY//HAZf/bBIr5xmaZad+U77aae3SPBoseEul4N5JAr4rzQKsc8u2QcgnvB7IsWaUjfMhhKtpToxhyDIwa/rWG+bWSwwYyJ9AoPyxb9JinAezcTeHmtfyJlXCzPhQ3h338rgX9+ZxYfrIUwpyjdMenG+ugHdVyWRRL5M5EoovLlhmiudreLs6xV7vVuOSbUH/XS/ARd60sceJvvnQzBULLnIgF8eCOKl5fYmxWJqtB74BMTO7jrCA+PvmiBjf/t2wsm530S0AWUX6fv/sF7c/jh3RiucTnqHJMD9TCTYAnTsoSQiM4iRg1XIk3K1S0vHvA3y9x80qK+qOTZjdkgPlphB/URTw19ZLdOX3CQKeG//J99/GfKTrZ4rHuXfUOtyGj3ldUZ/MadVfzb772M12/Mdz77cBLIcwijfMKPH1fx377I4cfrRRIsjWYTOc3UbpqLQIsLcYR1mVeffeyBgY06AcToyq4nwvjjN+bwgzcYczCeiQwh3Pfz2X//KIu/+SqDx3sF5Dju1ichThJyy3HKG9fn8dHtZXzn7iUsMqg6aVQYkOqq3t89KuF/k2zzPjLde8bOFwzTbJP4YJCuZS5OCz/UMJ4IlGJY5IhEuf/fvBXHB86l3CEY6WF8PeKzyYbYS5aRKYz/mUU/0Ivq1pbncGMlhssLJ0+yF3ofmV7g92i/inxBz3zVqckzZ0awGwt0M6vzIdzUm538vl2CGIls+R+Nu+v15tDc8HGhTylGGB1qmGW9Hvp0oXPV1SU9z6bUqJrJfHj99A/lCDQakcmeieqTk3ahD0zkNRsX+OXA2dukC5waLsg+R7gg+xzhguxzhAuyzxEuyD5HuCD73AD4f8sM6RBWrlLCAAAAAElFTkSuQmCC;" parent="1" vertex="1">
          <mxGeometry x="850" y="120" width="30" height="30" as="geometry" />
        </mxCell>
      </root>
    </mxGraphModel>
  </diagram>
</mxfile>
